<svg width="192" height="192" viewBox="0 0 192 192" fill="none" xmlns="http://www.w3.org/2000/svg">
<g clip-path="url(#clip0_204_3136)">
<mask id="mask0_204_3136" style="mask-type:alpha" maskUnits="userSpaceOnUse" x="0" y="0" width="192" height="192">
<circle cx="96" cy="96" r="96" fill="black"/>
</mask>
<g mask="url(#mask0_204_3136)">
<path d="M192 0H0V192H192V0Z" fill="#0B446B"/>
<path d="M97.5 0H0V192H90.5L97.5 0Z" fill="#0E6AAD"/>
<path d="M66.2251 17.18L96.5001 0C96.5001 0 143.14 18.82 163.045 64.635L137.685 113.18L133.045 112.09L66.2251 17.18Z" fill="#3B9FD9"/>
<path d="M113.135 154.91L71.245 153.905L34.49 167.27L48.77 181.635L29 192H140L125.135 185.18L141.225 160.365L113.135 154.91Z" fill="#0B446B"/>
<path d="M74.9499 161.18L67.3149 175.91L102.495 192L120.52 145.605L74.9499 161.18Z" fill="#3B9FD9"/>
<path d="M142.345 94.5703C142.345 94.5703 136.805 112.125 143.675 125.505C150.545 138.885 143.95 171.005 112.04 164.725C91.41 160.67 122 118.635 122 118.635L142.345 94.5703Z" fill="#3B9FD9"/>
<path d="M101.135 140.725L75.77 161.18L102.68 191.495L130.405 122.115" fill="#0E6AAD"/>
<path d="M136.44 91.2646C136.44 91.2646 125.38 103.91 131.385 115.605C137.39 127.3 135.495 151.64 112.415 150.375C94.0648 149.375 112.415 109.6 112.415 109.6L136.44 91.2646Z" stroke="#0D6AAE" stroke-width="2.15" stroke-miterlimit="10"/>
<path d="M133.95 85.6055C134.605 87.7455 128.63 104.645 137.165 118.635C145 131.475 141.865 159.86 115.465 158.415C94.4651 157.265 106.465 106.58 106.465 106.58L133.95 85.6055Z" stroke="#0D6AAE" stroke-width="2.45" stroke-miterlimit="10"/>
<path d="M131.135 49.09C112.39 36.14 70.6899 13 70.6899 13L44.2349 34.73L43.9399 78.17C45.6199 92.03 50.3849 107.24 55.6799 120.825L72.1799 156.825C73.3499 159.04 74.1799 160.525 74.4999 161.115L74.6649 161.41L121.845 144.285L148.025 75.555C148.025 75.555 146.135 59.455 131.135 49.09Z" fill="#CDE5F6"/>
<path d="M86.0298 21.815C81.8198 19.42 78.1148 17.315 75.2798 15.76L67.6248 14.125L41.1748 35L43.9398 78.16C44.1248 79.66 44.3548 81.23 44.6098 82.79L82.6598 83.445L86.0298 21.815Z" fill="white"/>
<path d="M41.7302 55.3345L75.1452 15.4995C73.7002 14.7395 69.7152 12.4395 69.7152 12.4395L40.6152 34.4395L41.7302 55.3345Z" fill="#0B446B"/>
<path d="M101.405 130.365L90.225 132L77.865 130.7L77.085 136.355C79.9739 137.459 83.0425 138.016 86.135 138C95.885 138 101.95 134.18 104.95 127.91L101.405 130.365Z" fill="#94D2F3"/>
<path d="M43.54 72.46L43.94 78.17C45.62 92.03 50.385 107.24 55.68 120.825L72.18 156.825C73.725 159.75 74.68 161.41 74.68 161.41L83.68 74.735L43.54 72.46Z" fill="#3B9FD9"/>
<path d="M102.095 151.32L121.955 144L147.055 78.1146L148.515 74.9446C148.33 73.9446 145.695 63.5046 136.725 53.2246L102.095 151.32Z" fill="#94D2F3"/>
<path d="M144.705 84.3048C115.87 62.3498 102.205 87.2748 102.205 87.2748L144.145 85.7198L144.705 84.3048Z" fill="white"/>
<path d="M43.9399 78.1704C44.2699 80.8854 44.7199 83.6704 45.2649 86.4454L78.2249 85.6354C62.5699 72.9704 51.2249 73.9704 43.9549 77.8204L43.9399 78.1704Z" fill="white"/>
<path d="M62.5501 116.61C61.5812 117.021 60.7121 117.635 60.002 118.412C59.292 119.188 58.7575 120.109 58.4351 121.11" stroke="#94D2F3" stroke-width="1.87" stroke-miterlimit="10"/>
<path d="M59.0751 89.4402C63.4796 89.4402 67.0501 85.8697 67.0501 81.4652C67.0501 77.0608 63.4796 73.4902 59.0751 73.4902C54.6706 73.4902 51.1001 77.0608 51.1001 81.4652C51.1001 85.8697 54.6706 89.4402 59.0751 89.4402Z" fill="#3B9FD9"/>
<path d="M58.8601 85.3599C60.8566 85.3599 62.4751 83.7414 62.4751 81.7449C62.4751 79.7484 60.8566 78.1299 58.8601 78.1299C56.8636 78.1299 55.2451 79.7484 55.2451 81.7449C55.2451 83.7414 56.8636 85.3599 58.8601 85.3599Z" fill="#0B446B"/>
<path d="M63.1853 82.1948C64.5826 82.1948 65.7153 81.062 65.7153 79.6648C65.7153 78.2675 64.5826 77.1348 63.1853 77.1348C61.788 77.1348 60.6553 78.2675 60.6553 79.6648C60.6553 81.062 61.788 82.1948 63.1853 82.1948Z" fill="white"/>
<path d="M121.57 89.7801C125.975 89.7801 129.545 86.2095 129.545 81.8051C129.545 77.4006 125.975 73.8301 121.57 73.8301C117.166 73.8301 113.595 77.4006 113.595 81.8051C113.595 86.2095 117.166 89.7801 121.57 89.7801Z" fill="#3B9FD9"/>
<path d="M121.355 85.7046C123.351 85.7046 124.97 84.0861 124.97 82.0896C124.97 80.0931 123.351 78.4746 121.355 78.4746C119.358 78.4746 117.74 80.0931 117.74 82.0896C117.74 84.0861 119.358 85.7046 121.355 85.7046Z" fill="#0B446B"/>
<path d="M125.68 82.5405C127.077 82.5405 128.21 81.4077 128.21 80.0105C128.21 78.6132 127.077 77.4805 125.68 77.4805C124.283 77.4805 123.15 78.6132 123.15 80.0105C123.15 81.4077 124.283 82.5405 125.68 82.5405Z" fill="white"/>
<path d="M139.145 60.625L139.12 61.415L134.33 61.26L139.145 60.625ZM142.4 63.455L122.63 62.805L108.66 64.655L142.325 65.755L142.4 63.455ZM145 69.665L145.555 69.455L145.61 67.82V67.79L103.915 66.43L102.49 68.685L141.085 69.945L145 69.665ZM122.45 71.265L101.285 70.575L100.34 72.075V72.83L122.45 71.265Z" fill="#3B9FD9"/>
<path d="M73.8598 70.2146L41.7898 66.1546L41.2148 63.7646L49.5848 64.8246L72.7098 68.3246L73.8598 70.2146ZM56.9998 74.2896L43.3398 72.5596L43.6848 73.9896L56.9998 74.2896ZM76.5948 74.7246L75.1398 72.3196L42.2798 68.1597L42.8548 70.5546L75.6398 74.7047L76.5948 74.7246Z" fill="#399FD9"/>
<path d="M87.3548 133.5C76.3948 133.5 66.5698 129 61.0698 121.465L62.3198 120.555C67.5298 127.69 76.8898 131.95 87.3548 131.95C95.2448 131.95 102.8 129.845 108.07 126.175L108.955 127.445C103.43 131.275 95.5548 133.5 87.3548 133.5Z" fill="#3B9FD9"/>
<path d="M77.8648 130.7C71.3948 128.95 65.8648 125.415 62.3198 120.535L61.0698 121.445C64.8848 126.675 70.7898 130.445 77.7048 132.255L77.8648 130.7Z" fill="#0E6AAD"/>
<path d="M78.3899 113.03C83.2169 113.03 87.1299 109.117 87.1299 104.29C87.1299 99.4628 83.2169 95.5498 78.3899 95.5498C73.5629 95.5498 69.6499 99.4628 69.6499 104.29C69.6499 109.117 73.5629 113.03 78.3899 113.03Z" fill="#CDE5F6"/>
<path d="M92.6052 112.825C97.4322 112.825 101.345 108.912 101.345 104.085C101.345 99.2578 97.4322 95.3447 92.6052 95.3447C87.7783 95.3447 83.8652 99.2578 83.8652 104.085C83.8652 108.912 87.7783 112.825 92.6052 112.825Z" fill="white"/>
<path d="M94.5901 75.5448L89.9501 112.91L79.3301 113.17L83.0801 74.9648L94.5901 75.5448Z" fill="white"/>
<path d="M94.9601 111.145C96.7467 111.145 98.1951 110.592 98.1951 109.91C98.1951 109.228 96.7467 108.675 94.9601 108.675C93.1735 108.675 91.7251 109.228 91.7251 109.91C91.7251 110.592 93.1735 111.145 94.9601 111.145Z" fill="#0B446B"/>
<path d="M76.86 111C78.6466 111 80.095 110.447 80.095 109.765C80.095 109.083 78.6466 108.53 76.86 108.53C75.0734 108.53 73.625 109.083 73.625 109.765C73.625 110.447 75.0734 111 76.86 111Z" fill="#0B446B"/>
<path d="M85.3199 21.4303C87.8758 17.959 91.3468 15.267 95.3449 13.6553C102.14 10.8753 110.445 10.8503 120.12 13.5603C118.5 12.4103 116.927 11.3386 115.4 10.3453C107.455 8.84526 100.465 9.34526 94.5099 11.7803C90.1191 13.5493 86.3179 16.5237 83.5449 20.3603L85.3199 21.4303Z" fill="#0D6AAE"/>
<path d="M52.5002 24.335L40.7552 37.375C40.5652 38.325 40.7952 39.32 40.6152 40.44L56.3752 22.375L52.5002 24.335Z" fill="#0E6AAD"/>
<path d="M72.3601 13.5697C71.9193 13.2748 71.4999 12.949 71.1051 12.5947V12.5947L40.3651 45.5447C40.2801 46.3947 40.2051 47.2747 40.1401 48.1897L72.3601 13.5697Z" fill="#0E6AAD"/>
<path d="M122.11 29.6602C113.065 24.3252 105 22.8952 98.08 25.4152C96.8857 25.8541 95.7356 26.4049 94.645 27.0602L96.67 28.2852C97.3532 27.9249 98.0598 27.6109 98.785 27.3452C105.08 25.0452 112.575 26.4202 121.065 31.4302C143.785 44.8352 152.97 71.8802 155.2 79.6452L156.555 77.0502C153.425 67.1352 143.75 42.4352 122.11 29.6602Z" fill="#0D6AAE"/>
<path d="M160.5 69.4999L161.63 67.3399C157.765 60.6651 153.536 54.2086 148.96 47.9999C135.72 30.2099 123.08 19.9999 111.39 17.5999C103.63 15.9999 96.3748 17.9999 89.8398 23.4999L91.1548 25.0749C97.1898 19.9999 103.865 18.1599 111 19.6099C132.4 23.9599 153 56.4299 160.5 69.4999Z" fill="#0D6AAE"/>
<path d="M149.255 99.39C154.534 89.7249 157.331 81.0807 155.504 80.0827C153.677 79.0847 147.916 86.1109 142.638 95.7761C137.36 105.441 134.562 114.085 136.389 115.083C138.217 116.081 143.977 109.055 149.255 99.39Z" fill="white"/>
<path d="M80.8799 18.7499C84.8449 11.0649 92.7599 4.14988 108.5 6.09488C107 5.23988 105.635 4.49988 104.38 3.80988C92.7249 3.53988 84.0649 8.21988 79.1299 17.6899L80.8799 18.7499Z" fill="#0D6AAE"/>
<path d="M129.225 73.6345L128.405 79.0895L111.225 74.9995L122.95 72.2695" fill="#CDE5F6"/>
<path d="M115.5 76.3803L142.945 83.0003C131.21 74.6653 122.095 74.1753 115.5 76.3803Z" fill="#94D2F3"/>
<path d="M42.9351 78.3899C42.9351 78.4999 42.9801 78.6199 43.0001 78.7299L63.9451 77.1099C54.8201 73.7399 47.8451 75.4649 42.9351 78.3899Z" fill="#94D2F3"/>
<path d="M61.745 76.375L43.46 78.09C43.28 78.19 43.105 78.285 42.96 78.39C43.04 78.835 43.13 79.295 43.21 79.745L65.39 77.67C64.1995 77.1721 62.9827 76.7398 61.745 76.375V76.375Z" fill="#0B446B"/>
<path d="M127.325 79.24L142.945 83C137.66 79.24 132.91 77.085 128.675 76.04L127.325 79.24Z" fill="#3B9FD9"/>
<path d="M144.68 84.3103L113.325 77.2304L113.66 75.7354L143.04 82.3004L144.68 84.3103Z" fill="#0B446B"/>
<path d="M79.0801 191.525L78.6651 191.09L80.3301 189.48L80.7651 189.925L79.0801 191.525ZM62.0801 176.935L61.2001 179.08L61.7501 179.31L62.6601 177.175L62.0801 176.935ZM63.7851 177.67L62.8351 179.785L63.3751 180.035L64.3751 177.935L63.7851 177.67ZM76.0951 188.61L76.5351 189.015L78.1151 187.315L77.6551 186.895L76.0951 188.61ZM73.3851 186.295L73.8551 186.675L75.3201 184.875L74.8201 184.485L73.3851 186.295ZM72.0001 185.21C72.1601 185.33 72.3201 185.445 72.4751 185.57L73.8851 183.725L73.3851 183.345L72.0001 185.21ZM74.7801 187.43L75.2351 187.825L76.7351 186.075L76.2601 185.665L74.7801 187.43ZM49.5551 173.585L49.2401 175.88L49.8351 175.965L50.1751 173.675L49.5551 173.585ZM70.5551 184.17L71.0551 184.515L72.4001 182.625L71.9001 182.26L70.5551 184.17ZM51.3951 173.87L50.9951 176.155L51.5901 176.26L52.0001 174L51.3951 173.87ZM53.2151 174.215L52.7451 176.49L53.3301 176.615L53.8301 174.35L53.2151 174.215ZM48.0751 173.4L47.8301 175.71L48.0701 175.735L48.3401 173.43L48.0751 173.4ZM55.0301 174.63L54.4751 176.88L55.0551 177.03L55.6401 174.785L55.0301 174.63ZM58.6051 175.63L57.8851 177.835L58.4551 178.025L59.2001 175.83L58.6051 175.63ZM60.3601 176.24L59.5651 178.42L60.1201 178.625L60.9501 176.5L60.3601 176.24ZM56.8301 175.09L56.1901 177.32L56.7651 177.485L57.4251 175.265L56.8301 175.09ZM77.4051 189.81L77.8351 190.23L79.4701 188.585L79.0201 188.145L77.4051 189.81ZM113.495 185.31L115.64 186.2L115.87 185.635L113.73 184.745L113.495 185.31ZM112.1 188.67L114.245 189.56L114.5 189L112.355 188.115L112.1 188.67ZM69.1001 183.17L69.6001 183.495L70.8801 181.565C70.7051 181.445 70.5301 181.33 70.3501 181.22L69.1001 183.17ZM114.215 183.67L116.36 184.56L116.595 183.995L114.45 183.105L114.215 183.67ZM111.43 190.39L113.57 191.28L113.805 190.715L111.665 189.825L111.43 190.39ZM114.93 181.99L117.07 182.88L117.305 182.315L115.165 181.425L114.93 181.99ZM118.43 173.595L120.5 174.5L120.735 173.935L118.61 173L118.43 173.595ZM110.73 192H112.165L110.945 191.5L110.73 192ZM112.8 187L114.94 187.89L115.175 187.325L113.035 186.435L112.8 187ZM82.0001 191.285L81.5851 190.83L80.3151 192H81.2251L82.0001 191.285ZM64.4251 180.545L64.9601 180.82L66.0201 178.755L65.4651 178.47L64.4251 180.545ZM115.565 180.305L117.71 181.19L117.945 180.625L115.8 179.74L115.565 180.305ZM67.5651 182.245L68.0651 182.555L69.2751 180.555L68.7401 180.235L67.5651 182.245ZM66.0001 181.365L66.5251 181.66L67.6601 179.635L67.1151 179.335L66.0001 181.365ZM116.26 178.625L118.405 179.51L118.64 178.945L116.5 178.06L116.26 178.625ZM116.96 176.945L119.1 177.835L119.335 177.27L117.195 176.38L116.96 176.945ZM120.035 175.59L117.89 174.7L117.655 175.265L119.8 176.155L120.035 175.59Z" fill="white"/>
</g>
</g>
<defs>
<clipPath id="clip0_204_3136">
<rect width="192" height="192" fill="white"/>
</clipPath>
</defs>
</svg>
