<svg width="192" height="192" viewBox="0 0 192 192" fill="none" xmlns="http://www.w3.org/2000/svg">
<g clip-path="url(#clip0_204_3132)">
<mask id="mask0_204_3132" style="mask-type:alpha" maskUnits="userSpaceOnUse" x="0" y="0" width="192" height="192">
<circle cx="96" cy="96" r="96" fill="black"/>
</mask>
<g mask="url(#mask0_204_3132)">
<path d="M0 192L192 192L192 0.149994L0 0.149994L0 192Z" fill="#08426A"/>
<path d="M192 192V0.15L62.1396 0L87.2696 64.34L83.0396 192H192Z" fill="#1368AB"/>
<path d="M76.5299 170.709L76.2449 170.864L81.8849 181.864L41.3799 191.999H141.03L136.19 151.77L71.3649 161.324L73.2599 165.029L76.5299 170.709Z" fill="white"/>
<path d="M118.41 162.06L124.305 164.7L132.45 157.15L115.835 157.38L118.41 162.06Z" fill="#1368AB"/>
<path d="M117.31 143.94L124.535 164.525L88.225 191.985L78.165 139.38L117.31 143.94Z" fill="#3393CE"/>
<path d="M123.67 162.06L117.31 143.94L117.005 143.915L100.77 158.49L118.765 168.89L124.305 164.7L123.67 162.06Z" fill="#08426A"/>
<path d="M96.1796 0.275391L139.255 20.0854L136.535 79.1004L62.7246 13.6004L96.1796 0.275391Z" fill="#08426A"/>
<path d="M149.161 93.6578C152.978 85.1709 151.955 76.4386 146.876 74.1537C141.796 71.8687 134.584 76.8963 130.766 85.3832C126.948 93.87 127.971 102.602 133.051 104.887C138.13 107.172 145.343 102.145 149.161 93.6578Z" fill="#08426A"/>
<path d="M51.0289 120.871C56.2726 116.71 55.3571 106.826 48.9841 98.7941C42.6112 90.762 33.1941 87.6236 27.9505 91.7841C22.7069 95.9446 23.6223 105.829 29.9953 113.861C36.3682 121.893 45.7853 125.031 51.0289 120.871Z" fill="white"/>
<path d="M33.2949 39.7755L63.2649 140.675L101.69 158.95L120.135 153.42L136.73 132.84L135.255 47.2655L70.2099 4.48047L33.2949 39.7755Z" fill="#CDE7F8"/>
<path d="M84.1748 150.615L85.0948 151.055V117.455L84.1748 117.655V150.615Z" fill="#94D2F4"/>
<path d="M80.5654 148.9L81.4854 149.34V118.23L80.5654 118.425V148.9Z" fill="#94D2F4"/>
<path d="M87.7803 152.335L88.7053 152.77V116.685L87.7803 116.88V152.335Z" fill="#94D2F4"/>
<path d="M91.3896 154.05L92.3147 154.49V115.91L91.3896 116.105V154.05Z" fill="#94D2F4"/>
<path d="M95 155.765L95.92 156.205V115.135L95 115.335V155.765Z" fill="#94D2F4"/>
<path d="M98.6104 157.48L99.5303 157.92V114.36L98.6104 114.56V157.48Z" fill="#94D2F4"/>
<path d="M102.215 158.79L103.14 158.515V113.59L102.215 113.785V158.79Z" fill="#94D2F4"/>
<path d="M41.7402 32.5004L62.5002 37.9154C62.5002 37.9154 63.9052 16.8704 81.6853 10.0904L62.3652 0.110352L41.7402 32.5004Z" fill="#1368AB"/>
<path d="M33.6953 41.1102L63.2653 140.675L92.3203 154.49L41.7403 32.4902L34.8603 38.4252L33.6953 41.1102Z" fill="#94D2F4"/>
<path d="M33.6953 41.1102L63.2653 140.675L92.3203 154.49L41.7403 32.4902L34.8603 38.4252L33.6953 41.1102Z" fill="#94D2F4"/>
<path d="M33.6953 41.1102L63.2653 140.675L92.3203 154.49L41.7403 32.4902L34.8603 38.4252L33.6953 41.1102Z" fill="#94D2F4"/>
<path d="M84.1748 150.615L85.0948 151.055V137.07L84.1748 134.845V150.615Z" fill="#5DC3F0"/>
<path d="M80.5654 148.9L81.4854 149.34V128.365L80.5654 126.14V148.9Z" fill="#5DC3F0"/>
<path d="M76.9551 147.185L77.8801 147.625V119.66L77.6301 119.055L76.9551 119.2V147.185Z" fill="#5DC3F0"/>
<path d="M73.3447 145.47L74.2697 145.905V119.775L73.3447 119.975V145.47Z" fill="#5DC3F0"/>
<path d="M87.7803 152.335L88.7053 152.77V145.775L87.7803 143.55V152.335Z" fill="#5DC3F0"/>
<path d="M91.3896 154.05L92.3147 154.49V154.48L91.3896 152.255V154.05Z" fill="#5DC3F0"/>
<path d="M58.915 126.015L59.835 129.115V122.87L58.915 123.07V126.015Z" fill="#5DC3F0"/>
<path d="M69.7402 143.75L70.6602 144.19V120.55L69.7402 120.75V143.75Z" fill="#5DC3F0"/>
<path d="M66.1299 142.035L67.0499 142.475V121.325L66.1299 121.52V142.035Z" fill="#5DC3F0"/>
<path d="M62.5205 138.16L63.2655 140.675L63.4455 140.755V122.1L62.5205 122.295V138.16Z" fill="#5DC3F0"/>
<path d="M101.075 105.66L107.375 103.355L136.135 77.1602L135.025 46.7951L79.5703 11.4951L101.075 105.66Z" fill="white"/>
<path d="M120.135 153.42L136.73 132.84L136.055 69.7098C133.38 67.7998 115.675 57.5898 115.675 57.5898C115.675 57.5898 99.8452 80.4998 97.6152 78.2848C98.3702 82.2849 108.115 146.685 109.615 156.57L120.135 153.42Z" fill="#5DC3F0"/>
<path d="M109.436 112.5V155.3C109.511 155.8 109.576 156.215 109.626 156.57L110.356 156.35V112.305L109.436 112.5Z" fill="#3393CE"/>
<path d="M113.045 111.735V155.545L113.965 155.27V111.535L113.045 111.735Z" fill="#3393CE"/>
<path d="M116.65 110.965V154.465L117.575 154.185V110.77L116.65 110.965Z" fill="#3393CE"/>
<path d="M105.825 113.265V131.53C106.145 133.62 106.45 135.65 106.745 137.595V113.07L105.825 113.265Z" fill="#3393CE"/>
<path d="M134.695 107.134V135.369L135.615 134.224V106.939L134.695 107.134Z" fill="#3393CE"/>
<path d="M131.085 107.9V139.84L132.01 138.7V107.705L131.085 107.9Z" fill="#3393CE"/>
<path d="M123.87 109.435V148.79L124.79 147.645V109.24L123.87 109.435Z" fill="#3393CE"/>
<path d="M127.48 108.67V144.315L128.4 143.17V108.47L127.48 108.67Z" fill="#3393CE"/>
<path d="M120.26 110.2V153.265L121.18 152.12V110.005L120.26 110.2Z" fill="#3393CE"/>
<path d="M105.686 67.575L108.301 53.29L128.896 57.59L127.971 65.885L120.286 64.04L105.686 67.575Z" fill="#08426A"/>
<path d="M114.58 65.4197L115.925 54.8847L114.545 54.5947L113.12 65.7747L114.58 65.4197Z" fill="#1368AB"/>
<path d="M124.005 64.93L125.045 56.785L123.665 56.5L122.63 64.6L124.005 64.93Z" fill="#1368AB"/>
<path d="M120.485 55.8349L119.105 55.5449L117.95 64.6049L119.41 64.2499L120.485 55.8349Z" fill="#1368AB"/>
<path d="M120.4 101.27C130.672 101.27 139 93.1057 139 83.0348C139 72.9639 130.672 64.7998 120.4 64.7998C110.127 64.7998 101.8 72.9639 101.8 83.0348C101.8 93.1057 110.127 101.27 120.4 101.27Z" fill="#5DC3F0"/>
<path d="M109.87 144.29C108.181 144.285 106.519 144.711 105.042 145.528C103.564 146.345 102.32 147.526 101.426 148.959C100.533 150.392 100.02 152.029 99.9369 153.715C99.8535 155.401 100.202 157.081 100.95 158.595L101.69 158.95L119.78 153.525C119.603 151.018 118.482 148.671 116.643 146.957C114.804 145.243 112.383 144.29 109.87 144.29V144.29Z" fill="white"/>
<path d="M119.78 153.525C119.603 151.018 118.482 148.67 116.643 146.957C114.804 145.243 112.384 144.29 109.87 144.29C109.172 144.289 108.477 144.363 107.795 144.51C108.655 150.175 109.295 154.51 109.625 156.57L113.98 155.265L119.78 153.525Z" fill="#CDE7F8"/>
<path d="M90.5647 60.1253L105.305 51.9403L135.5 53.5003C135.408 46.6907 133.77 39.9909 130.71 33.9069C127.65 27.8228 123.248 22.5135 117.836 18.3799C112.423 14.2462 106.143 11.3962 99.4679 10.045C92.793 8.69388 85.8984 8.87689 79.3047 10.5803L90.5647 60.1253Z" fill="white"/>
<path d="M99.6554 118.865C103.985 118.865 107.495 115.36 107.495 111.035C107.495 106.711 103.985 103.205 99.6554 103.205C95.3255 103.205 91.8154 106.711 91.8154 111.035C91.8154 115.36 95.3255 118.865 99.6554 118.865Z" fill="#94D2F4"/>
<path d="M121.245 11.7998L138.88 28.2798L138.98 26.1398L125.95 13.9648L121.245 11.7998Z" fill="#1368AB"/>
<path d="M138.575 34.9047L106.91 5.20469L102.225 3.05469L138.475 37.0547L138.575 34.9047Z" fill="#1368AB"/>
<path d="M96.0501 73.3701L114.76 111.19L103.69 119.02L94.6201 76.9251L96.0501 73.3701Z" fill="white"/>
<path d="M75.9496 90.355C79.4096 90.355 82.2146 87.5523 82.2146 84.095C82.2146 80.6377 79.4096 77.835 75.9496 77.835C72.4895 77.835 69.6846 80.6377 69.6846 84.095C69.6846 87.5523 72.4895 90.355 75.9496 90.355Z" fill="#5DC3F0"/>
<path d="M110.31 83.27C113.77 83.27 116.575 80.4673 116.575 77.01C116.575 73.5527 113.77 70.75 110.31 70.75C106.85 70.75 104.045 73.5527 104.045 77.01C104.045 80.4673 106.85 83.27 110.31 83.27Z" fill="#3393CE"/>
<path d="M133.95 85.6253C136.281 85.6253 138.17 83.7382 138.17 81.4103C138.17 79.0824 136.281 77.1953 133.95 77.1953C131.62 77.1953 129.73 79.0824 129.73 81.4103C129.73 83.7382 131.62 85.6253 133.95 85.6253Z" fill="white"/>
<path d="M88.3596 95.2796C90.6903 95.2796 92.5797 93.3925 92.5797 91.0646C92.5797 88.7367 90.6903 86.8496 88.3596 86.8496C86.029 86.8496 84.1396 88.7367 84.1396 91.0646C84.1396 93.3925 86.029 95.2796 88.3596 95.2796Z" fill="white"/>
<path d="M75.825 86.4195C77.1781 86.4195 78.275 85.3226 78.275 83.9695C78.275 82.6164 77.1781 81.5195 75.825 81.5195C74.4719 81.5195 73.375 82.6164 73.375 83.9695C73.375 85.3226 74.4719 86.4195 75.825 86.4195Z" fill="#08426A"/>
<path d="M110.17 79.065C111.523 79.065 112.62 77.9681 112.62 76.615C112.62 75.2619 111.523 74.165 110.17 74.165C108.817 74.165 107.72 75.2619 107.72 76.615C107.72 77.9681 108.817 79.065 110.17 79.065Z" fill="#08426A"/>
<path d="M61.8046 1.45508L21.3096 49.0301L53.6146 108.725L35.4596 40.0551L68.9396 4.15508L61.8046 1.45508Z" fill="#1368AB"/>
<path d="M53.9102 92.2004C53.3202 81.4304 61.7052 71.9604 73.0002 70.6454C82.9302 69.4854 92.4752 75.1454 95.7002 84.0654L93.1302 85.0004C90.3302 77.2454 82.0002 72.3554 73.3202 73.3654C63.4552 74.5154 56.1302 82.7254 56.6402 92.0554L53.9102 92.2004Z" fill="#09426B"/>
<path d="M75.0755 110.9C70.4533 110.918 65.9497 109.438 62.2405 106.68C60.0977 105.112 58.3006 103.12 56.9613 100.827C55.6219 98.5349 54.769 95.9912 54.4555 93.3547C54.4105 92.9647 54.3755 92.5697 54.3555 92.1747L56.1955 92.0747C56.1955 92.4297 56.2455 92.7897 56.2855 93.1397C56.5707 95.5271 57.3447 97.8301 58.5594 99.905C59.7741 101.98 61.4033 103.782 63.3455 105.2C67.4173 108.166 72.4576 109.49 77.4616 108.906C82.4656 108.322 87.0659 105.874 90.3455 102.05C91.9073 100.223 93.0761 98.0936 93.779 95.795C94.4818 93.4965 94.7035 91.0778 94.4304 88.6897C94.2785 87.3774 93.9748 86.0871 93.5254 84.8447L95.2604 84.2197C95.7561 85.595 96.0916 87.0227 96.2604 88.4747C96.5644 91.1113 96.3216 93.7823 95.5474 96.321C94.7732 98.8596 93.484 101.211 91.7605 103.23C88.199 107.446 83.1523 110.132 77.6655 110.73C76.806 110.835 75.9413 110.892 75.0755 110.9Z" fill="white"/>
<path d="M119.335 103.22C114.712 103.239 110.209 101.758 106.5 98.9997C104.356 97.4323 102.559 95.4403 101.22 93.1478C99.8803 90.8552 99.0276 88.3113 98.7147 85.6747C98.5296 84.1178 98.5397 82.544 98.7447 80.9896L100.575 81.2297C100.39 82.6347 100.38 84.0572 100.545 85.4646C100.829 87.8516 101.603 90.1544 102.816 92.2293C104.03 94.3042 105.658 96.1068 107.6 97.5247C111.66 100.527 116.718 101.856 121.73 101.235C132.23 100.01 139.87 90.9347 138.73 81.0097C138.385 78.107 137.314 75.3381 135.615 72.9596L137.115 71.8896C138.996 74.5195 140.182 77.5831 140.56 80.7946C141.84 91.7297 133.495 101.72 121.965 103.065C121.092 103.169 120.214 103.221 119.335 103.22V103.22Z" fill="white"/>
<path d="M101 81.2849L98.29 80.9299C99.525 71.5099 107.32 64.1249 117.245 62.9649C125.215 62.0349 132.955 65.3549 137.44 71.6299L135.215 73.2199C131.31 67.7549 124.54 64.8649 117.56 65.6799C108.9 66.6899 102.09 73.1099 101 81.2849Z" fill="#09426B"/>
<path d="M59.23 78.3252C58 78.6302 50 81.7002 50 81.7002L54.19 91.7002L59.23 78.3252Z" fill="#08426A"/>
<path d="M129.01 64.5004L130.555 64.2704L137.31 63.2754L136.27 71.2604L129.01 64.5004Z" fill="#08426A"/>
<path d="M100.78 78.2178L92.4814 79.7559L92.9799 82.4451L101.279 80.907L100.78 78.2178Z" fill="#09426B"/>
<path d="M57.6097 80.3888L37.0186 86.5391L37.8013 89.1597L58.3924 83.0094L57.6097 80.3888Z" fill="#09426B"/>
<path d="M100.265 114.87C101.71 114.87 102.88 113.702 102.88 112.26C102.88 110.819 101.71 109.65 100.265 109.65C98.8212 109.65 97.6504 110.819 97.6504 112.26C97.6504 113.702 98.8212 114.87 100.265 114.87Z" fill="#08426A"/>
<path d="M60.1949 76.7851L56.0449 68.8001L74.9499 57.7451L79.5599 71.5651L70.0299 71.7201L60.1949 76.7851Z" fill="#08426A"/>
<path d="M70.6304 60.2704L59.9404 76.2954L60.1954 76.7854L61.8754 75.9204L73.4004 58.6504L70.6304 60.2704Z" fill="#1368AB"/>
<path d="M58.695 73.9052L65.98 62.9902L63.215 64.6102L57.96 72.4852L58.695 73.9052Z" fill="#1368AB"/>
<path d="M76.2197 61.5551L75.6547 59.8701L66.5547 73.5101L69.1247 72.1851L76.2197 61.5551Z" fill="#1368AB"/>
<path d="M74.9297 57.7551L74.9547 57.7601L74.9497 57.7451L74.9297 57.7551Z" fill="#1368AB"/>
<path d="M53.6599 117.225C48.5249 113.82 32.1599 102.965 24.6599 98.0801C24.0549 102.76 25.8849 108.69 29.9799 113.855C36.3499 121.89 45.7649 125.04 50.9999 120.885C52.2021 119.929 53.1216 118.664 53.6599 117.225V117.225Z" fill="#5DC3F0"/>
<path d="M120.45 77.6995C114.035 68.0895 105.45 73.5145 105.11 73.7545L104.11 72.2145C104.21 72.1445 114.555 65.5245 121.995 76.6795L120.45 77.6995Z" fill="#09426B"/>
<path d="M67.3848 89.9053L65.5498 89.7253C67.0498 75.0003 82.7348 75.5603 82.8898 75.5703L82.7998 77.4103L82.8448 76.4903L82.8048 77.4103C80.305 77.3891 77.8245 77.8509 75.4998 78.7703C70.6498 80.7303 67.9298 84.5003 67.3848 89.9053Z" fill="#09426B"/>
<path d="M32.9002 70.705L40.4502 59.385L39.9902 57.585L32.1602 69.325L32.9002 70.705Z" fill="#08426A"/>
<path d="M43.0855 69.5852L42.6205 67.7852L36.3555 77.1752L37.0955 78.5602L43.0855 69.5852Z" fill="#08426A"/>
<path d="M41.7351 64.3546L41.2701 62.5596L34.2051 73.1496L34.9451 74.5346L41.7351 64.3546Z" fill="#08426A"/>
<path d="M56.7902 36.425C57.6352 32.27 62.0352 14.715 77.0502 7.92496L76.7152 7.18996L76.1152 6.83496C60.9202 13.965 56.3752 31.62 55.4502 36.085L56.7902 36.425Z" fill="#08426A"/>
<path d="M51.4704 34.7646L50.1104 34.4996C50.1554 34.2596 54.6104 10.6596 72.9854 2.88965L73.5004 4.17965C55.8204 11.6646 51.5004 34.5296 51.4704 34.7646Z" fill="#09426B"/>
<path d="M47.4998 34.0604L46.1348 33.8204C46.1798 33.5604 50.8848 8.08535 70.6997 1.48535L71.1347 2.80035C52.0898 9.14035 47.5398 33.8104 47.4998 34.0604Z" fill="#09426B"/>
<path d="M73.26 165.03L76.53 170.71L76.245 170.865L81.885 181.865L41.375 192H88.225L81.84 158.725L71.34 161.32L73.26 165.03Z" fill="#94D2F4"/>
<path d="M116.65 146.965V154.465L117.575 154.185V147.97C117.291 147.614 116.982 147.278 116.65 146.965V146.965Z" fill="#94D2F4"/>
<path d="M113.045 155.545L113.965 155.27V145.18C113.665 145.045 113.357 144.925 113.045 144.82V155.545Z" fill="#94D2F4"/>
<path d="M109.436 144.3V155.3C109.511 155.8 109.576 156.215 109.626 156.57L110.356 156.35V144.315C110.196 144.315 110.036 144.29 109.856 144.29L109.436 144.3Z" fill="#94D2F4"/>
<path d="M102.215 147.88V158.79L103.14 158.515V146.915C102.81 147.216 102.501 147.538 102.215 147.88V147.88Z" fill="#CDE7F8"/>
<path d="M105.825 145.15V157.71L106.745 157.43V144.79C106.435 144.895 106.125 145 105.825 145.15Z" fill="#CDE7F8"/>
<path d="M80.5654 126.11V126.14V148.9L81.4854 149.34V128.365V128.315L80.5654 126.11Z" fill="#5DC3F0"/>
<path d="M84.1748 134.745V134.845V150.615L85.0948 151.055V137.07V136.955L84.1748 134.745Z" fill="#5DC3F0"/>
<path d="M87.7803 143.385V143.55V152.335L88.7053 152.77V145.775V145.595L87.7803 143.385Z" fill="#5DC3F0"/>
<path d="M91.3896 152.025V152.255V154.05L91.8496 154.27L92.3147 154.49V154.48V154.23L91.3896 152.025Z" fill="#5DC3F0"/>
<path d="M97.7802 130.09C93.4529 130.116 89.1404 129.581 84.9502 128.5L85.4252 126.91C85.6452 126.975 107.84 133.38 122.285 119.625L123.43 120.825C115.585 128.28 105.61 130.09 97.7802 130.09Z" fill="#1368AB"/>
<path d="M126.36 129.185L124.965 129.005C126.295 118.835 119.77 115.005 119.7 114.975L120.395 113.755C120.695 113.925 127.81 118.09 126.36 129.185Z" fill="#D8ECFA"/>
<path d="M141.805 192L139.235 175.15L122.625 192H141.805Z" fill="#CDE7F8"/>
<path d="M115.84 192L105.31 178.89L87.8154 192H115.84Z" fill="#CDE7F8"/>
</g>
</g>
<defs>
<clipPath id="clip0_204_3132">
<rect width="192" height="192" fill="white"/>
</clipPath>
</defs>
</svg>
