<svg width="64" height="64" viewBox="0 0 64 64" fill="none" xmlns="http://www.w3.org/2000/svg">
<path d="M18.5273 46.358C19.9828 50.5275 20.8089 53.163 21.7333 55.7394C22.5397 53.5563 23.8573 49.4655 24.9391 46.358H28.2237C25.9226 52.16 23.6412 57.9817 21.2023 64H18.0948L20.1401 59.142C18.6453 55.1691 16.8163 50.4882 15.1839 46.358H18.5273Z" fill="white"/>
<path fill-rule="evenodd" clip-rule="evenodd" d="M57.1359 45.9057C61.2662 45.9057 64 48.7968 64 52.927C64 56.9785 61.3251 59.8894 57.0768 59.8894C52.8285 59.8894 50.2716 56.9589 50.2716 52.927C50.2716 48.7967 53.0056 45.9057 57.1359 45.9057ZM57.0768 48.4624C54.7757 48.4624 53.3792 50.3113 53.3792 52.9074C53.3792 55.5822 54.7562 57.3326 57.0573 57.3326C59.3584 57.3326 60.7744 55.5822 60.7745 52.9074C60.7745 50.3113 59.378 48.4624 57.0768 48.4624Z" fill="white"/>
<path fill-rule="evenodd" clip-rule="evenodd" d="M41.3425 59.4568L38.451 59.4961V57.6277C37.7036 58.788 36.1695 59.7714 33.9273 59.7714C30.3479 59.7713 27.8698 56.9786 27.8698 52.8681C27.8698 48.8952 30.2496 45.9057 34.0063 45.9057C36.091 45.9057 37.5858 46.9284 38.3135 48.0101C38.2939 47.0857 38.2938 46.3185 38.2938 45.4138V41.5787H41.3425V59.4568ZM34.6354 48.4426C32.354 48.4624 30.9969 50.4292 30.9969 52.927C30.9969 55.4248 32.3541 57.3128 34.6159 57.3128C36.9957 57.3128 38.4117 55.4052 38.4117 52.8288C38.4117 50.2916 36.8382 48.4426 34.6354 48.4426Z" fill="white"/>
<path d="M3.16667 48.895H10.8174V41.618H13.9841V59.4961H10.8174V51.6879H3.16667V59.4961H0V41.618H3.16667V48.895Z" fill="white"/>
<path d="M49.3276 46.0237C49.5636 46.0237 49.8192 46.0432 50.0552 46.0825V48.9739C49.7602 48.8952 49.4652 48.8754 49.1898 48.8754C46.8101 48.8755 46.3971 50.5867 46.3971 53.2811V59.4764H43.3484V48.6984C43.3484 47.8724 43.3486 47.125 43.3289 46.3187H46.1609V47.2429C46.1609 47.5379 46.1611 47.8526 46.1414 48.1083C46.5938 46.7906 47.8132 46.0237 49.3276 46.0237Z" fill="white"/>
<path fill-rule="evenodd" clip-rule="evenodd" d="M16.0688 0.000777535H32C41.2637 0.000784041 48.7768 7.51396 48.7768 16.7972C48.7768 26.0804 41.2637 33.5936 32 33.5936H15.9901C15.4984 33.5739 15.1444 33.1607 15.1641 32.6887C15.1838 32.197 15.5968 31.843 16.0688 31.8626C24.3883 31.8626 31.1346 25.1167 31.1346 16.7972C31.1346 8.47768 24.3884 1.73149 16.0688 1.73149H15.9901C15.4984 1.71179 15.1444 1.29882 15.1641 0.826809C15.1837 0.335148 15.5968 -0.0188485 16.0688 0.000777535ZM23.8771 1.9281C29.3841 4.81926 32.8458 10.5427 32.8458 16.7774C32.8458 23.0121 29.3842 28.7356 23.8771 31.6465C30.2102 30.5844 35.1861 25.6083 36.2482 19.2753C37.6249 11.0738 32.0787 3.30485 23.8771 1.9281ZM29.1677 1.9281C32.1966 3.52119 34.6551 5.97989 36.2482 9.00874C40.5358 17.2102 37.3693 27.3589 29.1677 31.6465C35.5205 30.5844 40.477 25.6083 41.5391 19.2753C42.9158 11.0738 37.3693 3.30485 29.1677 1.9281ZM34.4781 1.9281C37.507 3.52119 39.9655 5.97989 41.5586 9.00874C45.8462 17.2102 42.6797 27.3589 34.4781 31.6465C40.8113 30.5844 45.7874 25.6083 46.8495 19.2753C48.2262 11.0738 42.6797 3.30485 34.4781 1.9281Z" fill="white"/>
</svg>
