<svg width="384" height="384" viewBox="0 0 384 384" fill="none" xmlns="http://www.w3.org/2000/svg">
<path opacity="0.2" d="M34 292L58 304L160 253L136 241L34 292Z" fill="#1D1D1B"/>
<path d="M58 266L82 278L108 265L84 253L58 266Z" fill="#146EB4" stroke="#64C8FF" stroke-width="2" stroke-linecap="round" stroke-linejoin="round"/>
<path d="M58 270L34 258V284L58 296V270Z" fill="#105890" stroke="#64C8FF" stroke-width="2" stroke-linecap="round" stroke-linejoin="round"/>
<path d="M58 283L50 282L41.95 277.98L34 271V263L58 275V283Z" fill="#1368AB" stroke="#64C8FF" stroke-width="2" stroke-linecap="round" stroke-linejoin="round"/>
<path d="M108 271L160 245V239L108 265V271Z" fill="#1368AB" stroke="#64C8FF" stroke-width="2" stroke-linecap="round" stroke-linejoin="round"/>
<path d="M160 203L136 191L64 227L88 239L160 203Z" fill="#146EB4" stroke="#64C8FF" stroke-width="2" stroke-linecap="round" stroke-linejoin="round"/>
<path d="M88 239L64 227V263L88 275V239Z" fill="#105890" stroke="#64C8FF" stroke-width="2" stroke-linecap="round" stroke-linejoin="round"/>
<path d="M88 239L160 203V239L88 275V239Z" fill="#1368AB" stroke="#64C8FF" stroke-width="2" stroke-linecap="round" stroke-linejoin="round"/>
<path d="M70 260L46 248L58 242L82 254L70 260Z" fill="#146EB4" stroke="#64C8FF" stroke-width="2" stroke-linecap="round" stroke-linejoin="round"/>
<path d="M108 271L58 296V270L70 260L82 254V278L108 265V271Z" fill="#1368AB" stroke="#64C8FF" stroke-width="2" stroke-linecap="round" stroke-linejoin="round"/>
<path d="M101.8 270.32C107.14 267.54 107.14 278.66 101.8 281.44C96.4601 284.22 96.4701 273.1 101.8 270.32Z" fill="#1368AB" stroke="#64C8FF" stroke-width="2" stroke-linecap="round" stroke-linejoin="round"/>
<path d="M89.8001 276.32C95.1401 273.54 95.1401 284.66 89.8001 287.44C84.4601 290.22 84.4701 279.1 89.8001 276.32Z" fill="#1368AB" stroke="#64C8FF" stroke-width="2" stroke-linecap="round" stroke-linejoin="round"/>
<path d="M153.8 244.32C159.14 241.54 159.14 252.66 153.8 255.44C148.46 258.22 148.47 247.1 153.8 244.32Z" fill="#1368AB" stroke="#64C8FF" stroke-width="2" stroke-linecap="round" stroke-linejoin="round"/>
<path d="M141.8 250.32C147.14 247.54 147.14 258.66 141.8 261.44C136.46 264.22 136.47 253.1 141.8 250.32Z" fill="#1368AB" stroke="#64C8FF" stroke-width="2" stroke-linecap="round" stroke-linejoin="round"/>
<path d="M65.8001 299.44C71.1401 296.66 71.1401 285.54 65.8001 288.32C60.4601 291.1 60.4701 302.22 65.8001 299.44Z" fill="#1368AB" stroke="#64C8FF" stroke-width="2" stroke-linecap="round" stroke-linejoin="round"/>
<path d="M66 279L58 282.88V275L66 271V279Z" fill="#1368AB" stroke="#64C8FF" stroke-width="2" stroke-linecap="round" stroke-linejoin="round"/>
<path d="M58 270L34 258L46 248L70 260L58 270Z" fill="#146EB4" stroke="#64C8FF" stroke-width="2" stroke-linecap="round" stroke-linejoin="round"/>
<path opacity="0.25" d="M96 156L288 60V216L96 312V156Z" fill="#0A3759" stroke="#64C8FF" stroke-width="2" stroke-linecap="round" stroke-linejoin="round"/>
<path opacity="0.5" d="M108 162L300 66V222L108 318V162Z" fill="#0A3759" stroke="#64C8FF" stroke-width="2" stroke-linecap="round" stroke-linejoin="round"/>
<path d="M120 168L312 72V228L120 324V168Z" fill="#0A3759" stroke="#64C8FF" stroke-width="2" stroke-linecap="round" stroke-linejoin="round"/>
<path opacity="0.05" d="M126 172V315L306 225V82L126 172Z" fill="#5B9ACB"/>
<path d="M299 136L279 146V138L299 128V136Z" fill="#FF9A7A"/>
<path d="M299 152L279 162V154L299 144V152Z" fill="#FFDA6A"/>
<path d="M299 168L279 178V170L299 160V168Z" fill="#A3D6A6"/>
<path d="M299 184L279 194V186L299 176V184Z" fill="#FF9A7A"/>
<path d="M299 200L279 210V202L299 192V200Z" fill="#A3D6A6"/>
<path d="M299 216L279 226V218L299 208V216Z" fill="#A3D6A6"/>
<path d="M138.48 209.14V213.85C138.484 214.236 138.43 214.62 138.32 214.99C138.212 215.346 138.05 215.683 137.84 215.99C137.632 216.313 137.379 216.606 137.09 216.86C136.786 217.124 136.45 217.349 136.09 217.53C135.779 217.697 135.44 217.805 135.09 217.85C134.838 217.894 134.578 217.856 134.35 217.74C134.132 217.617 133.963 217.423 133.87 217.19C133.744 216.872 133.686 216.531 133.7 216.19V211.47L135.07 210.79V215.49C135.049 215.652 135.06 215.817 135.103 215.975C135.146 216.133 135.22 216.281 135.32 216.41C135.48 216.56 135.72 216.56 136.04 216.41C136.367 216.248 136.636 215.99 136.81 215.67C136.995 215.308 137.088 214.906 137.08 214.5V209.78L138.48 209.14ZM142.15 209.85L143.41 206.67L145.02 205.87L143.02 210.39L145.02 212.95L143.42 213.75L142.12 211.82L140.82 215.05L139.2 215.87L141.25 211.25L139.25 208.73L140.85 207.93L142.15 209.85ZM151.86 206.05L152.27 202.24L156.21 200.24V201.39L153.38 202.8L153.21 204.45C153.345 204.311 153.489 204.181 153.64 204.06C153.836 203.895 154.051 203.754 154.28 203.64C154.565 203.486 154.878 203.387 155.2 203.35C155.433 203.314 155.671 203.362 155.872 203.484C156.073 203.607 156.225 203.797 156.3 204.02C156.408 204.318 156.459 204.633 156.45 204.95C156.45 205.289 156.4 205.626 156.3 205.95C156.205 206.302 156.06 206.639 155.87 206.95C155.664 207.275 155.415 207.571 155.13 207.83C154.835 208.119 154.498 208.362 154.13 208.55C153.851 208.69 153.555 208.794 153.25 208.86C153 208.916 152.74 208.916 152.49 208.86C152.275 208.792 152.086 208.659 151.95 208.48C151.796 208.253 151.715 207.984 151.72 207.71L153 207C152.996 207.115 153.026 207.229 153.086 207.327C153.147 207.425 153.235 207.502 153.34 207.55C153.462 207.586 153.591 207.594 153.717 207.575C153.843 207.556 153.964 207.51 154.07 207.44C154.242 207.358 154.398 207.247 154.53 207.11C154.657 206.979 154.765 206.831 154.85 206.67C154.928 206.504 154.985 206.329 155.02 206.15C155.06 205.963 155.08 205.771 155.08 205.58C155.08 205.417 155.056 205.256 155.01 205.1C154.975 204.975 154.896 204.868 154.787 204.798C154.678 204.728 154.548 204.7 154.42 204.72C154.241 204.743 154.067 204.8 153.91 204.89C153.787 204.944 153.669 205.011 153.56 205.09C153.469 205.158 153.382 205.232 153.3 205.31C153.228 205.382 153.161 205.459 153.1 205.54C153.04 205.61 152.99 205.69 152.93 205.77L151.86 206.05ZM161.76 201.96L162.58 201.54V202.64L161.76 203.06V204.6L160.4 205.28V203.74L157.4 205.21L157.34 204.39L160.34 198.18L161.72 197.49L161.76 201.96ZM158.76 203.48L160.43 202.64V200L160.3 200.3L158.76 203.48ZM165.19 198.75L165.93 198.38C166.262 198.226 166.546 197.984 166.75 197.68C166.926 197.424 167.02 197.12 167.02 196.81C167.023 196.69 167.003 196.571 166.96 196.46C166.923 196.373 166.86 196.3 166.78 196.25C166.679 196.218 166.571 196.218 166.47 196.25C166.315 196.269 166.165 196.32 166.03 196.4C165.894 196.468 165.766 196.552 165.65 196.65C165.534 196.744 165.43 196.851 165.34 196.97C165.254 197.085 165.18 197.209 165.12 197.34C165.073 197.468 165.05 197.603 165.05 197.74L163.69 198.41C163.693 198.108 163.754 197.809 163.87 197.53C163.994 197.226 164.159 196.94 164.36 196.68C164.571 196.395 164.817 196.136 165.09 195.91C165.37 195.677 165.675 195.476 166 195.31C166.317 195.152 166.653 195.034 167 194.96C167.246 194.894 167.504 194.894 167.75 194.96C167.959 195.02 168.135 195.16 168.24 195.35C168.363 195.594 168.422 195.866 168.41 196.14C168.409 196.306 168.386 196.471 168.34 196.63C168.294 196.81 168.227 196.985 168.14 197.15C168.045 197.335 167.934 197.512 167.81 197.68C167.675 197.863 167.528 198.036 167.37 198.2C167.538 198.164 167.712 198.164 167.88 198.2C168.015 198.236 168.138 198.304 168.24 198.4C168.333 198.505 168.404 198.627 168.45 198.76C168.5 198.922 168.523 199.091 168.52 199.26C168.517 199.602 168.453 199.941 168.33 200.26C168.198 200.588 168.023 200.898 167.81 201.18C167.572 201.471 167.308 201.739 167.02 201.98C166.707 202.22 166.372 202.431 166.02 202.61C165.741 202.753 165.446 202.86 165.14 202.93C164.886 202.985 164.624 202.985 164.37 202.93C164.15 202.879 163.957 202.747 163.83 202.56C163.679 202.325 163.609 202.048 163.63 201.77L164.98 201.09C164.978 201.208 165.005 201.325 165.06 201.43C165.108 201.515 165.187 201.58 165.28 201.61C165.391 201.641 165.509 201.641 165.62 201.61C165.771 201.584 165.916 201.533 166.05 201.46C166.376 201.31 166.656 201.075 166.86 200.78C167.05 200.526 167.152 200.217 167.15 199.9C167.16 199.742 167.133 199.585 167.07 199.44C167.047 199.39 167.014 199.345 166.972 199.309C166.931 199.273 166.883 199.246 166.83 199.23C166.706 199.194 166.574 199.194 166.45 199.23C166.277 199.276 166.11 199.34 165.95 199.42L165.21 199.79L165.19 198.75ZM174.47 198.25L169.63 200.68V199.75L171.93 196.13C172.1 195.84 172.26 195.59 172.38 195.37C172.5 195.15 172.6 194.95 172.68 194.78C172.748 194.634 172.804 194.484 172.85 194.33C172.88 194.212 172.897 194.091 172.9 193.97C172.903 193.837 172.879 193.704 172.83 193.58C172.789 193.49 172.723 193.414 172.64 193.36C172.546 193.318 172.443 193.301 172.34 193.31C172.204 193.333 172.073 193.377 171.95 193.44C171.608 193.597 171.32 193.851 171.12 194.17C170.933 194.47 170.836 194.817 170.84 195.17L169.48 195.85C169.483 195.509 169.544 195.171 169.66 194.85C169.783 194.495 169.955 194.158 170.17 193.85C170.401 193.52 170.669 193.218 170.97 192.95C171.27 192.673 171.607 192.437 171.97 192.25C172.283 192.086 172.621 191.974 172.97 191.92C173.206 191.877 173.45 191.904 173.67 192C173.857 192.093 174.005 192.249 174.09 192.44C174.197 192.686 174.248 192.952 174.24 193.22C174.236 193.464 174.199 193.706 174.13 193.94C174.048 194.211 173.944 194.475 173.82 194.73C173.68 195.01 173.52 195.3 173.33 195.61L172.7 196.61L171.36 198.69L174.48 197.13L174.47 198.25ZM180.47 195.25L175.62 197.67V196.75L177.92 193.12C178.1 192.84 178.25 192.59 178.37 192.36C178.49 192.13 178.59 191.95 178.67 191.78C178.738 191.634 178.794 191.484 178.84 191.33C178.869 191.212 178.886 191.091 178.89 190.97C178.897 190.836 178.873 190.703 178.82 190.58C178.782 190.488 178.715 190.411 178.63 190.36C178.538 190.312 178.433 190.295 178.33 190.31C178.197 190.324 178.067 190.365 177.95 190.43C177.605 190.592 177.314 190.848 177.11 191.17C176.925 191.471 176.828 191.817 176.83 192.17L175.47 192.85C175.473 192.509 175.534 192.171 175.65 191.85C175.775 191.495 175.946 191.159 176.16 190.85C176.391 190.52 176.659 190.218 176.96 189.95C177.26 189.673 177.597 189.437 177.96 189.25C178.273 189.086 178.611 188.974 178.96 188.92C179.196 188.877 179.44 188.904 179.66 189C179.852 189.09 180.004 189.246 180.09 189.44C180.19 189.684 180.238 189.946 180.23 190.21C180.232 190.457 180.195 190.704 180.12 190.94C180.038 191.211 179.934 191.475 179.81 191.73C179.67 192 179.51 192.3 179.32 192.61C179.13 192.92 178.92 193.25 178.69 193.61L177.36 195.7L180.48 194.14L180.47 195.25ZM136.17 230.76L135.17 231.28V233.94L133.8 234.62V227.51L136.18 226.32C136.519 226.143 136.878 226.009 137.25 225.92C137.52 225.86 137.8 225.86 138.07 225.92C138.18 225.95 138.282 226.002 138.372 226.072C138.461 226.143 138.535 226.23 138.59 226.33C138.723 226.589 138.785 226.879 138.77 227.17C138.77 227.416 138.74 227.661 138.68 227.9C138.622 228.132 138.538 228.357 138.43 228.57C138.312 228.792 138.175 229.002 138.02 229.2C137.857 229.405 137.68 229.599 137.49 229.78L139 232L137.53 232.74L136.17 230.76ZM135.17 230.17L136.17 229.66C136.525 229.488 136.831 229.23 137.06 228.91C137.273 228.62 137.385 228.269 137.38 227.91C137.38 227.55 137.28 227.33 137.07 227.23C136.916 227.192 136.755 227.186 136.598 227.214C136.441 227.241 136.292 227.301 136.16 227.39L135.16 227.9L135.17 230.17ZM144.31 226.42L141.31 227.94V230.88L139.93 231.57V224.46L144.73 222.06V223.18L141.31 224.89V226.83L144.31 225.3V226.42ZM155.76 221L156.58 220.59V221.69L155.76 222.1V223.64L154.4 224.32V222.78L151.4 224.26L151.35 223.43L154.35 217.22L155.73 216.53L155.76 221ZM152.76 222.52L154.44 221.68V219L154.31 219.3L152.76 222.52ZM161.44 213.65V214.78H161.36C161.018 214.944 160.698 215.152 160.41 215.4C160.144 215.617 159.908 215.869 159.71 216.15C159.516 216.409 159.361 216.696 159.25 217C159.133 217.291 159.059 217.598 159.03 217.91L159.29 217.54C159.392 217.406 159.502 217.279 159.62 217.16C159.746 217.036 159.88 216.919 160.02 216.81C160.163 216.698 160.317 216.601 160.48 216.52C160.753 216.367 161.058 216.278 161.37 216.26C161.597 216.262 161.817 216.335 162 216.47C162.181 216.622 162.313 216.824 162.38 217.05C162.468 217.328 162.512 217.618 162.51 217.91C162.502 218.25 162.445 218.587 162.34 218.91C162.226 219.262 162.068 219.598 161.87 219.91C161.657 220.236 161.405 220.534 161.12 220.8C160.823 221.076 160.486 221.305 160.12 221.48C159.811 221.649 159.471 221.751 159.12 221.78C158.845 221.805 158.569 221.734 158.34 221.58C158.116 221.421 157.945 221.198 157.85 220.94C157.734 220.619 157.677 220.281 157.68 219.94V219.42C157.678 218.852 157.755 218.286 157.91 217.74C158.061 217.181 158.29 216.646 158.59 216.15C158.9 215.639 159.281 215.175 159.72 214.77C160.187 214.338 160.712 213.975 161.28 213.69L161.44 213.65ZM160.09 217.84C159.841 217.969 159.62 218.145 159.44 218.36C159.255 218.571 159.113 218.815 159.02 219.08V219.48C159.016 219.696 159.043 219.911 159.1 220.12C159.137 220.264 159.217 220.393 159.33 220.49C159.424 220.571 159.546 220.614 159.67 220.61C159.824 220.604 159.975 220.563 160.11 220.49C160.27 220.407 160.415 220.299 160.54 220.17C160.67 220.037 160.784 219.889 160.88 219.73C160.971 219.567 161.039 219.392 161.08 219.21C161.131 219.024 161.158 218.833 161.16 218.64C161.162 218.47 161.135 218.301 161.08 218.14C161.046 218.019 160.977 217.911 160.88 217.83C160.784 217.753 160.663 217.714 160.54 217.72C160.373 217.708 160.205 217.736 160.05 217.8L160.09 217.84ZM167.16 217.96L165.79 218.64V213.19L163.99 214.73V213.55L167.09 210.88H167.16V217.96ZM174.48 214.29L169.64 216.72V215.79L171.94 212.17C172.11 211.88 172.27 211.63 172.39 211.41C172.51 211.19 172.61 210.99 172.69 210.82C172.758 210.674 172.814 210.524 172.86 210.37C172.89 210.252 172.907 210.131 172.91 210.01C172.913 209.877 172.889 209.744 172.84 209.62C172.799 209.53 172.733 209.454 172.65 209.4C172.556 209.358 172.453 209.341 172.35 209.35C172.214 209.373 172.083 209.417 171.96 209.48C171.618 209.637 171.33 209.891 171.13 210.21C170.943 210.51 170.846 210.857 170.85 211.21L169.49 211.89C169.493 211.549 169.554 211.211 169.67 210.89C169.793 210.535 169.965 210.198 170.18 209.89C170.411 209.56 170.679 209.258 170.98 208.99C171.28 208.713 171.617 208.477 171.98 208.29C172.293 208.126 172.631 208.014 172.98 207.96C173.216 207.917 173.46 207.944 173.68 208.04C173.867 208.133 174.015 208.289 174.1 208.48C174.207 208.726 174.258 208.992 174.25 209.26C174.246 209.504 174.209 209.746 174.14 209.98C174.058 210.251 173.954 210.515 173.83 210.77C173.69 211.05 173.53 211.34 173.34 211.65L172.71 212.65L171.37 214.73L174.49 213.17L174.48 214.29ZM179.8 208.99L180.63 208.57V209.67L179.8 210.09V211.63L178.44 212.31V210.77L175.44 212.24V211.42L178.44 205.21L179.81 204.52L179.8 208.99ZM176.8 210.5L178.47 209.67V207L178.34 207.3L176.8 210.5ZM138.8 245.96C138.775 246.333 138.694 246.701 138.56 247.05C138.287 247.773 137.832 248.413 137.24 248.91C136.935 249.172 136.599 249.397 136.24 249.58C135.894 249.768 135.512 249.88 135.12 249.91C134.827 249.93 134.536 249.845 134.3 249.67C134.062 249.474 133.885 249.214 133.79 248.92C133.665 248.533 133.607 248.127 133.62 247.72V246.72C133.62 246.251 133.681 245.784 133.8 245.33C133.92 244.885 134.098 244.458 134.33 244.06C134.505 243.678 134.731 243.322 135 243C135.317 242.68 135.685 242.417 136.09 242.22C136.404 242.051 136.741 241.93 137.09 241.86C137.353 241.815 137.624 241.847 137.87 241.95C138.09 242.056 138.269 242.232 138.38 242.45C138.514 242.725 138.592 243.024 138.61 243.33L137.24 244.01C137.235 243.836 137.205 243.665 137.15 243.5C137.108 243.386 137.031 243.288 136.93 243.22C136.821 243.158 136.693 243.137 136.57 243.16C136.388 243.191 136.212 243.252 136.05 243.34C135.841 243.438 135.654 243.578 135.5 243.75C135.336 243.926 135.204 244.129 135.11 244.35C134.998 244.591 134.92 244.847 134.88 245.11C134.83 245.407 134.807 245.708 134.81 246.01V247.01C134.761 247.498 134.863 247.99 135.1 248.42C135.3 248.65 135.61 248.66 136.04 248.42C136.377 248.256 136.669 248.012 136.89 247.71C137.109 247.384 137.227 247.002 137.23 246.61L138.8 245.96ZM139.8 247.67V240.56L141.64 239.64C142.038 239.429 142.472 239.293 142.92 239.24C143.265 239.194 143.616 239.261 143.92 239.43C144.206 239.59 144.43 239.839 144.56 240.14C144.714 240.524 144.789 240.936 144.78 241.35V241.94C144.775 242.421 144.701 242.9 144.56 243.36C144.41 243.835 144.198 244.289 143.93 244.71C143.649 245.135 143.312 245.522 142.93 245.86C142.557 246.201 142.14 246.49 141.69 246.72L139.8 247.67ZM141.18 240.99V245.88L141.71 245.61C141.967 245.489 142.201 245.323 142.4 245.12C142.604 244.918 142.779 244.689 142.92 244.44C143.063 244.175 143.171 243.893 143.24 243.6C143.325 243.274 143.366 242.937 143.36 242.6V242C143.364 241.723 143.327 241.446 143.25 241.18C143.186 240.984 143.072 240.808 142.92 240.67C142.763 240.556 142.574 240.496 142.38 240.5C142.12 240.517 141.867 240.592 141.64 240.72L141.18 240.99ZM152.81 240.08C153.146 239.917 153.465 239.719 153.76 239.49C154.01 239.295 154.235 239.07 154.43 238.82C154.606 238.588 154.748 238.332 154.85 238.06C154.953 237.797 155.02 237.521 155.05 237.24C154.894 237.463 154.717 237.671 154.52 237.86C154.286 238.071 154.023 238.25 153.74 238.39C153.462 238.542 153.156 238.634 152.84 238.66C152.611 238.672 152.385 238.605 152.2 238.47C152.012 238.329 151.872 238.134 151.8 237.91C151.707 237.63 151.663 237.335 151.67 237.04C151.67 236.681 151.724 236.323 151.83 235.98C151.945 235.629 152.103 235.293 152.3 234.98C152.493 234.626 152.728 234.297 153 234C153.301 233.726 153.637 233.494 154 233.31C154.308 233.143 154.65 233.047 155 233.03C155.271 233.015 155.539 233.093 155.76 233.25C155.977 233.428 156.14 233.664 156.23 233.93C156.347 234.281 156.401 234.65 156.39 235.02V235.49C156.39 236.05 156.32 236.608 156.18 237.15C156.043 237.7 155.824 238.226 155.53 238.71C155.23 239.219 154.855 239.68 154.42 240.08C153.931 240.521 153.382 240.892 152.79 241.18L152.69 241.24V240.1L152.81 240.08ZM154.06 237.18C154.183 237.122 154.297 237.048 154.4 236.96C154.509 236.873 154.607 236.772 154.69 236.66C154.776 236.556 154.853 236.446 154.92 236.33C154.978 236.214 155.029 236.093 155.07 235.97V235.49C155.074 235.271 155.048 235.052 154.99 234.84C154.95 234.696 154.875 234.566 154.77 234.46C154.677 234.383 154.561 234.34 154.44 234.34C154.296 234.34 154.155 234.378 154.03 234.45C153.869 234.53 153.723 234.638 153.6 234.77C153.473 234.912 153.366 235.07 153.28 235.24C153.196 235.412 153.132 235.593 153.09 235.78C153.043 235.963 153.019 236.151 153.02 236.34C153.018 236.505 153.038 236.67 153.08 236.83C153.115 236.959 153.184 237.076 153.28 237.17C153.367 237.251 153.481 237.297 153.6 237.3C153.744 237.28 153.882 237.225 154 237.14L154.06 237.18ZM162.53 229.95L159.76 237.69L158.33 238.4L161 231L157.43 232.79V231.68L162.43 229.18L162.53 229.95ZM165.25 230.79L165.99 230.42C166.322 230.266 166.606 230.024 166.81 229.72C166.986 229.464 167.08 229.16 167.08 228.85C167.083 228.73 167.063 228.611 167.02 228.5C166.983 228.413 166.92 228.34 166.84 228.29C166.739 228.258 166.631 228.258 166.53 228.29C166.375 228.309 166.225 228.36 166.09 228.44C165.954 228.508 165.826 228.592 165.71 228.69C165.594 228.784 165.49 228.891 165.4 229.01C165.314 229.125 165.24 229.249 165.18 229.38C165.133 229.508 165.11 229.643 165.11 229.78L163.75 230.45C163.753 230.148 163.814 229.849 163.93 229.57C164.054 229.266 164.219 228.98 164.42 228.72C164.631 228.435 164.877 228.176 165.15 227.95C165.43 227.717 165.735 227.516 166.06 227.35C166.377 227.192 166.713 227.074 167.06 227C167.306 226.934 167.564 226.934 167.81 227C168.019 227.06 168.195 227.2 168.3 227.39C168.423 227.634 168.482 227.906 168.47 228.18C168.469 228.346 168.446 228.511 168.4 228.67C168.354 228.85 168.287 229.025 168.2 229.19C168.105 229.375 167.994 229.552 167.87 229.72C167.735 229.903 167.588 230.076 167.43 230.24C167.598 230.204 167.772 230.204 167.94 230.24C168.075 230.276 168.198 230.344 168.3 230.44C168.393 230.545 168.464 230.667 168.51 230.8C168.56 230.962 168.583 231.131 168.58 231.3C168.577 231.642 168.513 231.981 168.39 232.3C168.258 232.628 168.083 232.938 167.87 233.22C167.632 233.511 167.368 233.779 167.08 234.02C166.767 234.26 166.432 234.471 166.08 234.65C165.801 234.793 165.506 234.9 165.2 234.97C164.946 235.025 164.684 235.025 164.43 234.97C164.21 234.919 164.017 234.787 163.89 234.6C163.739 234.365 163.669 234.088 163.69 233.81L165.04 233.13C165.038 233.248 165.065 233.365 165.12 233.47C165.168 233.555 165.247 233.62 165.34 233.65C165.451 233.681 165.569 233.681 165.68 233.65C165.831 233.624 165.976 233.573 166.11 233.5C166.436 233.35 166.716 233.115 166.92 232.82C167.11 232.566 167.212 232.257 167.21 231.94C167.22 231.782 167.193 231.625 167.13 231.48C167.107 231.43 167.074 231.385 167.032 231.349C166.991 231.313 166.943 231.286 166.89 231.27C166.766 231.234 166.634 231.234 166.51 231.27C166.337 231.316 166.17 231.38 166.01 231.46L165.27 231.83L165.25 230.79ZM173.85 227.99L174.68 227.58V228.68L173.85 229.09V230.63L172.49 231.31V229.77L169.49 231.25V230.42L172.49 224.21L173.87 223.52L173.85 227.99ZM170.85 229.51L172.52 228.67V226L172.39 226.3L170.85 229.51ZM179.24 227.95L177.87 228.64V223.18L176.07 224.73V223.5L179.17 220.84H179.24V227.95ZM139 258L136.81 259.09V265.09L135.43 265.78V259.78L133.27 260.86V259.75L139 256.9V258ZM141.9 259.62L141.15 260.82V262.91L139.77 263.6V256.49L141.15 255.81V259.06L141.79 257.87L143.52 254.62L145.2 253.78L142.81 258.12L145.29 260.84L143.66 261.66L141.9 259.62ZM155.16 255.9L153.79 256.59V251.14L152 252.7V251.52L155.09 248.85H155.17L155.16 255.9ZM159.16 249.73L159.9 249.36C160.228 249.204 160.511 248.967 160.72 248.67C160.893 248.412 160.987 248.11 160.99 247.8C160.992 247.677 160.972 247.555 160.93 247.44C160.896 247.354 160.832 247.283 160.75 247.24C160.649 247.208 160.541 247.208 160.44 247.24C160.287 247.269 160.139 247.319 160 247.39C159.864 247.458 159.736 247.542 159.62 247.64C159.501 247.737 159.394 247.848 159.3 247.97C159.211 248.081 159.14 248.206 159.09 248.34C159.04 248.464 159.013 248.596 159.01 248.73L157.66 249.41C157.663 249.109 157.721 248.811 157.83 248.53C157.958 248.222 158.126 247.933 158.33 247.67C158.544 247.387 158.789 247.129 159.06 246.9C159.341 246.67 159.646 246.472 159.97 246.31C160.285 246.145 160.622 246.024 160.97 245.95C161.216 245.884 161.474 245.884 161.72 245.95C161.925 246.017 162.099 246.155 162.21 246.34C162.333 246.585 162.391 246.856 162.38 247.13C162.381 247.296 162.357 247.461 162.31 247.62C162.259 247.799 162.192 247.973 162.11 248.14C162.017 248.327 161.906 248.504 161.78 248.67C161.644 248.855 161.494 249.029 161.33 249.19C161.501 249.154 161.679 249.154 161.85 249.19C161.985 249.22 162.109 249.286 162.21 249.38C162.303 249.485 162.374 249.607 162.42 249.74C162.465 249.906 162.489 250.078 162.49 250.25C162.488 250.592 162.424 250.931 162.3 251.25C162.167 251.58 161.988 251.889 161.77 252.17C161.541 252.465 161.28 252.734 160.99 252.97C160.682 253.217 160.346 253.429 159.99 253.6C159.708 253.744 159.409 253.852 159.1 253.92C158.85 253.975 158.59 253.975 158.34 253.92C158.123 253.869 157.931 253.741 157.8 253.56C157.647 253.322 157.573 253.042 157.59 252.76L158.95 252.08C158.947 252.198 158.974 252.315 159.03 252.42C159.08 252.506 159.158 252.573 159.25 252.61C159.362 252.636 159.478 252.636 159.59 252.61C159.74 252.586 159.885 252.539 160.02 252.47C160.346 252.32 160.626 252.085 160.83 251.79C161.019 251.532 161.121 251.22 161.12 250.9C161.128 250.746 161.101 250.592 161.04 250.45C160.992 250.348 160.906 250.269 160.8 250.23C160.675 250.2 160.545 250.2 160.42 250.23C160.246 250.267 160.078 250.328 159.92 250.41L159.18 250.78L159.16 249.73ZM167.76 246.93L168.58 246.52V247.62L167.76 248.03V249.58L166.4 250.26V248.71L163.4 250.19L163.34 249.37L166.34 243.16L167.72 242.47L167.76 246.93ZM164.76 248.45L166.43 247.61V245L166.3 245.3L164.76 248.45ZM169.89 245.02L170.3 241.21L174.24 239.21V240.36L171.42 241.77L171.25 243.42C171.383 243.279 171.526 243.148 171.68 243.03C171.875 242.863 172.09 242.722 172.32 242.61C172.602 242.456 172.911 242.357 173.23 242.32C173.465 242.286 173.704 242.332 173.91 242.45C174.109 242.575 174.258 242.766 174.33 242.99C174.438 243.288 174.489 243.603 174.48 243.92C174.479 244.258 174.432 244.594 174.34 244.92C174.241 245.272 174.093 245.609 173.9 245.92C173.697 246.245 173.452 246.541 173.17 246.8C172.872 247.085 172.535 247.328 172.17 247.52C171.888 247.66 171.589 247.761 171.28 247.82C171.031 247.886 170.769 247.886 170.52 247.82C170.304 247.761 170.113 247.63 169.98 247.45C169.829 247.222 169.752 246.953 169.76 246.68L171 246C171 246.3 171.14 246.48 171.33 246.55C171.452 246.586 171.581 246.594 171.707 246.575C171.833 246.556 171.954 246.51 172.06 246.44C172.233 246.356 172.392 246.244 172.53 246.11C172.654 245.979 172.759 245.831 172.84 245.67C172.921 245.504 172.981 245.33 173.02 245.15C173.052 244.962 173.069 244.771 173.07 244.58C173.075 244.417 173.051 244.255 173 244.1C172.962 243.978 172.884 243.873 172.78 243.8C172.674 243.73 172.546 243.702 172.42 243.72C172.237 243.742 172.061 243.8 171.9 243.89C171.778 243.946 171.661 244.013 171.55 244.09L171.29 244.31C171.218 244.382 171.151 244.459 171.09 244.54L170.93 244.77L169.89 245.02ZM179.43 236.58V237.71H179.35C179.009 237.876 178.69 238.085 178.4 238.33C178.136 238.55 177.901 238.802 177.7 239.08C177.51 239.342 177.355 239.628 177.24 239.93C177.131 240.223 177.061 240.529 177.03 240.84C177.109 240.711 177.196 240.588 177.29 240.47C177.386 240.332 177.496 240.204 177.62 240.09C177.743 239.966 177.873 239.849 178.01 239.74C178.159 239.628 178.316 239.528 178.48 239.44C178.752 239.295 179.052 239.209 179.36 239.19C179.59 239.191 179.814 239.264 180 239.4C180.18 239.553 180.312 239.754 180.38 239.98C180.465 240.259 180.505 240.549 180.5 240.84C180.497 241.18 180.44 241.518 180.33 241.84C180.22 242.193 180.062 242.53 179.86 242.84C179.432 243.507 178.835 244.049 178.13 244.41C177.821 244.578 177.48 244.68 177.13 244.71C176.855 244.733 176.58 244.662 176.349 244.51C176.119 244.358 175.947 244.132 175.86 243.87C175.736 243.551 175.675 243.212 175.68 242.87V242.35C175.683 241.782 175.76 241.217 175.91 240.67C176.061 240.111 176.29 239.576 176.59 239.08C177.239 238.024 178.171 237.172 179.28 236.62L179.43 236.58ZM178.08 240.77C177.833 240.897 177.615 241.074 177.44 241.29C177.258 241.504 177.113 241.748 177.01 242.01V242.41C177.006 242.626 177.033 242.841 177.09 243.05C177.13 243.193 177.21 243.321 177.32 243.42C177.418 243.501 177.543 243.543 177.67 243.54C177.821 243.535 177.968 243.494 178.1 243.42C178.263 243.337 178.411 243.229 178.54 243.1C178.67 242.969 178.781 242.821 178.87 242.66C178.96 242.496 179.031 242.321 179.08 242.14C179.128 241.954 179.151 241.762 179.15 241.57C179.155 241.4 179.131 241.231 179.08 241.07C179.039 240.95 178.966 240.843 178.87 240.76C178.775 240.681 178.653 240.641 178.53 240.65C178.361 240.658 178.197 240.706 178.05 240.79L178.08 240.77ZM138.14 277.3L135.22 278.76V280.76L138.64 279.05V280.16L133.85 282.55V275.44L138.62 273.05V274.17L135.22 275.87V277.66L138.14 276.2V277.3ZM144.66 276.3C144.551 276.477 144.431 276.648 144.3 276.81C143.717 277.49 143.007 278.051 142.21 278.46C141.868 278.64 141.495 278.752 141.11 278.79C140.819 278.815 140.527 278.745 140.28 278.59C140.031 278.406 139.843 278.152 139.74 277.86C139.609 277.46 139.548 277.04 139.56 276.62V275.62C139.557 275.137 139.621 274.656 139.75 274.19C139.882 273.746 140.067 273.32 140.3 272.92C140.529 272.552 140.805 272.216 141.12 271.92C141.418 271.631 141.754 271.385 142.12 271.19C142.434 271.02 142.771 270.896 143.12 270.82C143.374 270.766 143.638 270.787 143.88 270.88C144.088 270.974 144.257 271.136 144.36 271.34C144.484 271.59 144.559 271.862 144.58 272.14L143.25 272.81C143.249 272.683 143.218 272.559 143.161 272.446C143.104 272.333 143.021 272.235 142.92 272.16C142.74 272.06 142.47 272.1 142.11 272.29C141.924 272.379 141.757 272.505 141.62 272.66C141.463 272.837 141.332 273.036 141.23 273.25C141.112 273.498 141.025 273.76 140.97 274.03C140.899 274.335 140.866 274.647 140.87 274.96V275.96C140.82 276.438 140.937 276.918 141.2 277.32C141.42 277.56 141.75 277.57 142.2 277.32C142.311 277.268 142.418 277.207 142.52 277.14C142.621 277.072 142.718 276.999 142.81 276.92C142.895 276.852 142.975 276.778 143.05 276.7C143.11 276.639 143.164 276.572 143.21 276.5V275.21L142.03 275.8V274.8L144.57 273.53L144.66 276.3ZM152.75 272C153.086 271.837 153.405 271.639 153.7 271.41C153.95 271.215 154.175 270.99 154.37 270.74C154.546 270.508 154.688 270.252 154.79 269.98C154.893 269.717 154.96 269.441 154.99 269.16C154.834 269.383 154.657 269.591 154.46 269.78C154.226 269.991 153.963 270.17 153.68 270.31C153.402 270.462 153.096 270.554 152.78 270.58C152.551 270.592 152.325 270.525 152.14 270.39C151.952 270.249 151.812 270.054 151.74 269.83C151.647 269.549 151.603 269.255 151.61 268.96C151.61 268.601 151.664 268.243 151.77 267.9C151.885 267.549 152.043 267.213 152.24 266.9C152.457 266.571 152.712 266.269 153 266C153.301 265.726 153.637 265.494 154 265.31C154.308 265.143 154.65 265.047 155 265.03C155.271 265.015 155.539 265.093 155.76 265.25C155.977 265.428 156.14 265.664 156.23 265.93C156.347 266.281 156.401 266.65 156.39 267.02V267.49C156.39 268.05 156.32 268.608 156.18 269.15C156.043 269.7 155.824 270.226 155.53 270.71C155.23 271.219 154.855 271.68 154.42 272.08C153.931 272.521 153.382 272.892 152.79 273.18L152.69 273.24V272.1L152.75 272ZM154 269.1C154.123 269.042 154.237 268.968 154.34 268.88C154.449 268.793 154.547 268.692 154.63 268.58C154.716 268.476 154.793 268.366 154.86 268.25C154.918 268.134 154.969 268.013 155.01 267.89V267.41C155.014 267.191 154.988 266.972 154.93 266.76C154.89 266.616 154.815 266.486 154.71 266.38C154.617 266.303 154.501 266.26 154.38 266.26C154.236 266.26 154.095 266.298 153.97 266.37C153.809 266.45 153.663 266.558 153.54 266.69C153.413 266.832 153.306 266.99 153.22 267.16C153.136 267.332 153.072 267.513 153.03 267.7C152.983 267.883 152.959 268.071 152.96 268.26C152.958 268.425 152.978 268.59 153.02 268.75C153.055 268.879 153.124 268.996 153.22 269.09C153.307 269.171 153.421 269.217 153.54 269.22C153.698 269.234 153.856 269.207 154 269.14V269.1ZM162.47 261.87L159.7 269.61L158.27 270.32L161 263L157.43 264.79V263.68L162.43 261.18L162.47 261.87ZM165.19 262.71L165.93 262.34C166.262 262.186 166.546 261.944 166.75 261.64C166.926 261.384 167.02 261.08 167.02 260.77C167.023 260.65 167.003 260.531 166.96 260.42C166.923 260.333 166.86 260.26 166.78 260.21C166.679 260.178 166.571 260.178 166.47 260.21C166.315 260.229 166.165 260.28 166.03 260.36C165.894 260.428 165.766 260.512 165.65 260.61C165.534 260.704 165.43 260.811 165.34 260.93C165.254 261.045 165.18 261.169 165.12 261.3C165.073 261.428 165.05 261.563 165.05 261.7L163.69 262.37C163.693 262.068 163.754 261.769 163.87 261.49C163.994 261.186 164.159 260.9 164.36 260.64C164.571 260.355 164.817 260.096 165.09 259.87C165.37 259.637 165.675 259.436 166 259.27C166.317 259.112 166.653 258.994 167 258.92C167.246 258.854 167.504 258.854 167.75 258.92C167.959 258.98 168.135 259.12 168.24 259.31C168.363 259.554 168.422 259.826 168.41 260.1C168.409 260.266 168.386 260.431 168.34 260.59C168.294 260.77 168.227 260.945 168.14 261.11C168.045 261.295 167.934 261.473 167.81 261.64C167.675 261.823 167.528 261.996 167.37 262.16C167.538 262.124 167.712 262.124 167.88 262.16C168.015 262.196 168.138 262.264 168.24 262.36C168.333 262.465 168.404 262.587 168.45 262.72C168.5 262.882 168.523 263.051 168.52 263.22C168.517 263.562 168.453 263.901 168.33 264.22C168.198 264.548 168.023 264.858 167.81 265.14C167.572 265.431 167.308 265.699 167.02 265.94C166.707 266.18 166.372 266.391 166.02 266.57C165.741 266.713 165.446 266.82 165.14 266.89C164.886 266.945 164.624 266.945 164.37 266.89C164.15 266.839 163.957 266.707 163.83 266.52C163.679 266.285 163.609 266.008 163.63 265.73L164.98 265.05C164.978 265.168 165.005 265.285 165.06 265.39C165.108 265.475 165.187 265.54 165.28 265.57C165.391 265.601 165.509 265.601 165.62 265.57C165.771 265.544 165.916 265.493 166.05 265.42C166.376 265.27 166.656 265.035 166.86 264.74C167.05 264.486 167.152 264.177 167.15 263.86C167.16 263.702 167.133 263.545 167.07 263.4C167.047 263.35 167.014 263.305 166.972 263.269C166.931 263.233 166.883 263.206 166.83 263.19C166.706 263.154 166.574 263.154 166.45 263.19C166.277 263.236 166.11 263.3 165.95 263.38L165.21 263.75L165.19 262.71ZM173.79 259.91L174.62 259.5V260.6L173.79 261.01V262.55L172.43 263.23V261.69L169.43 263.17V262.34L172.43 256.13L173.81 255.44L173.79 259.91ZM170.79 261.43L172.46 260.59V258L172.33 258.3L170.79 261.43ZM179.18 259.87L177.81 260.56V255.1L176.01 256.65V255.5L179.11 252.84H179.18V259.87ZM135.92 294.6L135.17 295.8V297.9L133.79 298.59V291.48L135.17 290.79V294.04L135.81 292.85L137.54 289.6L139.22 288.76L136.83 293.1L139.31 295.83L137.68 296.64L135.92 294.6ZM144.5 293.23L139.65 295.65V294.73L141.95 291.1C142.13 290.82 142.28 290.57 142.4 290.34C142.513 290.154 142.614 289.96 142.7 289.76C142.768 289.614 142.824 289.464 142.87 289.31C142.899 289.192 142.916 289.071 142.92 288.95C142.927 288.816 142.903 288.683 142.85 288.56C142.815 288.466 142.748 288.388 142.66 288.34C142.568 288.291 142.463 288.274 142.36 288.29C142.226 288.307 142.097 288.351 141.98 288.42C141.643 288.567 141.357 288.811 141.157 289.121C140.958 289.43 140.855 289.792 140.86 290.16L139.5 290.84C139.503 290.499 139.564 290.161 139.68 289.84C139.805 289.485 139.976 289.149 140.19 288.84C140.421 288.51 140.689 288.208 140.99 287.94C141.29 287.663 141.627 287.427 141.99 287.24C142.303 287.076 142.641 286.964 142.99 286.91C143.226 286.867 143.47 286.894 143.69 286.99C143.884 287.077 144.037 287.234 144.12 287.43C144.224 287.673 144.271 287.936 144.26 288.2C144.262 288.447 144.225 288.694 144.15 288.93C144.072 289.203 143.968 289.467 143.84 289.72C143.71 289.99 143.54 290.29 143.36 290.6L142.73 291.6L141.39 293.68L144.51 292.12L144.5 293.23ZM149.81 287.92L150.64 287.51V288.61L149.81 289.02V290.57L148.46 291.25V289.7L145.46 291.18L145.41 290.36L148.41 284.15L149.78 283.46L149.81 287.92ZM146.81 289.44L148.49 288.6V286L148.36 286.3L146.81 289.44ZM153.95 285.59L153.2 286.79V288.89L151.82 289.58V282.47L153.2 281.78V285.03L153.84 283.84L155.57 280.59L157.25 279.75L154.86 284.09L157.34 286.82L155.71 287.63L153.95 285.59ZM159.25 281.71L159.99 281.34C160.318 281.184 160.601 280.947 160.81 280.65C160.983 280.392 161.077 280.09 161.08 279.78C161.082 279.657 161.062 279.535 161.02 279.42C160.986 279.334 160.922 279.263 160.84 279.22C160.739 279.188 160.631 279.188 160.53 279.22C160.377 279.249 160.229 279.299 160.09 279.37C159.954 279.438 159.826 279.522 159.71 279.62C159.591 279.717 159.484 279.828 159.39 279.95C159.301 280.061 159.23 280.186 159.18 280.32C159.13 280.444 159.103 280.576 159.1 280.71L157.75 281.39C157.753 281.089 157.811 280.791 157.92 280.51C158.048 280.202 158.216 279.913 158.42 279.65C158.634 279.367 158.879 279.109 159.15 278.88C159.431 278.65 159.736 278.452 160.06 278.29C160.375 278.125 160.712 278.004 161.06 277.93C161.306 277.864 161.564 277.864 161.81 277.93C162.015 277.997 162.189 278.135 162.3 278.32C162.423 278.565 162.481 278.836 162.47 279.11C162.471 279.276 162.447 279.441 162.4 279.6C162.349 279.779 162.282 279.953 162.2 280.12C162.107 280.307 161.996 280.484 161.87 280.65C161.734 280.835 161.584 281.009 161.42 281.17C161.591 281.134 161.769 281.134 161.94 281.17C162.075 281.2 162.199 281.266 162.3 281.36C162.393 281.465 162.464 281.587 162.51 281.72C162.555 281.886 162.579 282.058 162.58 282.23C162.578 282.572 162.514 282.911 162.39 283.23C162.257 283.56 162.078 283.869 161.86 284.15C161.631 284.445 161.37 284.714 161.08 284.95C160.772 285.197 160.436 285.409 160.08 285.58C159.798 285.724 159.499 285.832 159.19 285.9C158.94 285.955 158.68 285.955 158.43 285.9C158.213 285.849 158.021 285.721 157.89 285.54C157.737 285.302 157.663 285.022 157.68 284.74L159.04 284.06C159.037 284.178 159.064 284.295 159.12 284.4C159.17 284.486 159.248 284.553 159.34 284.59C159.452 284.616 159.568 284.616 159.68 284.59C159.83 284.566 159.975 284.519 160.11 284.45C160.436 284.3 160.716 284.065 160.92 283.77C161.109 283.512 161.211 283.2 161.21 282.88C161.218 282.726 161.191 282.572 161.13 282.43C161.082 282.328 160.996 282.249 160.89 282.21C160.765 282.18 160.635 282.18 160.51 282.21C160.336 282.247 160.168 282.308 160.01 282.39L159.27 282.76L159.25 281.71ZM168.52 281.22L167.16 281.9L165.16 278.31V282.89L163.78 283.58V276.47L165.16 275.78L167.16 279.37V274.8L168.53 274.11L168.52 281.22ZM138.86 187.1L139.59 180.74L141.35 179.86L140 190.5L138.26 191.37L137.32 185.97L136.41 192.3L134.67 193.17L133.31 183.9L135 183L135.71 188.6L136.56 182.22L137.94 181.53L138.86 187.1ZM142.2 185.62C142.201 185.074 142.281 184.532 142.44 184.01C142.592 183.47 142.821 182.954 143.12 182.48C143.423 181.984 143.789 181.53 144.21 181.13C144.652 180.727 145.151 180.39 145.69 180.13C146.149 179.882 146.651 179.725 147.17 179.67C147.554 179.636 147.939 179.723 148.27 179.92C148.585 180.119 148.825 180.419 148.95 180.77C149.117 181.21 149.195 181.679 149.18 182.15V182.29C149.182 182.838 149.105 183.384 148.95 183.91C148.795 184.449 148.566 184.963 148.27 185.44C147.97 185.931 147.603 186.379 147.18 186.77C146.739 187.175 146.24 187.512 145.7 187.77C145.241 188.018 144.739 188.174 144.22 188.23C143.837 188.272 143.451 188.187 143.12 187.99C142.807 187.788 142.569 187.489 142.44 187.14C142.269 186.697 142.188 186.225 142.2 185.75V185.62ZM144.1 184.81C144.096 185.089 144.127 185.368 144.19 185.64C144.238 185.849 144.334 186.044 144.47 186.21C144.534 186.28 144.611 186.336 144.697 186.375C144.783 186.415 144.876 186.437 144.97 186.44C145.227 186.449 145.48 186.383 145.7 186.25C145.969 186.116 146.213 185.937 146.42 185.72C146.619 185.503 146.784 185.257 146.91 184.99C147.039 184.72 147.133 184.434 147.19 184.14C147.25 183.837 147.28 183.529 147.28 183.22V183.08C147.283 182.807 147.253 182.535 147.19 182.27C147.146 182.059 147.05 181.863 146.91 181.7C146.849 181.628 146.774 181.57 146.69 181.529C146.606 181.487 146.514 181.464 146.42 181.46C146.164 181.452 145.91 181.518 145.69 181.65C145.418 181.783 145.174 181.967 144.97 182.19C144.766 182.406 144.598 182.652 144.47 182.92C144.345 183.192 144.251 183.477 144.19 183.77C144.13 184.066 144.1 184.368 144.1 184.67V184.81ZM156.18 174.86C156.433 174.724 156.698 174.611 156.97 174.52C157.22 174.44 157.42 174.38 157.56 174.35L157.28 176.35C157.03 176.42 156.78 176.5 156.52 176.6L155.77 176.93C155.285 177.164 154.848 177.486 154.48 177.88C154.161 178.245 153.916 178.67 153.76 179.13V183.57L151.86 184.57V177.17L153.63 176.29L153.72 177.45C154.011 176.897 154.374 176.386 154.8 175.93C155.192 175.493 155.659 175.13 156.18 174.86V174.86ZM162.05 176.4L161.19 177.63V179.88L159.29 180.88V170.38L161.19 169.38V175.38L161.76 174.43L163.81 171.17L166.09 170.03L163.3 174.5L166.48 177.23L164.15 178.39L162.05 176.4ZM175.81 168.8C175.813 168.255 175.891 167.714 176.04 167.19C176.196 166.651 176.425 166.137 176.72 165.66C177.024 165.165 177.394 164.715 177.82 164.32C178.261 163.915 178.76 163.578 179.3 163.32C179.759 163.072 180.261 162.915 180.78 162.86C181.164 162.827 181.548 162.914 181.88 163.11C182.188 163.318 182.425 163.614 182.56 163.96C182.722 164.401 182.8 164.87 182.79 165.34V165.48C182.788 166.028 182.71 166.573 182.56 167.1C182.4 167.637 182.172 168.151 181.88 168.63C181.574 169.121 181.208 169.571 180.79 169.97C180.343 170.368 179.846 170.704 179.31 170.97C178.848 171.219 178.342 171.376 177.82 171.43C177.443 171.479 177.061 171.398 176.737 171.2C176.413 171.001 176.167 170.698 176.04 170.34C175.877 169.895 175.799 169.424 175.81 168.95V168.8ZM177.71 167.99C177.706 168.269 177.737 168.548 177.8 168.82C177.844 169.031 177.94 169.227 178.08 169.39C178.142 169.459 178.217 169.515 178.302 169.555C178.386 169.594 178.477 169.617 178.57 169.62C178.83 169.629 179.087 169.563 179.31 169.43C179.583 169.303 179.828 169.123 180.03 168.9C180.228 168.682 180.393 168.436 180.52 168.17C180.643 167.898 180.733 167.613 180.79 167.32C180.85 167.02 180.88 166.715 180.88 166.41V166.26C180.883 165.987 180.853 165.715 180.79 165.45C180.745 165.242 180.653 165.046 180.52 164.88C180.393 164.74 180.218 164.655 180.03 164.64C179.773 164.631 179.52 164.697 179.3 164.83C179.024 164.961 178.776 165.144 178.57 165.37C178.372 165.588 178.207 165.834 178.08 166.1C177.951 166.37 177.857 166.656 177.8 166.95C177.74 167.246 177.71 167.548 177.71 167.85V167.99ZM189.78 157.99C190.039 157.858 190.306 157.745 190.58 157.65C190.773 157.582 190.97 157.525 191.17 157.48L190.89 159.48C190.628 159.55 190.371 159.637 190.12 159.74C189.86 159.84 189.61 159.95 189.37 160.07C188.884 160.297 188.449 160.621 188.09 161.02C187.771 161.382 187.526 161.803 187.37 162.26V166.7L185.47 167.65V160.26L187.24 159.37L187.33 160.54C187.62 159.984 187.983 159.469 188.41 159.01C188.806 158.597 189.269 158.256 189.78 158V157.99ZM192.67 160.32C192.671 159.77 192.738 159.223 192.87 158.69C192.994 158.173 193.185 157.676 193.44 157.21C193.682 156.758 193.989 156.344 194.35 155.98C194.709 155.619 195.125 155.318 195.58 155.09C195.89 154.924 196.23 154.822 196.58 154.79C196.854 154.776 197.126 154.846 197.36 154.99V151.22L199.27 150.22V160.72L197.55 161.57L197.46 160.85C197.232 161.242 196.957 161.605 196.64 161.93C196.319 162.251 195.947 162.518 195.54 162.72C195.168 162.922 194.753 163.032 194.33 163.04C193.998 163.039 193.676 162.922 193.42 162.71C193.15 162.469 192.952 162.157 192.85 161.81C192.709 161.36 192.642 160.891 192.65 160.42L192.67 160.32ZM194.57 159.52C194.568 159.795 194.595 160.07 194.65 160.34C194.687 160.549 194.777 160.745 194.91 160.91C194.967 160.978 195.037 161.035 195.116 161.076C195.195 161.117 195.281 161.142 195.37 161.15C195.608 161.156 195.843 161.097 196.05 160.98C196.362 160.831 196.641 160.62 196.87 160.36C197.085 160.11 197.257 159.826 197.38 159.52V156.52C197.323 156.433 197.248 156.359 197.16 156.304C197.072 156.249 196.973 156.213 196.87 156.2C196.587 156.178 196.304 156.245 196.06 156.39C195.804 156.52 195.573 156.697 195.38 156.91C195.188 157.119 195.033 157.359 194.92 157.62C194.796 157.887 194.709 158.17 194.66 158.46C194.6 158.759 194.57 159.064 194.57 159.37V159.52ZM204.86 158.11C204.378 158.368 203.853 158.538 203.31 158.61C202.903 158.665 202.489 158.609 202.11 158.45C201.779 158.29 201.508 158.027 201.34 157.7C201.15 157.304 201.057 156.869 201.07 156.43V156.16C201.072 155.589 201.163 155.022 201.34 154.48C201.52 153.923 201.772 153.392 202.09 152.9C202.402 152.4 202.782 151.945 203.22 151.55C203.645 151.149 204.127 150.812 204.65 150.55C205.092 150.307 205.578 150.154 206.08 150.1C206.427 150.071 206.774 150.144 207.08 150.31C207.383 150.504 207.615 150.792 207.74 151.13C207.902 151.571 207.98 152.04 207.97 152.51V153.31L202.97 155.83C202.998 156.034 203.074 156.229 203.19 156.4C203.302 156.544 203.45 156.654 203.62 156.72C203.817 156.772 204.023 156.772 204.22 156.72C204.474 156.678 204.721 156.597 204.95 156.48C205.142 156.385 205.326 156.274 205.5 156.15C205.69 156.023 205.867 155.879 206.03 155.72C206.202 155.566 206.363 155.398 206.51 155.22C206.654 155.045 206.781 154.858 206.89 154.66L207.89 155.21C207.755 155.464 207.601 155.708 207.43 155.94C207.227 156.21 207.003 156.464 206.76 156.7C206.489 156.964 206.202 157.212 205.9 157.44C205.576 157.711 205.228 157.952 204.86 158.16V158.11ZM204.64 152.11C204.424 152.213 204.225 152.347 204.05 152.51C203.87 152.675 203.712 152.863 203.58 153.07C203.443 153.284 203.329 153.512 203.24 153.75C203.148 153.992 203.081 154.244 203.04 154.5L206.15 152.95V152.79C206.148 152.617 206.11 152.447 206.04 152.29C205.979 152.153 205.873 152.04 205.74 151.97C205.596 151.903 205.437 151.879 205.28 151.9C205.052 151.939 204.834 152.024 204.64 152.15V152.11ZM215 145.43C215.253 145.294 215.518 145.181 215.79 145.09C215.982 145.019 216.179 144.962 216.38 144.92L216.1 146.92C215.85 146.99 215.6 147.07 215.33 147.17C215.06 147.27 214.82 147.39 214.59 147.5C214.104 147.732 213.666 148.054 213.3 148.45C212.983 148.813 212.738 149.234 212.58 149.69V154.14L210.68 155.14V147.74L212.45 146.86L212.54 148.02C212.83 147.464 213.193 146.949 213.62 146.49C214.012 146.056 214.48 145.697 215 145.43V145.43ZM222.86 147C222.866 146.951 222.861 146.901 222.846 146.854C222.83 146.807 222.804 146.764 222.769 146.728C222.735 146.693 222.692 146.665 222.646 146.648C222.599 146.631 222.549 146.625 222.5 146.63C222.318 146.624 222.136 146.644 221.96 146.69C221.74 146.74 221.46 146.82 221.11 146.93C220.724 147.046 220.329 147.133 219.93 147.19C219.626 147.246 219.314 147.246 219.01 147.19C218.776 147.151 218.563 147.031 218.41 146.85C218.254 146.643 218.176 146.388 218.19 146.13C218.199 145.786 218.274 145.446 218.41 145.13C218.576 144.771 218.788 144.435 219.04 144.13C219.337 143.762 219.673 143.427 220.04 143.13C220.45 142.797 220.896 142.512 221.37 142.28C221.804 142.047 222.269 141.876 222.75 141.77C223.08 141.698 223.421 141.698 223.75 141.77C224.012 141.83 224.242 141.983 224.4 142.2C224.56 142.45 224.641 142.743 224.63 143.04L222.72 143.99C222.736 143.873 222.71 143.754 222.648 143.654C222.586 143.554 222.492 143.478 222.38 143.44C222.01 143.395 221.635 143.479 221.32 143.68C220.94 143.856 220.6 144.108 220.32 144.42C220.128 144.629 220.012 144.897 219.99 145.18C219.986 145.274 220.007 145.367 220.05 145.45C220.079 145.489 220.117 145.521 220.16 145.544C220.203 145.566 220.251 145.579 220.3 145.58C220.455 145.607 220.615 145.607 220.77 145.58C221.032 145.525 221.289 145.451 221.54 145.36C221.945 145.217 222.359 145.104 222.78 145.02C223.107 144.942 223.446 144.922 223.78 144.96C224.034 144.982 224.27 145.1 224.44 145.29C224.609 145.521 224.69 145.804 224.67 146.09C224.661 146.435 224.583 146.775 224.44 147.09C224.269 147.47 224.043 147.824 223.77 148.14C223.473 148.507 223.138 148.843 222.77 149.14C222.338 149.467 221.876 149.751 221.39 149.99C220.929 150.237 220.434 150.413 219.92 150.51C219.569 150.598 219.201 150.598 218.85 150.51C218.583 150.438 218.352 150.271 218.2 150.04C218.044 149.807 217.963 149.531 217.97 149.25L219.79 148.35C219.789 148.508 219.846 148.661 219.95 148.78C220.05 148.877 220.181 148.937 220.32 148.95C220.496 148.958 220.672 148.934 220.84 148.88C221.046 148.824 221.244 148.744 221.43 148.64C221.835 148.458 222.202 148.2 222.51 147.88C222.622 147.763 222.71 147.625 222.769 147.474C222.827 147.323 222.855 147.162 222.85 147H222.86ZM210.16 177.76L209.16 178.28V180.94L207.79 181.62V174.51L210.17 173.32C210.509 173.143 210.868 173.009 211.24 172.92C211.51 172.86 211.79 172.86 212.06 172.92C212.17 172.95 212.272 173.002 212.362 173.072C212.451 173.143 212.525 173.23 212.58 173.33C212.713 173.589 212.775 173.879 212.76 174.17C212.76 174.416 212.73 174.661 212.67 174.9C212.612 175.132 212.528 175.357 212.42 175.57C212.302 175.792 212.165 176.002 212.01 176.2C211.847 176.405 211.67 176.599 211.48 176.78L213 179L211.53 179.74L210.16 177.76ZM209.16 177.17L210.16 176.66C210.515 176.488 210.821 176.23 211.05 175.91C211.263 175.62 211.375 175.269 211.37 174.91C211.37 174.55 211.27 174.33 211.06 174.23C210.906 174.192 210.745 174.186 210.588 174.214C210.431 174.241 210.282 174.301 210.15 174.39L209.15 174.9L209.16 177.17ZM213.6 176C213.602 175.61 213.659 175.223 213.77 174.85C213.879 174.461 214.044 174.091 214.26 173.75C214.471 173.381 214.733 173.044 215.04 172.75C215.352 172.456 215.706 172.21 216.09 172.02C216.418 171.841 216.778 171.729 217.15 171.69C217.426 171.667 217.702 171.73 217.94 171.87C218.161 172.017 218.329 172.23 218.42 172.48C218.542 172.799 218.599 173.139 218.59 173.48V173.58C218.588 173.973 218.531 174.363 218.42 174.74C218.249 175.339 217.954 175.897 217.554 176.375C217.155 176.854 216.659 177.244 216.1 177.52C215.772 177.7 215.412 177.812 215.04 177.85C214.769 177.877 214.495 177.818 214.26 177.68C214.036 177.534 213.864 177.32 213.77 177.07C213.649 176.751 213.591 176.411 213.6 176.07V176ZM214.96 175.42C214.958 175.618 214.978 175.816 215.02 176.01C215.054 176.16 215.123 176.3 215.22 176.42C215.314 176.518 215.444 176.576 215.58 176.58C215.762 176.585 215.942 176.54 216.1 176.45C216.293 176.352 216.468 176.224 216.62 176.07C216.76 175.914 216.878 175.739 216.97 175.55C217.06 175.356 217.124 175.151 217.16 174.94C217.209 174.727 217.232 174.509 217.23 174.29V174.18C217.233 173.984 217.21 173.789 217.16 173.6C217.132 173.453 217.066 173.315 216.97 173.2C216.881 173.096 216.756 173.032 216.62 173.02C216.434 173.021 216.252 173.069 216.09 173.16C215.899 173.255 215.726 173.384 215.58 173.54C215.436 173.699 215.315 173.878 215.22 174.07C215.132 174.262 215.065 174.463 215.02 174.67C214.98 174.884 214.96 175.102 214.96 175.32V175.42ZM224.55 170.62C224.552 171.007 224.509 171.393 224.42 171.77C224.339 172.12 224.208 172.457 224.03 172.77C223.692 173.431 223.153 173.967 222.49 174.3C222.245 174.436 221.97 174.511 221.69 174.52C221.477 174.526 221.269 174.459 221.1 174.33L221 175L219.78 175.62V168.12L221.14 167.44V170.13C221.292 169.873 221.477 169.638 221.69 169.43C221.911 169.216 222.164 169.037 222.44 168.9C222.721 168.749 223.032 168.664 223.35 168.65C223.585 168.643 223.813 168.725 223.99 168.88C224.185 169.054 224.321 169.285 224.38 169.54C224.472 169.865 224.516 170.202 224.51 170.54L224.55 170.62ZM223.19 171.2C223.206 171.004 223.206 170.806 223.19 170.61C223.163 170.46 223.105 170.316 223.02 170.19C222.981 170.138 222.931 170.096 222.874 170.065C222.817 170.034 222.755 170.015 222.69 170.01C222.511 170.003 222.334 170.048 222.18 170.14C221.947 170.245 221.742 170.402 221.58 170.6C221.421 170.777 221.298 170.985 221.22 171.21V173.31C221.257 173.376 221.309 173.433 221.371 173.476C221.434 173.52 221.505 173.548 221.58 173.56C221.794 173.577 222.008 173.524 222.19 173.41C222.378 173.314 222.551 173.189 222.7 173.04C222.833 172.891 222.941 172.723 223.02 172.54C223.099 172.354 223.156 172.159 223.19 171.96C223.206 171.74 223.206 171.52 223.19 171.3V171.2ZM228.36 171.4C228.014 171.584 227.638 171.706 227.25 171.76C226.958 171.796 226.661 171.755 226.39 171.64C226.15 171.529 225.956 171.338 225.84 171.1C225.703 170.82 225.637 170.511 225.65 170.2V170C225.649 169.589 225.713 169.181 225.84 168.79C225.972 168.397 226.15 168.021 226.37 167.67C226.596 167.303 226.868 166.967 227.18 166.67C227.48 166.389 227.816 166.151 228.18 165.96C228.49 165.792 228.83 165.683 229.18 165.64C229.443 165.607 229.709 165.66 229.94 165.79C230.16 165.927 230.326 166.135 230.41 166.38C230.53 166.699 230.584 167.039 230.57 167.38V168L226.99 169.8C227.008 169.948 227.063 170.089 227.15 170.21C227.226 170.313 227.33 170.393 227.45 170.44C227.592 170.471 227.738 170.471 227.88 170.44C228.062 170.407 228.237 170.346 228.4 170.26C228.54 170.191 228.674 170.111 228.8 170.02C228.93 169.928 229.054 169.828 229.17 169.72C229.296 169.612 229.41 169.492 229.51 169.36C229.618 169.237 229.712 169.103 229.79 168.96L230.46 169.36C230.367 169.54 230.256 169.711 230.13 169.87C229.991 170.067 229.833 170.251 229.66 170.42C229.464 170.609 229.257 170.786 229.04 170.95C228.826 171.118 228.598 171.268 228.36 171.4V171.4ZM228.19 167.1C228.04 167.181 227.899 167.279 227.77 167.39C227.647 167.512 227.536 167.646 227.44 167.79C227.34 167.939 227.26 168.101 227.2 168.27C227.13 168.447 227.08 168.632 227.05 168.82L229.28 167.7V167.6C229.274 167.472 229.243 167.346 229.19 167.23C229.154 167.134 229.082 167.055 228.99 167.01C228.88 166.974 228.76 166.974 228.65 167.01C228.493 167.015 228.338 167.045 228.19 167.1V167.1ZM235.59 162.3C235.774 162.207 235.965 162.126 236.16 162.06C236.297 162.009 236.437 161.969 236.58 161.94L236.38 163.39L235.83 163.57C235.645 163.638 235.464 163.718 235.29 163.81C234.944 163.972 234.634 164.204 234.38 164.49C234.152 164.747 233.976 165.046 233.86 165.37V168.55L232.51 169.23V163.94L233.77 163.31L233.83 164.14C234.044 163.746 234.306 163.379 234.61 163.05C234.889 162.743 235.221 162.489 235.59 162.3V162.3ZM240.29 158.76V160.05L242.29 159.05V160.05L240.29 161.05V163.32C240.285 163.472 240.305 163.624 240.35 163.77C240.366 163.816 240.391 163.858 240.423 163.894C240.456 163.93 240.496 163.96 240.54 163.98C240.633 164.016 240.737 164.016 240.83 163.98C240.966 163.949 241.098 163.898 241.22 163.83L241.54 163.66L241.85 163.47L242.13 163.28L242.36 163.12L242.49 163.99L242.15 164.3L241.75 164.6C241.605 164.701 241.455 164.795 241.3 164.88C241.15 164.98 241 165.06 240.85 165.14C240.598 165.264 240.333 165.358 240.06 165.42C239.855 165.464 239.642 165.443 239.45 165.36C239.273 165.272 239.134 165.123 239.06 164.94C238.961 164.675 238.917 164.392 238.93 164.11V161.71L237.72 162.31V161.31L238.93 160.71V159.42L240.29 158.76ZM247.2 160.42C247.221 160.358 247.221 160.291 247.2 160.23C247.143 160.186 247.072 160.161 247 160.16C246.87 160.148 246.74 160.148 246.61 160.16C246.45 160.16 246.25 160.25 246.01 160.33C245.732 160.416 245.448 160.48 245.16 160.52C244.945 160.561 244.725 160.561 244.51 160.52C244.343 160.492 244.191 160.407 244.08 160.28C243.967 160.131 243.91 159.947 243.92 159.76C243.928 159.518 243.983 159.281 244.08 159.06C244.193 158.789 244.344 158.537 244.53 158.31C244.738 158.046 244.977 157.808 245.24 157.6C245.534 157.363 245.853 157.159 246.19 156.99C246.507 156.829 246.843 156.708 247.19 156.63C247.437 156.576 247.693 156.576 247.94 156.63C248.127 156.671 248.292 156.782 248.4 156.94C248.514 157.115 248.57 157.321 248.56 157.53L247.21 158.21C247.217 158.126 247.197 158.043 247.151 157.972C247.106 157.902 247.039 157.848 246.96 157.82C246.695 157.785 246.425 157.845 246.2 157.99C245.928 158.119 245.684 158.299 245.48 158.52C245.342 158.668 245.258 158.858 245.24 159.06C245.223 159.125 245.223 159.194 245.24 159.26C245.261 159.288 245.288 159.311 245.319 159.327C245.35 159.342 245.385 159.35 245.42 159.35C245.529 159.368 245.641 159.368 245.75 159.35C245.937 159.31 246.121 159.257 246.3 159.19C246.592 159.09 246.889 159.006 247.19 158.94C247.426 158.907 247.665 158.907 247.9 158.94C248.078 158.959 248.242 159.045 248.36 159.18C248.487 159.341 248.548 159.545 248.53 159.75C248.53 160.003 248.472 160.253 248.36 160.48C248.241 160.752 248.083 161.004 247.89 161.23C247.667 161.494 247.416 161.732 247.14 161.94C246.827 162.175 246.492 162.38 246.14 162.55C245.809 162.73 245.451 162.855 245.08 162.92C244.83 162.977 244.57 162.977 244.32 162.92C244.129 162.863 243.964 162.743 243.85 162.58C243.742 162.413 243.687 162.218 243.69 162.02L244.99 161.37C244.992 161.482 245.031 161.591 245.1 161.68C245.173 161.751 245.268 161.794 245.37 161.8C245.492 161.823 245.618 161.823 245.74 161.8C245.886 161.759 246.027 161.702 246.16 161.63C246.446 161.496 246.707 161.313 246.93 161.09C247.022 161.005 247.094 160.901 247.141 160.785C247.187 160.669 247.208 160.545 247.2 160.42ZM207.71 197.64V190.53L209.55 189.61C209.947 189.394 210.381 189.258 210.83 189.21C211.174 189.167 211.523 189.23 211.83 189.39C212.115 189.552 212.338 189.806 212.46 190.11C212.623 190.488 212.702 190.898 212.69 191.31V191.9C212.687 192.385 212.609 192.868 212.46 193.33C212.318 193.804 212.109 194.255 211.84 194.67C211.555 195.093 211.22 195.479 210.84 195.82C210.473 196.168 210.054 196.458 209.6 196.68L207.71 197.64ZM209.09 190.95V195.84L209.62 195.58C209.875 195.455 210.108 195.29 210.31 195.09C210.516 194.886 210.691 194.654 210.83 194.4C210.977 194.137 211.084 193.854 211.15 193.56C211.232 193.233 211.269 192.897 211.26 192.56V192C211.269 191.726 211.232 191.452 211.15 191.19C211.098 190.991 210.987 190.813 210.83 190.68C210.678 190.558 210.485 190.497 210.29 190.51C210.031 190.523 209.778 190.595 209.55 190.72L209.09 190.95ZM217.58 187.31C217.766 187.22 217.956 187.14 218.15 187.07L218.57 186.95L218.37 188.4L217.82 188.58C217.64 188.66 217.46 188.73 217.29 188.82C216.942 188.98 216.632 189.211 216.38 189.5C216.149 189.755 215.972 190.054 215.86 190.38V193.56L214.5 194.24V189L215.77 188.37L215.83 189.2C216.037 188.804 216.296 188.437 216.6 188.11C216.877 187.788 217.209 187.517 217.58 187.31V187.31ZM223.09 189.94C223.056 189.884 223.029 189.823 223.01 189.76L222.95 189.52C222.871 189.645 222.784 189.765 222.69 189.88C222.59 190 222.49 190.11 222.37 190.23C222.245 190.347 222.111 190.454 221.97 190.55C221.825 190.657 221.671 190.751 221.51 190.83C221.277 190.95 221.028 191.035 220.77 191.08C220.577 191.132 220.373 191.132 220.18 191.08C220.021 191.024 219.887 190.914 219.8 190.77C219.702 190.596 219.654 190.399 219.66 190.2C219.674 189.609 219.897 189.042 220.29 188.6C220.802 188.014 221.432 187.543 222.14 187.22L222.9 186.84V186.52C222.9 186.27 222.82 186.11 222.65 186.05C222.402 186.001 222.145 186.047 221.93 186.18C221.695 186.291 221.49 186.455 221.33 186.66C221.208 186.829 221.141 187.031 221.14 187.24L219.78 187.91C219.785 187.666 219.836 187.425 219.93 187.2C220.039 186.932 220.183 186.679 220.36 186.45C220.565 186.187 220.8 185.948 221.06 185.74C221.353 185.501 221.671 185.297 222.01 185.13C222.292 184.983 222.591 184.872 222.9 184.8C223.133 184.745 223.377 184.745 223.61 184.8C223.807 184.848 223.979 184.97 224.09 185.14C224.212 185.36 224.27 185.609 224.26 185.86V188.13C224.257 188.358 224.274 188.585 224.31 188.81C224.34 188.952 224.394 189.087 224.47 189.21V189.29L223.09 189.94ZM221.8 189.63C221.937 189.567 222.064 189.486 222.18 189.39C222.293 189.304 222.4 189.211 222.5 189.11C222.586 189.015 222.666 188.915 222.74 188.81C222.8 188.721 222.854 188.627 222.9 188.53V187.62L222.21 187.96C222.02 188.056 221.839 188.17 221.67 188.3C221.531 188.398 221.406 188.516 221.3 188.65C221.213 188.763 221.142 188.887 221.09 189.02C221.043 189.138 221.02 189.263 221.02 189.39C221.013 189.462 221.027 189.534 221.061 189.598C221.095 189.662 221.147 189.715 221.21 189.75C221.415 189.788 221.626 189.745 221.8 189.63V189.63ZM227.8 185.41L227.18 186.29V187.9L225.83 188.58V181.08L227.18 180.4V184.69L227.59 184.01L229.05 181.68L230.68 180.87L228.68 184.06L230.95 186.01L229.29 186.84L227.8 185.41ZM234.38 184.41C234.034 184.592 233.658 184.711 233.27 184.76C232.979 184.804 232.681 184.765 232.41 184.65C232.172 184.535 231.979 184.345 231.86 184.11C231.73 183.828 231.665 183.52 231.67 183.21V183C231.674 182.593 231.738 182.188 231.86 181.8C231.991 181.404 232.169 181.024 232.39 180.67C232.619 180.302 232.895 179.966 233.21 179.67C233.506 179.385 233.843 179.146 234.21 178.96C234.52 178.788 234.859 178.676 235.21 178.63C235.474 178.6 235.74 178.657 235.97 178.79C236.187 178.926 236.352 179.13 236.44 179.37C236.558 179.69 236.612 180.029 236.6 180.37V181L233 182.76C233.014 182.909 233.069 183.051 233.16 183.17C233.236 183.276 233.34 183.359 233.46 183.41C233.602 183.441 233.748 183.441 233.89 183.41C234.071 183.381 234.247 183.323 234.41 183.24C234.548 183.167 234.681 183.087 234.81 183C234.943 182.909 235.07 182.808 235.19 182.7C235.31 182.59 235.421 182.469 235.52 182.34C235.626 182.216 235.719 182.082 235.8 181.94L236.48 182.33C236.38 182.509 236.27 182.683 236.15 182.85C236.002 183.043 235.841 183.227 235.67 183.4C235.474 183.586 235.267 183.76 235.05 183.92C234.836 184.102 234.605 184.262 234.36 184.4L234.38 184.41ZM234.22 180.11C234.065 180.183 233.923 180.281 233.8 180.4C233.671 180.519 233.557 180.653 233.46 180.8C233.36 180.949 233.28 181.111 233.22 181.28C233.154 181.455 233.103 181.636 233.07 181.82L235.3 180.71V180.6C235.296 180.476 235.269 180.354 235.22 180.24C235.178 180.136 235.1 180.051 235 180C234.892 179.956 234.776 179.939 234.66 179.95C234.498 179.968 234.341 180.019 234.2 180.1L234.22 180.11ZM209.44 205.68L210.12 208.01L210.88 204.96L212.59 204.11V211.22L211.33 211.85V209.74L211.39 206.39L210.45 209.94L209.78 210.28L208.94 207.74L209 210.91V213L207.74 213.63V206.52L209.44 205.68ZM213.6 208C213.602 207.61 213.659 207.223 213.77 206.85C213.879 206.461 214.044 206.091 214.26 205.75C214.471 205.381 214.733 205.044 215.04 204.75C215.352 204.456 215.706 204.21 216.09 204.02C216.418 203.841 216.778 203.729 217.15 203.69C217.426 203.667 217.702 203.73 217.94 203.87C218.161 204.017 218.329 204.23 218.42 204.48C218.542 204.799 218.599 205.139 218.59 205.48V205.58C218.588 205.973 218.531 206.363 218.42 206.74C218.249 207.339 217.954 207.897 217.554 208.375C217.155 208.854 216.659 209.244 216.1 209.52C215.772 209.7 215.412 209.812 215.04 209.85C214.769 209.877 214.495 209.818 214.26 209.68C214.036 209.534 213.864 209.32 213.77 209.07C213.649 208.751 213.591 208.411 213.6 208.07V208ZM214.96 207.42C214.958 207.618 214.978 207.816 215.02 208.01C215.054 208.16 215.123 208.3 215.22 208.42C215.314 208.518 215.444 208.576 215.58 208.58C215.762 208.585 215.942 208.54 216.1 208.45C216.293 208.352 216.468 208.224 216.62 208.07C216.76 207.914 216.878 207.739 216.97 207.55C217.06 207.356 217.124 207.151 217.16 206.94C217.209 206.727 217.232 206.509 217.23 206.29V206.18C217.233 205.984 217.21 205.789 217.16 205.6C217.132 205.453 217.066 205.315 216.97 205.2C216.881 205.096 216.756 205.032 216.62 205.02C216.434 205.021 216.252 205.069 216.09 205.16C215.899 205.255 215.726 205.384 215.58 205.54C215.436 205.699 215.315 205.878 215.22 206.07C215.132 206.262 215.065 206.463 215.02 206.67C214.98 206.884 214.96 207.102 214.96 207.32V207.42ZM223.58 200.31C223.766 200.22 223.956 200.14 224.15 200.07C224.29 200.02 224.434 199.98 224.58 199.95L224.38 201.4C224.2 201.4 224.01 201.51 223.83 201.58C223.645 201.648 223.464 201.728 223.29 201.82C222.947 201.984 222.638 202.211 222.38 202.49C222.149 202.749 221.972 203.051 221.86 203.38V206.55L220.5 207.23V202L221.77 201.37L221.83 202.2C222.038 201.804 222.297 201.438 222.6 201.11C222.877 200.788 223.209 200.517 223.58 200.31V200.31ZM225.66 201.97C225.661 201.576 225.708 201.183 225.8 200.8C225.9 200.427 226.044 200.068 226.23 199.73C226.416 199.404 226.645 199.105 226.91 198.84C227.172 198.582 227.472 198.366 227.8 198.2C228.045 198.068 228.313 197.987 228.59 197.96C228.793 197.947 228.994 198.003 229.16 198.12L229.21 197.59L230.45 196.97V202.08C230.445 202.421 230.384 202.759 230.27 203.08C230.147 203.437 229.972 203.774 229.75 204.08C229.524 204.39 229.258 204.669 228.96 204.91C228.652 205.166 228.316 205.387 227.96 205.57C227.793 205.654 227.619 205.724 227.44 205.78C227.265 205.839 227.084 205.879 226.9 205.9C226.731 205.925 226.559 205.925 226.39 205.9C226.242 205.877 226.101 205.818 225.98 205.73L226.59 204.6C226.768 204.705 226.973 204.757 227.18 204.75C227.428 204.735 227.67 204.667 227.89 204.55C228.245 204.378 228.551 204.121 228.78 203.8C228.984 203.506 229.096 203.158 229.1 202.8V202.5C228.939 202.749 228.751 202.981 228.54 203.19C228.318 203.396 228.069 203.571 227.8 203.71C227.525 203.855 227.221 203.937 226.91 203.95C226.668 203.948 226.432 203.868 226.24 203.72C226.04 203.555 225.89 203.337 225.81 203.09C225.711 202.766 225.664 202.428 225.67 202.09L225.66 201.97ZM227.02 201.4C227.018 201.595 227.038 201.79 227.08 201.98C227.115 202.129 227.187 202.267 227.29 202.38C227.379 202.474 227.501 202.531 227.63 202.54C227.805 202.541 227.978 202.496 228.13 202.41C228.351 202.304 228.551 202.158 228.72 201.98C228.873 201.811 228.998 201.618 229.09 201.41V199.18C229.047 199.121 228.992 199.073 228.928 199.038C228.864 199.004 228.793 198.984 228.72 198.98C228.517 198.98 228.318 199.032 228.14 199.13C227.951 199.224 227.782 199.353 227.64 199.51C227.499 199.665 227.381 199.84 227.29 200.03C227.197 200.223 227.129 200.429 227.09 200.64C227.041 200.853 227.018 201.071 227.02 201.29V201.4ZM235.09 199.93C235.056 199.874 235.029 199.813 235.01 199.75L234.95 199.51C234.873 199.637 234.786 199.757 234.69 199.87C234.594 199.996 234.487 200.113 234.37 200.22C234.247 200.334 234.116 200.441 233.98 200.54C233.831 200.645 233.673 200.738 233.51 200.82C233.278 200.943 233.028 201.031 232.77 201.08C232.576 201.127 232.374 201.127 232.18 201.08C232.021 201.024 231.887 200.914 231.8 200.77C231.706 200.599 231.661 200.405 231.67 200.21C231.68 199.617 231.9 199.046 232.29 198.6C232.804 198.011 233.438 197.541 234.15 197.22L234.9 196.84V196.53C234.9 196.27 234.82 196.11 234.65 196.05C234.528 196.022 234.402 196.02 234.28 196.044C234.158 196.069 234.042 196.118 233.94 196.19C233.697 196.291 233.486 196.457 233.33 196.67C233.21 196.836 233.143 197.035 233.14 197.24L231.78 197.92C231.785 197.673 231.836 197.429 231.93 197.2C232.043 196.931 232.191 196.679 232.37 196.45C232.577 196.189 232.812 195.951 233.07 195.74C233.357 195.499 233.673 195.294 234.01 195.13C234.292 194.984 234.591 194.874 234.9 194.8C235.137 194.75 235.383 194.75 235.62 194.8C235.816 194.852 235.984 194.977 236.09 195.15C236.214 195.369 236.273 195.619 236.26 195.87V198.13C236.257 198.358 236.274 198.585 236.31 198.81C236.338 198.952 236.392 199.088 236.47 199.21V199.29L235.09 199.93ZM233.8 199.63C233.934 199.562 234.061 199.481 234.18 199.39C234.294 199.301 234.4 199.204 234.5 199.1C234.586 199.005 234.666 198.905 234.74 198.8C234.802 198.712 234.856 198.618 234.9 198.52V197.61L234.21 197.96C234.018 198.049 233.837 198.16 233.67 198.29C233.533 198.391 233.409 198.508 233.3 198.64C233.215 198.754 233.145 198.878 233.09 199.01C233.048 199.129 233.025 199.254 233.02 199.38C233.013 199.453 233.028 199.527 233.063 199.591C233.099 199.656 233.154 199.708 233.22 199.74C233.319 199.761 233.421 199.762 233.521 199.743C233.621 199.724 233.715 199.685 233.8 199.63V199.63ZM239.02 192.68L239.11 193.37C239.293 193.006 239.525 192.67 239.8 192.37C240.058 192.098 240.363 191.875 240.7 191.71C240.927 191.584 241.174 191.499 241.43 191.46C241.624 191.43 241.822 191.458 242 191.54C242.177 191.653 242.31 191.822 242.38 192.02C242.48 192.312 242.524 192.621 242.51 192.93V196.18L241.15 196.86V193.63C241.159 193.467 241.135 193.304 241.08 193.15C241.066 193.1 241.04 193.055 241.005 193.017C240.971 192.979 240.928 192.949 240.88 192.93C240.776 192.894 240.664 192.894 240.56 192.93C240.414 192.972 240.274 193.029 240.14 193.1C239.92 193.208 239.72 193.354 239.55 193.53C239.393 193.704 239.262 193.899 239.16 194.11V197.87L237.79 198.55V193.3L239.02 192.68ZM212.11 224.32L209.19 225.78V227.78L212.61 226.07V227.18L207.82 229.57V222.46L212.59 220.07V221.19L209.19 222.89V224.68L212.11 223.22V224.32ZM217.11 224.94C217.076 224.884 217.049 224.823 217.03 224.76C216.998 224.683 216.978 224.602 216.97 224.52C216.89 224.645 216.803 224.765 216.71 224.88C216.61 225 216.5 225.12 216.39 225.23C216.265 225.347 216.131 225.454 215.99 225.55C215.846 225.658 215.692 225.752 215.53 225.83C215.295 225.955 215.042 226.042 214.78 226.09C214.59 226.137 214.39 226.137 214.2 226.09C214.041 226.034 213.907 225.924 213.82 225.78C213.722 225.61 213.674 225.416 213.68 225.22C213.694 224.626 213.917 224.056 214.31 223.61C214.822 223.024 215.452 222.553 216.16 222.23L216.92 221.85V221.54C216.92 221.28 216.84 221.12 216.67 221.06C216.547 221.032 216.419 221.03 216.295 221.054C216.171 221.078 216.054 221.128 215.95 221.2C215.712 221.305 215.505 221.47 215.35 221.68C215.23 221.846 215.163 222.045 215.16 222.25L213.8 222.93C213.805 222.683 213.856 222.439 213.95 222.21C214.059 221.942 214.203 221.689 214.38 221.46C214.59 221.201 214.824 220.963 215.08 220.75C215.373 220.511 215.691 220.307 216.03 220.14C216.31 219.991 216.61 219.884 216.92 219.82C217.154 219.766 217.396 219.766 217.63 219.82C217.827 219.874 217.998 219.999 218.11 220.17C218.234 220.389 218.293 220.639 218.28 220.89V223.15C218.272 223.378 218.289 223.606 218.33 223.83C218.358 223.972 218.412 224.108 218.49 224.23V224.31L217.11 224.94ZM215.82 224.64C215.953 224.569 216.08 224.489 216.2 224.4C216.31 224.311 216.414 224.214 216.51 224.11C216.602 224.017 216.686 223.917 216.76 223.81C216.822 223.722 216.876 223.628 216.92 223.53V222.62L216.23 222.97C216.035 223.059 215.85 223.17 215.68 223.3C215.546 223.401 215.425 223.519 215.32 223.65C215.23 223.761 215.159 223.886 215.11 224.02C215.063 224.138 215.04 224.263 215.04 224.39C215.03 224.462 215.043 224.536 215.077 224.6C215.111 224.665 215.165 224.717 215.23 224.75C215.427 224.788 215.631 224.749 215.8 224.64H215.82ZM223.22 220.43C223.223 220.397 223.219 220.365 223.209 220.334C223.198 220.303 223.182 220.274 223.16 220.25C223.134 220.224 223.102 220.205 223.068 220.193C223.033 220.181 222.996 220.176 222.96 220.18C222.834 220.158 222.706 220.158 222.58 220.18C222.42 220.18 222.22 220.27 221.97 220.34C221.696 220.428 221.415 220.495 221.13 220.54C220.912 220.576 220.688 220.576 220.47 220.54C220.305 220.507 220.155 220.423 220.04 220.3C219.933 220.149 219.88 219.965 219.89 219.78C219.894 219.535 219.948 219.293 220.05 219.07C220.16 218.803 220.309 218.554 220.49 218.33C220.704 218.066 220.946 217.824 221.21 217.61C221.501 217.377 221.816 217.176 222.15 217.01C222.465 216.841 222.801 216.717 223.15 216.64C223.394 216.586 223.646 216.586 223.89 216.64C224.078 216.685 224.245 216.794 224.36 216.95C224.471 217.13 224.527 217.338 224.52 217.55L223.16 218.23C223.173 218.146 223.155 218.059 223.109 217.988C223.063 217.916 222.992 217.863 222.91 217.84C222.644 217.8 222.373 217.861 222.15 218.01C221.879 218.136 221.638 218.316 221.44 218.54C221.299 218.686 221.214 218.877 221.2 219.08C221.179 219.141 221.179 219.208 221.2 219.27C221.241 219.324 221.302 219.36 221.37 219.37C221.483 219.387 221.597 219.387 221.71 219.37C221.896 219.328 222.08 219.274 222.26 219.21C222.547 219.107 222.841 219.027 223.14 218.97C223.375 218.928 223.615 218.928 223.85 218.97C224.028 218.99 224.195 219.071 224.32 219.2C224.444 219.367 224.504 219.572 224.49 219.78C224.484 220.032 224.426 220.281 224.32 220.51C224.196 220.781 224.035 221.034 223.84 221.26C223.612 221.519 223.361 221.756 223.09 221.97C222.776 222.204 222.442 222.408 222.09 222.58C221.776 222.75 221.439 222.874 221.09 222.95C220.837 223.012 220.573 223.012 220.32 222.95C220.128 222.901 219.963 222.779 219.86 222.61C219.752 222.443 219.697 222.248 219.7 222.05L220.99 221.4C220.988 221.515 221.031 221.626 221.11 221.71C221.18 221.779 221.272 221.822 221.37 221.83C221.492 221.853 221.618 221.853 221.74 221.83C221.888 221.785 222.031 221.728 222.17 221.66C222.457 221.524 222.718 221.337 222.94 221.11C223.03 221.022 223.1 220.916 223.145 220.798C223.189 220.681 223.208 220.555 223.2 220.43H223.22ZM228.3 212.76V214.06L230.3 213.06V214.06L228.3 215.06V217.33C228.292 217.483 228.316 217.636 228.37 217.78C228.384 217.827 228.408 217.87 228.441 217.906C228.474 217.943 228.515 217.971 228.56 217.99C228.654 218.021 228.756 218.021 228.85 217.99C228.985 217.954 229.116 217.904 229.24 217.84L229.56 217.67L229.87 217.47L230.15 217.29L230.37 217.13L230.5 217.99C230.4 218.106 230.289 218.213 230.17 218.31L229.77 218.61L229.32 218.89C229.171 218.981 229.017 219.064 228.86 219.14C228.616 219.272 228.353 219.366 228.08 219.42C227.876 219.467 227.663 219.45 227.47 219.37C227.293 219.282 227.154 219.133 227.08 218.95C226.982 218.685 226.938 218.402 226.95 218.12V215.72L225.74 216.32V215.32L226.95 214.72V213.42L228.3 212.76ZM231.63 214.99C231.628 214.601 231.682 214.214 231.79 213.84C231.903 213.453 232.068 213.083 232.28 212.74C232.719 212.012 233.358 211.425 234.12 211.05C234.448 210.871 234.808 210.759 235.18 210.72C235.453 210.696 235.726 210.759 235.96 210.9C236.184 211.046 236.356 211.26 236.45 211.51C236.568 211.83 236.622 212.169 236.61 212.51V212.61C236.612 213.002 236.558 213.393 236.45 213.77C236.341 214.155 236.176 214.522 235.96 214.86C235.749 215.229 235.487 215.566 235.18 215.86C234.881 216.147 234.545 216.393 234.18 216.59C233.852 216.769 233.492 216.881 233.12 216.92C232.85 216.956 232.575 216.899 232.342 216.757C232.109 216.615 231.932 216.397 231.84 216.14C231.723 215.82 231.669 215.48 231.68 215.14L231.63 214.99ZM232.98 214.41C232.981 214.609 233.004 214.807 233.05 215C233.082 215.151 233.15 215.292 233.25 215.41C233.295 215.458 233.349 215.497 233.409 215.525C233.469 215.552 233.534 215.568 233.6 215.57C233.785 215.577 233.969 215.532 234.13 215.44C234.321 215.345 234.494 215.216 234.64 215.06C234.78 214.904 234.898 214.729 234.99 214.54C235.078 214.344 235.145 214.14 235.19 213.93C235.23 213.715 235.25 213.498 235.25 213.28V213.17C235.251 212.975 235.231 212.78 235.19 212.59C235.154 212.443 235.086 212.306 234.99 212.19C234.901 212.086 234.776 212.022 234.64 212.01C234.457 212.008 234.277 212.057 234.12 212.15C233.926 212.245 233.75 212.374 233.6 212.53C233.46 212.69 233.342 212.868 233.25 213.06C233.158 213.251 233.091 213.452 233.05 213.66C233.007 213.874 232.984 214.092 232.98 214.31V214.41ZM239.04 208.68L239.13 209.37C239.313 209.006 239.545 208.67 239.82 208.37C240.078 208.098 240.383 207.875 240.72 207.71C240.947 207.584 241.194 207.499 241.45 207.46C241.644 207.43 241.842 207.458 242.02 207.54C242.197 207.653 242.33 207.822 242.4 208.02C242.5 208.312 242.544 208.621 242.53 208.93V212.18L241.17 212.86V209.63C241.179 209.467 241.155 209.304 241.1 209.15C241.086 209.1 241.06 209.055 241.025 209.017C240.991 208.979 240.948 208.949 240.9 208.93C240.796 208.894 240.684 208.894 240.58 208.93C240.434 208.972 240.294 209.029 240.16 209.1C239.94 209.208 239.74 209.354 239.57 209.53C239.413 209.704 239.282 209.899 239.18 210.11V213.87L237.81 214.55V209.3L239.04 208.68ZM213 237L210.81 238.09V244.09L209.43 244.78V238.78L207.27 239.86V238.75L213 235.9V237ZM216.39 241.39C216.045 241.574 215.669 241.693 215.28 241.74C214.992 241.784 214.697 241.746 214.43 241.63C214.19 241.519 213.996 241.328 213.88 241.09C213.745 240.81 213.68 240.501 213.69 240.19V240C213.69 239.592 213.754 239.187 213.88 238.8C214.009 238.403 214.187 238.023 214.41 237.67C214.638 237.305 214.91 236.969 215.22 236.67C215.516 236.385 215.853 236.146 216.22 235.96C216.531 235.792 216.87 235.68 217.22 235.63C217.484 235.6 217.75 235.657 217.98 235.79C218.194 235.928 218.359 236.131 218.45 236.37C218.563 236.691 218.617 237.03 218.61 237.37V238L215 239.77C215.021 239.92 215.076 240.064 215.16 240.19C215.24 240.293 215.348 240.373 215.47 240.42C215.608 240.45 215.752 240.45 215.89 240.42C216.074 240.391 216.253 240.334 216.42 240.25L216.81 240.01C216.945 239.921 217.072 239.821 217.19 239.71C217.31 239.59 217.42 239.48 217.53 239.35C217.629 239.223 217.719 239.089 217.8 238.95L218.48 239.34C218.387 239.524 218.277 239.698 218.15 239.86C218.007 240.058 217.847 240.242 217.67 240.41C217.478 240.596 217.274 240.769 217.06 240.93C216.839 241.112 216.602 241.273 216.35 241.41L216.39 241.39ZM216.23 237.09C216.078 237.168 215.937 237.266 215.81 237.38C215.681 237.497 215.57 237.631 215.48 237.78C215.38 237.929 215.3 238.091 215.24 238.26C215.169 238.433 215.119 238.615 215.09 238.8L217.32 237.69V237.58C217.313 237.455 217.282 237.333 217.23 237.22C217.178 237.124 217.098 237.047 217 237C216.892 236.973 216.778 236.973 216.67 237C216.504 237.004 216.341 237.041 216.19 237.11L216.23 237.09ZM223.13 237.92C223.096 237.864 223.069 237.803 223.05 237.74L222.99 237.5C222.911 237.625 222.824 237.745 222.73 237.86C222.63 237.98 222.53 238.09 222.41 238.21C222.285 238.327 222.151 238.434 222.01 238.53C221.865 238.637 221.711 238.731 221.55 238.81C221.317 238.93 221.068 239.015 220.81 239.06C220.617 239.112 220.413 239.112 220.22 239.06C220.061 239.004 219.927 238.894 219.84 238.75C219.742 238.576 219.694 238.379 219.7 238.18C219.714 237.589 219.937 237.022 220.33 236.58C220.842 235.994 221.472 235.523 222.18 235.2L222.94 234.82V234.5C222.94 234.25 222.86 234.09 222.69 234.03C222.442 233.981 222.185 234.027 221.97 234.16C221.735 234.271 221.53 234.435 221.37 234.64C221.248 234.809 221.181 235.011 221.18 235.22L219.82 235.89C219.825 235.646 219.876 235.405 219.97 235.18C220.079 234.912 220.223 234.659 220.4 234.43C220.605 234.167 220.84 233.928 221.1 233.72C221.393 233.481 221.711 233.277 222.05 233.11C222.332 232.963 222.631 232.852 222.94 232.78C223.173 232.725 223.417 232.725 223.65 232.78C223.847 232.828 224.019 232.95 224.13 233.12C224.252 233.34 224.31 233.589 224.3 233.84V236.11C224.297 236.338 224.314 236.565 224.35 236.79C224.38 236.932 224.434 237.067 224.51 237.19V237.27L223.13 237.92ZM221.84 237.61C221.977 237.547 222.104 237.466 222.22 237.37C222.333 237.284 222.44 237.191 222.54 237.09C222.626 236.995 222.706 236.895 222.78 236.79C222.84 236.701 222.894 236.607 222.94 236.51V235.6L222.25 235.94C222.06 236.036 221.879 236.15 221.71 236.28C221.571 236.378 221.446 236.496 221.34 236.63C221.253 236.743 221.182 236.867 221.13 237C221.083 237.118 221.06 237.243 221.06 237.37C221.053 237.442 221.067 237.514 221.101 237.578C221.135 237.642 221.187 237.695 221.25 237.73C221.439 237.764 221.635 237.728 221.8 237.63L221.84 237.61ZM228.17 234.41C228.305 234.34 228.432 234.256 228.55 234.16C228.666 234.063 228.774 233.956 228.87 233.84C228.957 233.727 229.028 233.602 229.08 233.47C229.127 233.352 229.15 233.227 229.15 233.1L230.43 232.46C230.429 232.752 230.371 233.04 230.26 233.31C230.133 233.613 229.969 233.898 229.77 234.16C229.563 234.436 229.324 234.688 229.06 234.91C228.796 235.139 228.503 235.334 228.19 235.49C227.858 235.669 227.495 235.781 227.12 235.82C226.847 235.849 226.573 235.785 226.34 235.64C226.125 235.485 225.961 235.269 225.87 235.02C225.755 234.699 225.701 234.36 225.71 234.02V233.88C225.713 233.501 225.767 233.124 225.87 232.76C225.978 232.378 226.136 232.011 226.34 231.67C226.556 231.307 226.815 230.971 227.11 230.67C227.431 230.371 227.795 230.121 228.19 229.93C228.472 229.779 228.775 229.675 229.09 229.62C229.328 229.576 229.573 229.597 229.8 229.68C230.003 229.752 230.171 229.899 230.27 230.09C230.388 230.329 230.443 230.594 230.43 230.86L229.15 231.5C229.154 231.384 229.134 231.268 229.09 231.16C229.051 231.068 228.98 230.993 228.89 230.95C228.785 230.923 228.675 230.923 228.57 230.95C228.429 230.964 228.293 231.009 228.17 231.08C227.964 231.173 227.779 231.31 227.63 231.48C227.493 231.631 227.381 231.803 227.3 231.99C227.22 232.18 227.16 232.378 227.12 232.58C227.088 232.785 227.072 232.992 227.07 233.2V233.34C227.07 233.531 227.087 233.722 227.12 233.91C227.144 234.061 227.202 234.205 227.29 234.33C227.377 234.43 227.498 234.494 227.63 234.51C227.801 234.527 227.973 234.499 228.13 234.43L228.17 234.41ZM233.17 228.33C233.34 227.992 233.555 227.679 233.81 227.4C234.053 227.138 234.341 226.921 234.66 226.76C234.897 226.632 235.154 226.544 235.42 226.5C235.625 226.467 235.834 226.498 236.02 226.59C236.197 226.705 236.334 226.873 236.41 227.07C236.509 227.37 236.553 227.685 236.54 228V231.2L235.19 231.87V228.67C235.192 228.514 235.168 228.358 235.12 228.21C235.081 228.11 235.006 228.028 234.91 227.98C234.809 227.948 234.701 227.948 234.6 227.98C234.455 228.015 234.314 228.065 234.18 228.13C233.962 228.242 233.76 228.383 233.58 228.55C233.421 228.715 233.283 228.9 233.17 229.1V232.91L231.81 233.59V226.09L233.17 225.41V228.33ZM211.11 252.81L212.49 252.13V257.05C212.483 257.391 212.419 257.729 212.3 258.05C212.029 258.758 211.585 259.387 211.01 259.88C210.708 260.142 210.372 260.36 210.01 260.53C209.695 260.692 209.358 260.81 209.01 260.88C208.76 260.942 208.5 260.942 208.25 260.88C208.037 260.8 207.863 260.643 207.76 260.44C207.627 260.17 207.565 259.871 207.58 259.57L208.96 258.88C208.96 259.26 209.05 259.49 209.21 259.58C209.34 259.62 209.477 259.629 209.61 259.606C209.744 259.584 209.871 259.53 209.98 259.45C210.137 259.371 210.282 259.27 210.41 259.15C210.537 259.022 210.651 258.881 210.75 258.73C210.842 258.58 210.913 258.419 210.96 258.25C211.008 258.088 211.031 257.919 211.03 257.75L211.11 252.81ZM213.6 256C213.602 255.61 213.659 255.223 213.77 254.85C213.879 254.461 214.044 254.091 214.26 253.75C214.471 253.381 214.733 253.044 215.04 252.75C215.352 252.456 215.706 252.21 216.09 252.02C216.418 251.841 216.778 251.729 217.15 251.69C217.426 251.667 217.702 251.73 217.94 251.87C218.161 252.017 218.329 252.23 218.42 252.48C218.542 252.799 218.599 253.139 218.59 253.48V253.58C218.588 253.973 218.531 254.363 218.42 254.74C218.249 255.339 217.954 255.897 217.554 256.375C217.155 256.854 216.659 257.244 216.1 257.52C215.772 257.7 215.412 257.812 215.04 257.85C214.769 257.877 214.495 257.818 214.26 257.68C214.036 257.534 213.864 257.32 213.77 257.07C213.649 256.751 213.591 256.411 213.6 256.07V256ZM214.96 255.42C214.958 255.618 214.978 255.816 215.02 256.01C215.054 256.16 215.123 256.3 215.22 256.42C215.314 256.518 215.444 256.576 215.58 256.58C215.762 256.585 215.942 256.54 216.1 256.45C216.293 256.352 216.468 256.224 216.62 256.07C216.76 255.914 216.878 255.739 216.97 255.55C217.06 255.356 217.124 255.151 217.16 254.94C217.209 254.727 217.232 254.509 217.23 254.29V254.18C217.233 253.984 217.21 253.789 217.16 253.6C217.132 253.453 217.066 253.315 216.97 253.2C216.881 253.096 216.756 253.032 216.62 253.02C216.434 253.021 216.252 253.069 216.09 253.16C215.899 253.255 215.726 253.384 215.58 253.54C215.436 253.699 215.315 253.878 215.22 254.07C215.132 254.262 215.065 254.463 215.02 254.67C214.98 254.884 214.96 255.102 214.96 255.32V255.42ZM221.02 249.69L221.1 250.38C221.283 250.016 221.515 249.68 221.79 249.38C222.048 249.108 222.353 248.885 222.69 248.72C222.917 248.595 223.164 248.511 223.42 248.47C223.617 248.438 223.819 248.466 224 248.55C224.173 248.664 224.304 248.833 224.37 249.03C224.474 249.322 224.522 249.63 224.51 249.94V253.19L223.15 253.87V250.64C223.159 250.477 223.135 250.314 223.08 250.16C223.044 250.064 222.972 249.985 222.88 249.94C222.776 249.909 222.664 249.909 222.56 249.94C222.414 249.982 222.274 250.039 222.14 250.11C221.919 250.216 221.719 250.362 221.55 250.54C221.39 250.713 221.255 250.909 221.15 251.12V254.88L219.79 255.56V250.28L221.02 249.69ZM228.36 251.4C228.014 251.584 227.638 251.706 227.25 251.76C226.958 251.796 226.661 251.755 226.39 251.64C226.15 251.529 225.956 251.338 225.84 251.1C225.703 250.82 225.637 250.511 225.65 250.2V250C225.649 249.589 225.713 249.181 225.84 248.79C225.972 248.397 226.15 248.021 226.37 247.67C226.596 247.303 226.868 246.967 227.18 246.67C227.48 246.389 227.816 246.151 228.18 245.96C228.49 245.792 228.83 245.683 229.18 245.64C229.443 245.607 229.709 245.66 229.94 245.79C230.16 245.927 230.326 246.135 230.41 246.38C230.53 246.699 230.584 247.039 230.57 247.38V248L226.99 249.8C227.008 249.948 227.063 250.089 227.15 250.21C227.226 250.313 227.33 250.393 227.45 250.44C227.592 250.471 227.738 250.471 227.88 250.44C228.062 250.407 228.237 250.346 228.4 250.26C228.54 250.191 228.674 250.111 228.8 250.02C228.93 249.928 229.054 249.828 229.17 249.72C229.296 249.612 229.41 249.492 229.51 249.36C229.618 249.237 229.712 249.103 229.79 248.96L230.46 249.36C230.367 249.54 230.256 249.711 230.13 249.87C229.991 250.067 229.833 250.251 229.66 250.42C229.464 250.609 229.257 250.786 229.04 250.95C228.826 251.118 228.598 251.268 228.36 251.4V251.4ZM228.19 247.1C228.04 247.181 227.899 247.279 227.77 247.39C227.647 247.512 227.536 247.646 227.44 247.79C227.34 247.939 227.26 248.101 227.2 248.27C227.13 248.447 227.08 248.632 227.05 248.82L229.28 247.7V247.6C229.274 247.472 229.243 247.346 229.19 247.23C229.154 247.134 229.082 247.055 228.99 247.01C228.88 246.974 228.76 246.974 228.65 247.01C228.493 247.015 228.338 247.045 228.19 247.1V247.1ZM235.19 246.43C235.209 246.368 235.209 246.302 235.19 246.24C235.132 246.19 235.057 246.165 234.98 246.17C234.854 246.153 234.726 246.153 234.6 246.17C234.397 246.214 234.196 246.27 234 246.34C233.721 246.421 233.437 246.484 233.15 246.53C232.932 246.566 232.709 246.566 232.49 246.53C232.327 246.5 232.179 246.415 232.07 246.29C231.953 246.143 231.896 245.957 231.91 245.77C231.914 245.528 231.968 245.289 232.07 245.07C232.183 244.799 232.334 244.547 232.52 244.32C232.726 244.054 232.964 243.816 233.23 243.61C233.524 243.373 233.843 243.169 234.18 243C234.496 242.835 234.832 242.711 235.18 242.63C235.424 242.575 235.676 242.575 235.92 242.63C236.108 242.669 236.276 242.775 236.39 242.93C236.506 243.108 236.562 243.318 236.55 243.53L235.19 244.21C235.201 244.126 235.182 244.041 235.136 243.969C235.09 243.898 235.021 243.845 234.94 243.82C234.678 243.785 234.412 243.846 234.19 243.99C233.915 244.113 233.669 244.294 233.47 244.52C233.33 244.667 233.245 244.858 233.23 245.06C233.213 245.122 233.213 245.188 233.23 245.25C233.249 245.278 233.274 245.302 233.304 245.319C233.333 245.336 233.366 245.347 233.4 245.35C233.513 245.368 233.627 245.368 233.74 245.35C233.927 245.313 234.111 245.263 234.29 245.2C234.581 245.099 234.879 245.015 235.18 244.95C235.415 244.908 235.655 244.908 235.89 244.95C236.067 244.972 236.231 245.057 236.35 245.19C236.474 245.353 236.535 245.555 236.52 245.76C236.514 246.012 236.456 246.261 236.35 246.49C236.226 246.761 236.065 247.014 235.87 247.24C235.65 247.506 235.398 247.744 235.12 247.95C234.809 248.188 234.474 248.392 234.12 248.56C233.806 248.73 233.469 248.854 233.12 248.93C232.87 248.987 232.61 248.987 232.36 248.93C232.168 248.876 232.001 248.755 231.89 248.59C231.782 248.423 231.727 248.228 231.73 248.03L233.02 247.38C233.02 247.495 233.063 247.605 233.14 247.69C233.215 247.757 233.31 247.799 233.41 247.81C233.532 247.811 233.653 247.794 233.77 247.76C233.918 247.715 234.061 247.658 234.2 247.59C234.489 247.456 234.75 247.27 234.97 247.04C235.047 246.958 235.106 246.862 235.146 246.758C235.185 246.653 235.204 246.542 235.2 246.43H235.19Z" fill="#64C8FF"/>
<path opacity="0.2" d="M225 304L249 316L351 265L327 253L225 304Z" fill="#1D1D1B"/>
<path d="M327 239L303 227L315 221L339 233L327 239Z" fill="#146EB4" stroke="#64C8FF" stroke-width="2" stroke-linecap="round" stroke-linejoin="round"/>
<path d="M351 257L301 282V276L327 263V239L339 233H351V257Z" fill="#1368AB" stroke="#64C8FF" stroke-width="2" stroke-linecap="round" stroke-linejoin="round"/>
<path d="M303 251L327 263V239L303 227V251Z" fill="#1368AB" stroke="#64C8FF" stroke-width="2" stroke-linecap="round" stroke-linejoin="round"/>
<path d="M249 308L301 282V276L249 302V308Z" fill="#1368AB" stroke="#64C8FF" stroke-width="2" stroke-linecap="round" stroke-linejoin="round"/>
<path d="M225 296L249 308V302L225 290V296Z" fill="#105890" stroke="#64C8FF" stroke-width="2" stroke-linecap="round" stroke-linejoin="round"/>
<path d="M327 263L303 251L277 264L301 276L327 263Z" fill="#146EB4" stroke="#64C8FF" stroke-width="2" stroke-linecap="round" stroke-linejoin="round"/>
<path d="M301 276L277 264L225 290L249 302L301 276Z" fill="#146EB4" stroke="#64C8FF" stroke-width="2" stroke-linecap="round" stroke-linejoin="round"/>
<path d="M351 233L327 221H315L339 233H351Z" fill="#146EB4" stroke="#64C8FF" stroke-width="2" stroke-linecap="round" stroke-linejoin="round"/>
<path d="M351 244.88L343 248.88V240.88L351 236.88V244.88Z" fill="#1368AB" stroke="#64C8FF" stroke-width="2" stroke-linecap="round" stroke-linejoin="round"/>
<path d="M321 230L297 218L225 254L249 266L321 230Z" fill="#146EB4" stroke="#64C8FF" stroke-width="2" stroke-linecap="round" stroke-linejoin="round"/>
<path d="M249 266L321 230V266L249 302V266Z" fill="#1368AB" stroke="#64C8FF" stroke-width="2" stroke-linecap="round" stroke-linejoin="round"/>
<path d="M225 254L249 266V302L225 290V254Z" fill="#105890" stroke="#64C8FF" stroke-width="2" stroke-linecap="round" stroke-linejoin="round"/>
<path d="M237 260V296" stroke="#64C8FF" stroke-width="2" stroke-linecap="round" stroke-linejoin="round"/>
<path d="M241 262V298" stroke="#64C8FF" stroke-width="2" stroke-linecap="round" stroke-linejoin="round"/>
<path d="M238.5 281.5L235.5 280V274L238.5 275.5V281.5Z" fill="#1368AB" stroke="#64C8FF" stroke-width="2" stroke-linecap="round" stroke-linejoin="round"/>
<path d="M344.8 256.32C350.14 253.54 350.14 264.66 344.8 267.44C339.46 270.22 339.47 259.1 344.8 256.32ZM320.8 279.44C326.14 276.66 326.14 265.54 320.8 268.32C315.46 271.1 315.47 282.22 320.8 279.44ZM308.8 285.44C314.14 282.66 314.14 271.54 308.8 274.32C303.46 277.1 303.47 288.22 308.8 285.44ZM270.8 304.44C276.14 301.66 276.14 290.54 270.8 293.32C265.46 296.1 265.47 307.22 270.8 304.44ZM258.8 310.44C264.14 307.66 264.14 296.54 258.8 299.32C253.46 302.1 253.47 313.22 258.8 310.44Z" fill="#1368AB" stroke="#64C8FF" stroke-width="2" stroke-linecap="round" stroke-linejoin="round"/>
</svg>
