<svg width="384" height="384" viewBox="0 0 384 384" fill="none" xmlns="http://www.w3.org/2000/svg">
<path opacity="0.25" d="M228 234L48 324L54 147L234 57L228 234Z" fill="#0A3759" stroke="#64C8FF" stroke-width="2" stroke-linecap="round" stroke-linejoin="round"/>
<path opacity="0.5" d="M234 237L54 327V147L234 57V237Z" fill="#0A3759" stroke="#64C8FF" stroke-width="2" stroke-linecap="round" stroke-linejoin="round"/>
<path d="M240 240L60 330L54 147L234 57L240 240Z" fill="#0A3759" stroke="#64C8FF" stroke-width="2" stroke-linecap="round" stroke-linejoin="round"/>
<path d="M130.68 131.27L132.86 130.17V140C132.859 140.678 132.758 141.352 132.56 142C132.365 142.652 132.09 143.277 131.74 143.86C131.401 144.43 130.992 144.954 130.52 145.42C130.075 145.86 129.566 146.231 129.01 146.52C128.523 146.778 127.996 146.951 127.45 147.03C127.041 147.094 126.622 147.02 126.26 146.82C125.888 146.589 125.609 146.235 125.47 145.82C125.267 145.249 125.172 144.645 125.19 144.04L127.38 142.93C127.343 143.186 127.36 143.447 127.429 143.697C127.498 143.946 127.617 144.179 127.78 144.38C128.04 144.59 128.45 144.55 129.01 144.27C129.267 144.136 129.497 143.956 129.69 143.74C129.9 143.512 130.079 143.256 130.22 142.98C130.364 142.687 130.475 142.378 130.55 142.06C130.63 141.733 130.67 141.397 130.67 141.06L130.68 131.27Z" fill="#64C8FF"/>
<path d="M142.73 125.15V134.57C142.732 135.328 142.645 136.083 142.47 136.82C142.311 137.517 142.058 138.19 141.72 138.82C141.398 139.404 140.99 139.936 140.51 140.4C140.037 140.868 139.494 141.259 138.9 141.56C138.423 141.823 137.894 141.977 137.35 142.01C136.928 142.032 136.513 141.9 136.18 141.64C135.817 141.329 135.553 140.919 135.42 140.46C135.223 139.812 135.132 139.137 135.15 138.46V129L137.34 127.89V137.31C137.279 137.963 137.419 138.618 137.74 139.19C138 139.52 138.38 139.57 138.88 139.31C139.43 139.025 139.864 138.558 140.11 137.99C140.41 137.261 140.557 136.478 140.54 135.69V126.26L142.73 125.15Z" fill="#64C8FF"/>
<path d="M152.52 134.4L150.35 135.5L147.2 127.93V137.1L145 138.22V124L147.2 122.88L150.32 130.43V121.29L152.51 120.18L152.52 134.4Z" fill="#64C8FF"/>
<path d="M161.88 123.41L157.24 125.77V129.77L162.67 127.01V129.23L155.05 133.09V118.89L162.64 115.04V117.27L157.24 120.02V123.6L161.88 121.24V123.41Z" fill="#64C8FF"/>
<path d="M101.43 183.13L96.8 185.48V184.37L99 180.29C99.18 179.97 99.32 179.68 99.44 179.43C99.5457 179.212 99.6391 178.988 99.72 178.76C99.7889 178.592 99.8425 178.418 99.88 178.24C99.893 178.097 99.893 177.953 99.88 177.81C99.8866 177.65 99.8629 177.491 99.81 177.34C99.7793 177.228 99.7168 177.127 99.63 177.05C99.5493 176.99 99.4507 176.958 99.35 176.96C99.221 176.967 99.095 177.001 98.98 177.06C98.6385 177.23 98.3588 177.503 98.18 177.84C98.0337 178.208 97.9721 178.605 98 179L96.7 179.66C96.7038 179.264 96.761 178.871 96.87 178.49C96.9894 178.096 97.1538 177.717 97.36 177.36C97.5687 176.995 97.8242 176.659 98.12 176.36C98.4147 176.071 98.7519 175.828 99.12 175.64C99.4044 175.485 99.7174 175.39 100.04 175.36C100.273 175.338 100.507 175.398 100.7 175.53C100.894 175.676 101.037 175.879 101.11 176.11C101.209 176.417 101.256 176.738 101.25 177.06C101.251 177.35 101.217 177.638 101.15 177.92C101.073 178.23 100.972 178.535 100.85 178.83C100.72 179.14 100.57 179.48 100.39 179.83C100.21 180.18 100.01 180.55 99.79 180.95L98.51 183.3L101.51 181.79L101.43 183.13Z" fill="#64C8FF"/>
<path d="M97.8901 207.64C98.2153 207.475 98.5206 207.274 98.8001 207.04C99.2765 206.615 99.6232 206.063 99.8001 205.45C99.8953 205.124 99.9556 204.789 99.9801 204.45C99.8366 204.693 99.6691 204.92 99.4801 205.13C99.2645 205.356 99.0106 205.542 98.7301 205.68C98.4712 205.826 98.1773 205.899 97.8801 205.89C97.6429 205.872 97.4214 205.765 97.2601 205.59C97.0782 205.385 96.9509 205.137 96.8901 204.87C96.7964 204.525 96.7526 204.168 96.7601 203.81C96.7936 203.399 96.8741 202.993 97.0001 202.6C97.1082 202.192 97.259 201.796 97.4501 201.42C97.6409 201.056 97.8797 200.72 98.1601 200.42C98.4268 200.127 98.7455 199.886 99.1001 199.71C99.4005 199.529 99.7508 199.448 100.1 199.48C100.375 199.504 100.631 199.628 100.82 199.83C101.035 200.085 101.189 200.386 101.27 200.71C101.377 201.141 101.428 201.585 101.42 202.03V202.59C101.426 203.261 101.362 203.931 101.23 204.59C101.099 205.213 100.891 205.818 100.61 206.39C100.331 206.944 99.9706 207.453 99.5401 207.9C99.0628 208.361 98.5075 208.733 97.9001 209L97.8101 209.05V207.68L97.8901 207.64ZM99.0801 204.3C99.202 204.242 99.3135 204.164 99.4101 204.07C99.513 203.975 99.6037 203.867 99.6801 203.75C99.7686 203.636 99.8425 203.512 99.9001 203.38C99.9442 203.256 99.9777 203.129 100 203V202.42C100.006 202.158 99.9829 201.896 99.9301 201.64C99.8915 201.466 99.8165 201.303 99.7101 201.16C99.6349 201.059 99.524 200.991 99.4001 200.97C99.2639 200.958 99.1274 200.99 99.0101 201.06C98.8493 201.14 98.7091 201.257 98.6001 201.4C98.4769 201.559 98.376 201.734 98.3001 201.92C98.2203 202.125 98.1568 202.335 98.1101 202.55C98.0703 202.768 98.0502 202.988 98.0501 203.21C98.0482 203.411 98.0683 203.613 98.1101 203.81C98.1398 203.964 98.2011 204.11 98.2901 204.24C98.3684 204.337 98.4779 204.404 98.6001 204.43C98.6847 204.442 98.7709 204.437 98.8535 204.414C98.936 204.392 99.0131 204.353 99.0801 204.3V204.3Z" fill="#64C8FF"/>
<path d="M100.19 231.77L98.8801 232.44V225.89L97.1602 227.54V226.12L100.16 223.28H100.23L100.19 231.77Z" fill="#64C8FF"/>
<path d="M106.37 220V221.35H106.29C105.964 221.52 105.661 221.732 105.39 221.98C105.129 222.22 104.903 222.496 104.72 222.8C104.351 223.407 104.132 224.092 104.08 224.8C104.15 224.67 104.23 224.53 104.32 224.39C104.415 224.242 104.522 224.101 104.64 223.97C104.754 223.831 104.881 223.704 105.02 223.59C105.152 223.473 105.3 223.375 105.46 223.3C105.714 223.142 106.012 223.072 106.31 223.1C106.543 223.128 106.757 223.242 106.91 223.42C107.087 223.631 107.21 223.881 107.27 224.15C107.354 224.494 107.394 224.846 107.39 225.2C107.391 225.615 107.337 226.029 107.23 226.43C107.034 227.231 106.634 227.968 106.07 228.57C105.798 228.855 105.481 229.091 105.13 229.27C104.826 229.445 104.48 229.531 104.13 229.52C103.852 229.501 103.59 229.384 103.39 229.19C103.169 228.955 103.007 228.671 102.92 228.36C102.801 227.947 102.744 227.519 102.75 227.09V226.46C102.753 225.787 102.826 225.117 102.97 224.46C103.111 223.829 103.329 223.218 103.62 222.64C103.903 222.08 104.267 221.564 104.7 221.11C105.123 220.654 105.624 220.278 106.18 220H106.37ZM105.08 224.87C104.834 225 104.624 225.189 104.47 225.42C104.29 225.666 104.152 225.94 104.06 226.23V226.71C104.057 226.972 104.083 227.234 104.14 227.49C104.171 227.663 104.247 227.825 104.36 227.96C104.399 228.012 104.449 228.054 104.506 228.085C104.563 228.116 104.625 228.135 104.69 228.14C104.833 228.157 104.977 228.125 105.1 228.05C105.259 227.967 105.401 227.855 105.52 227.72C105.647 227.573 105.751 227.408 105.83 227.23C105.922 227.039 105.989 226.838 106.03 226.63C106.078 226.407 106.102 226.179 106.1 225.95C106.105 225.748 106.081 225.546 106.03 225.35C105.998 225.202 105.93 225.064 105.83 224.95C105.751 224.851 105.636 224.786 105.51 224.77C105.357 224.773 105.209 224.818 105.08 224.9V224.87Z" fill="#64C8FF"/>
<path d="M101.46 255.13L96.84 257.48V256.37L99 252.29C99.17 251.97 99.32 251.68 99.43 251.43C99.5386 251.212 99.6354 250.988 99.72 250.76C99.7846 250.59 99.838 250.417 99.88 250.24C99.893 250.097 99.893 249.953 99.88 249.81C99.8867 249.65 99.8629 249.491 99.81 249.34C99.7793 249.228 99.7168 249.127 99.63 249.05C99.5456 248.989 99.4438 248.958 99.34 248.96C99.2143 248.967 99.0916 249.002 98.98 249.06C98.6365 249.227 98.356 249.501 98.18 249.84C98.0291 250.207 97.9675 250.604 98 251L96.7 251.66C96.6984 251.264 96.7557 250.869 96.87 250.49C96.9859 250.096 97.147 249.717 97.35 249.36C97.5621 248.997 97.8173 248.661 98.11 248.36C98.4072 248.073 98.744 247.831 99.11 247.64C99.3909 247.485 99.7007 247.39 100.02 247.36C100.256 247.335 100.494 247.395 100.69 247.53C100.884 247.676 101.027 247.878 101.1 248.11C101.199 248.417 101.246 248.738 101.24 249.06C101.237 249.35 101.2 249.639 101.13 249.92C101.056 250.23 100.959 250.534 100.84 250.83C100.71 251.14 100.55 251.48 100.37 251.83C100.19 252.18 99.99 252.55 99.77 252.95L98.5 255.3L101.5 253.79L101.46 255.13Z" fill="#64C8FF"/>
<path d="M104.25 248.74L104.95 248.38C105.282 248.219 105.557 247.961 105.74 247.64C105.906 247.333 105.992 246.989 105.99 246.64C105.993 246.494 105.973 246.349 105.93 246.21C105.907 246.103 105.846 246.007 105.76 245.94C105.673 245.877 105.566 245.848 105.46 245.86C105.316 245.877 105.177 245.921 105.05 245.99C104.916 246.061 104.792 246.148 104.68 246.25C104.448 246.458 104.276 246.724 104.18 247.02C104.132 247.169 104.108 247.324 104.11 247.48L102.81 248.14C102.817 247.8 102.874 247.463 102.98 247.14C103.091 246.787 103.249 246.451 103.45 246.14C103.647 245.835 103.882 245.556 104.15 245.31C104.408 245.065 104.701 244.859 105.02 244.7C105.307 244.544 105.618 244.436 105.94 244.38C106.185 244.338 106.436 244.373 106.66 244.48C106.872 244.595 107.036 244.784 107.12 245.01C107.248 245.327 107.306 245.668 107.29 246.01C107.29 246.202 107.267 246.394 107.22 246.58C107.18 246.787 107.116 246.988 107.03 247.18C106.947 247.39 106.843 247.591 106.72 247.78C106.595 247.983 106.451 248.174 106.29 248.35C106.457 248.337 106.625 248.365 106.78 248.43C106.919 248.491 107.04 248.588 107.13 248.71C107.224 248.85 107.292 249.006 107.33 249.17C107.372 249.371 107.392 249.575 107.39 249.78C107.39 250.174 107.33 250.565 107.21 250.94C107.087 251.294 106.919 251.63 106.71 251.94C106.499 252.261 106.247 252.554 105.96 252.81C105.677 253.065 105.361 253.28 105.02 253.45C104.757 253.589 104.474 253.684 104.18 253.73C103.931 253.772 103.675 253.744 103.44 253.65C103.22 253.548 103.041 253.376 102.93 253.16C102.785 252.848 102.72 252.504 102.74 252.16L104.03 251.5C104.024 251.64 104.048 251.78 104.1 251.91C104.143 252.016 104.22 252.104 104.32 252.16C104.415 252.219 104.528 252.244 104.64 252.23C104.784 252.224 104.925 252.182 105.05 252.11C105.371 251.95 105.639 251.7 105.82 251.39C106.002 251.088 106.099 250.743 106.1 250.39C106.111 250.203 106.083 250.016 106.02 249.84C105.983 249.717 105.901 249.614 105.79 249.55C105.68 249.491 105.552 249.474 105.43 249.5C105.262 249.527 105.1 249.581 104.95 249.66L104.25 250.02V248.74Z" fill="#64C8FF"/>
<path d="M98.3399 275.74L99.0499 275.38C99.3781 275.222 99.6503 274.967 99.8299 274.65C99.9989 274.344 100.088 274 100.09 273.65C100.093 273.508 100.073 273.366 100.03 273.23C99.9986 273.126 99.9399 273.033 99.8599 272.96C99.7733 272.897 99.6664 272.868 99.5599 272.88C99.4128 272.889 99.2693 272.93 99.1399 273C99.0098 273.072 98.8889 273.159 98.7799 273.26C98.6694 273.367 98.569 273.485 98.4799 273.61C98.3991 273.746 98.3321 273.891 98.2799 274.04C98.2284 274.188 98.2014 274.343 98.1999 274.5L96.9099 275.15C96.9158 274.81 96.9731 274.473 97.0799 274.15C97.1918 273.798 97.3499 273.461 97.5499 273.15C97.7496 272.847 97.9846 272.568 98.2499 272.32C98.5108 272.078 98.8035 271.873 99.1199 271.71C99.4073 271.556 99.7182 271.452 100.04 271.4C100.281 271.352 100.531 271.388 100.75 271.5C100.964 271.611 101.131 271.796 101.22 272.02C101.347 272.338 101.405 272.678 101.39 273.02C101.385 273.215 101.361 273.409 101.32 273.6C101.273 273.805 101.21 274.006 101.13 274.2C101.043 274.408 100.939 274.609 100.82 274.8C100.691 275.001 100.547 275.191 100.39 275.37C100.556 275.355 100.724 275.379 100.88 275.44C101.017 275.506 101.134 275.605 101.22 275.73C101.318 275.864 101.386 276.018 101.42 276.18C101.47 276.379 101.494 276.585 101.49 276.79C101.491 277.184 101.43 277.575 101.31 277.95C101.189 278.304 101.021 278.641 100.81 278.95C100.599 279.271 100.347 279.564 100.06 279.82C99.7771 280.078 99.4609 280.297 99.1199 280.47C98.8526 280.607 98.5659 280.701 98.2699 280.75C98.0238 280.791 97.7713 280.763 97.5399 280.67C97.3176 280.567 97.1376 280.39 97.0299 280.17C96.8809 279.859 96.8121 279.515 96.8299 279.17L98.1299 278.51C98.1228 278.654 98.1467 278.797 98.1999 278.93C98.2445 279.032 98.3174 279.119 98.4099 279.18C98.5125 279.23 98.6258 279.254 98.7399 279.25C98.8839 279.235 99.0234 279.191 99.1499 279.12C99.4734 278.963 99.7418 278.712 99.9199 278.4C100.103 278.099 100.2 277.753 100.2 277.4C100.205 277.214 100.178 277.028 100.12 276.85C100.081 276.729 99.9989 276.626 99.8899 276.56C99.7727 276.523 99.6471 276.523 99.5299 276.56C99.3616 276.59 99.1994 276.647 99.0499 276.73L98.3399 277.09V275.74Z" fill="#64C8FF"/>
<path d="M107.37 272.89C107.374 273.404 107.323 273.917 107.22 274.42C107.131 274.863 106.987 275.293 106.79 275.7C106.613 276.069 106.376 276.407 106.09 276.7C105.827 276.983 105.516 277.217 105.17 277.39C104.887 277.544 104.572 277.63 104.25 277.64C103.991 277.636 103.744 277.532 103.56 277.35C103.34 277.118 103.184 276.832 103.11 276.52C103.001 276.069 102.95 275.605 102.96 275.14V273.14C102.951 272.626 103.002 272.113 103.11 271.61C103.202 271.167 103.35 270.736 103.55 270.33C103.728 269.964 103.96 269.626 104.24 269.33C104.503 269.05 104.815 268.819 105.16 268.65C105.441 268.49 105.757 268.401 106.08 268.39C106.341 268.399 106.589 268.502 106.78 268.68C106.99 268.918 107.141 269.202 107.22 269.51C107.329 269.962 107.38 270.426 107.37 270.89V272.89ZM104.26 273.77L106.07 271.16C106.1 270.759 106.017 270.357 105.83 270C105.68 269.8 105.46 269.77 105.16 269.92C104.846 270.093 104.604 270.373 104.48 270.71C104.315 271.179 104.241 271.674 104.26 272.17V273.77ZM106.07 272.26L104.26 274.87C104.237 275.26 104.323 275.648 104.51 275.99C104.66 276.19 104.88 276.21 105.17 276.07C105.484 275.897 105.726 275.617 105.85 275.28C106.009 274.803 106.083 274.302 106.07 273.8V272.26Z" fill="#64C8FF"/>
<path d="M122.29 167.74L123 167.38C123.329 167.219 123.604 166.966 123.79 166.65C123.956 166.343 124.042 165.999 124.04 165.65C124.043 165.508 124.023 165.366 123.98 165.23C123.953 165.125 123.893 165.031 123.81 164.96C123.724 164.897 123.617 164.868 123.51 164.88C123.363 164.889 123.22 164.93 123.09 165C122.96 165.072 122.839 165.159 122.73 165.26C122.62 165.367 122.519 165.485 122.43 165.61C122.349 165.746 122.282 165.89 122.23 166.04C122.177 166.187 122.153 166.344 122.16 166.5L120.86 167.15C120.866 166.81 120.923 166.473 121.03 166.15C121.142 165.798 121.3 165.461 121.5 165.15C121.7 164.847 121.935 164.568 122.2 164.32C122.461 164.078 122.754 163.873 123.07 163.71C123.357 163.557 123.668 163.452 123.99 163.4C124.235 163.353 124.488 163.388 124.71 163.5C124.921 163.613 125.084 163.797 125.17 164.02C125.297 164.338 125.355 164.678 125.34 165.02C125.335 165.215 125.311 165.409 125.27 165.6C125.224 165.805 125.16 166.006 125.08 166.2C124.993 166.408 124.889 166.609 124.77 166.8C124.641 167.001 124.498 167.191 124.34 167.37C124.507 167.355 124.674 167.379 124.83 167.44C124.967 167.506 125.084 167.605 125.17 167.73C125.273 167.861 125.342 168.016 125.37 168.18C125.42 168.379 125.444 168.585 125.44 168.79C125.441 169.184 125.381 169.575 125.26 169.95C125.139 170.304 124.971 170.641 124.76 170.95C124.549 171.271 124.297 171.564 124.01 171.82C123.727 172.078 123.411 172.297 123.07 172.47C122.805 172.604 122.522 172.699 122.23 172.75C121.981 172.792 121.725 172.764 121.49 172.67C121.27 172.564 121.091 172.388 120.98 172.17C120.831 171.859 120.762 171.515 120.78 171.17L122.08 170.51C122.073 170.654 122.097 170.797 122.15 170.93C122.195 171.032 122.268 171.119 122.36 171.18C122.463 171.23 122.576 171.254 122.69 171.25C122.834 171.235 122.974 171.191 123.1 171.12C123.425 170.966 123.695 170.714 123.87 170.4C124.054 170.099 124.15 169.753 124.15 169.4C124.155 169.214 124.128 169.028 124.07 168.85C124.031 168.729 123.949 168.626 123.84 168.56C123.728 168.507 123.602 168.489 123.48 168.51C123.312 168.54 123.15 168.597 123 168.68L122.3 169.04L122.29 167.74Z" fill="#64C8FF"/>
<path d="M124.18 195.77L122.87 196.44V189.89L121.15 191.54V190.12L124.1 187.28H124.17L124.18 195.77Z" fill="#64C8FF"/>
<path d="M131.33 188.89C131.339 189.404 131.288 189.918 131.18 190.42C131.091 190.863 130.947 191.293 130.75 191.7C130.572 192.067 130.34 192.404 130.06 192.7C129.794 192.984 129.479 193.217 129.13 193.39C128.851 193.545 128.539 193.631 128.22 193.64C127.958 193.639 127.706 193.535 127.52 193.35C127.303 193.117 127.151 192.831 127.08 192.52C126.962 192.07 126.908 191.605 126.92 191.14V189.14C126.916 188.626 126.967 188.113 127.07 187.61C127.162 187.167 127.31 186.736 127.51 186.33C127.688 185.964 127.921 185.626 128.2 185.33C128.465 185.052 128.776 184.822 129.12 184.65C129.401 184.49 129.717 184.401 130.04 184.39C130.302 184.391 130.554 184.495 130.74 184.68C130.955 184.915 131.107 185.2 131.18 185.51C131.289 185.962 131.34 186.426 131.33 186.89V188.89ZM128.22 189.77L130.03 187.16C130.06 186.759 129.977 186.357 129.79 186C129.64 185.8 129.42 185.77 129.12 185.92C128.806 186.09 128.567 186.372 128.45 186.71C128.281 187.178 128.203 187.673 128.22 188.17V189.77ZM130.03 188.26L128.22 190.87C128.197 191.26 128.283 191.648 128.47 191.99C128.62 192.19 128.84 192.21 129.13 192.07C129.447 191.9 129.689 191.619 129.81 191.28C129.974 190.805 130.048 190.303 130.03 189.8V188.26Z" fill="#64C8FF"/>
<path d="M124.19 219.77L122.88 220.44V213.89L121.16 215.54V214.12L124.16 211.28H124.23L124.19 219.77Z" fill="#64C8FF"/>
<path d="M131.36 208.51L128.72 217.51L127.36 218.2L130 209.66L126.59 211.39V210L131.36 207.58V208.51Z" fill="#64C8FF"/>
<path d="M125.46 243.13L120.84 245.48V244.37L123.03 240.29C123.2 239.97 123.35 239.68 123.46 239.43C123.569 239.212 123.665 238.988 123.75 238.76C123.815 238.59 123.868 238.417 123.91 238.24C123.923 238.097 123.923 237.953 123.91 237.81C123.917 237.65 123.893 237.491 123.84 237.34C123.809 237.228 123.747 237.127 123.66 237.05C123.576 236.989 123.474 236.958 123.37 236.96C123.244 236.967 123.122 237.002 123.01 237.06C122.667 237.227 122.386 237.501 122.21 237.84C122.049 238.204 121.977 238.602 122 239L120.7 239.66C120.698 239.264 120.756 238.869 120.87 238.49C120.986 238.096 121.147 237.717 121.35 237.36C121.562 236.997 121.817 236.661 122.11 236.36C122.407 236.073 122.744 235.831 123.11 235.64C123.391 235.485 123.701 235.39 124.02 235.36C124.256 235.335 124.494 235.395 124.69 235.53C124.884 235.676 125.027 235.878 125.1 236.11C125.199 236.417 125.246 236.738 125.24 237.06C125.237 237.35 125.2 237.639 125.13 237.92C125.056 238.23 124.959 238.534 124.84 238.83C124.71 239.14 124.55 239.48 124.37 239.83C124.19 240.18 123.99 240.55 123.77 240.95L122.5 243.3L125.5 241.79L125.46 243.13Z" fill="#64C8FF"/>
<path d="M130.73 237.29L131.51 236.89V238.21L130.73 238.61V240.46L129.43 241.12V239.26L126.61 240.7V239.7L129.46 232.59L130.77 231.93L130.73 237.29ZM127.83 238.76L129.43 237.95V234.78L129.3 235.12L127.83 238.76Z" fill="#64C8FF"/>
<path d="M148.77 156.29L149.56 155.89V157.21L148.77 157.61V159.46L147.47 160.12V158.27L144.65 159.7V158.7L147.5 151.59L148.81 150.92L148.77 156.29ZM145.88 157.76L147.48 156.95V153.78L147.35 154.13L145.88 157.76Z" fill="#64C8FF"/>
<path d="M148.18 183.77L146.87 184.44V177.89L145.15 179.54V178.12L148.1 175.28H148.17L148.18 183.77Z" fill="#64C8FF"/>
<path d="M154.09 180.77L152.78 181.43V174.89L151.07 176.53V175.11L154.07 172.27H154.14L154.09 180.77Z" fill="#64C8FF"/>
<path d="M148.19 207.77L146.88 208.44V201.89L145.16 203.54V202.12L148.16 199.28H148.23L148.19 207.77Z" fill="#64C8FF"/>
<path d="M155.19 198C155.186 198.422 155.101 198.84 154.94 199.23C154.774 199.637 154.544 200.015 154.26 200.35C154.413 200.359 154.562 200.401 154.696 200.474C154.831 200.546 154.948 200.648 155.04 200.77C155.255 201.091 155.357 201.475 155.33 201.86C155.335 202.25 155.278 202.638 155.16 203.01C155.042 203.362 154.881 203.698 154.68 204.01C154.275 204.62 153.721 205.116 153.07 205.45C152.791 205.604 152.486 205.705 152.17 205.75C151.923 205.789 151.67 205.758 151.44 205.66C151.225 205.542 151.056 205.356 150.96 205.13C150.822 204.816 150.76 204.473 150.78 204.13C150.782 203.895 150.809 203.66 150.86 203.43C150.909 203.193 150.983 202.962 151.08 202.74C151.172 202.518 151.282 202.304 151.41 202.1C151.548 201.898 151.698 201.704 151.86 201.52C151.723 201.504 151.591 201.459 151.473 201.386C151.356 201.313 151.255 201.216 151.18 201.1C150.99 200.803 150.902 200.452 150.93 200.1C150.929 199.364 151.137 198.643 151.53 198.02C151.717 197.725 151.943 197.456 152.2 197.22C152.458 196.989 152.743 196.791 153.05 196.63C153.316 196.492 153.603 196.401 153.9 196.36C154.132 196.327 154.37 196.365 154.58 196.47C154.781 196.591 154.939 196.774 155.03 196.99C155.153 197.312 155.207 197.656 155.19 198V198ZM154 202.36C154.006 202.194 153.982 202.028 153.93 201.87C153.898 201.753 153.832 201.649 153.74 201.57C153.651 201.502 153.542 201.466 153.43 201.47C153.29 201.476 153.153 201.514 153.03 201.58C152.879 201.659 152.741 201.761 152.62 201.88C152.498 201.999 152.397 202.138 152.32 202.29C152.231 202.447 152.164 202.615 152.12 202.79C152.071 202.973 152.048 203.161 152.05 203.35C152.035 203.494 152.052 203.638 152.099 203.775C152.145 203.911 152.221 204.036 152.32 204.14C152.427 204.209 152.552 204.245 152.68 204.245C152.807 204.245 152.932 204.209 153.04 204.14C153.182 204.062 153.314 203.964 153.43 203.85C153.549 203.732 153.65 203.597 153.73 203.45C153.819 203.293 153.886 203.125 153.93 202.95C153.982 202.758 154.006 202.559 154 202.36ZM153.87 198.68C153.873 198.535 153.853 198.389 153.81 198.25C153.776 198.145 153.718 198.049 153.64 197.97C153.562 197.911 153.467 197.879 153.37 197.88C153.248 197.88 153.127 197.911 153.02 197.97C152.754 198.104 152.54 198.322 152.41 198.59C152.264 198.882 152.192 199.204 152.2 199.53C152.194 199.682 152.211 199.834 152.25 199.98C152.277 200.088 152.337 200.186 152.42 200.26C152.492 200.324 152.584 200.359 152.68 200.36C152.802 200.361 152.923 200.33 153.03 200.27C153.158 200.201 153.276 200.113 153.38 200.01C153.484 199.9 153.572 199.776 153.64 199.64C153.717 199.499 153.774 199.347 153.81 199.19C153.86 199.024 153.89 198.853 153.9 198.68H153.87Z" fill="#64C8FF"/>
<path d="M149.46 231.13L144.84 233.48V232.37L147.03 228.29C147.2 227.97 147.35 227.68 147.46 227.43C147.569 227.212 147.665 226.988 147.75 226.76C147.815 226.59 147.868 226.417 147.91 226.24C147.94 226.098 147.956 225.954 147.96 225.81C147.967 225.65 147.943 225.491 147.89 225.34C147.859 225.228 147.797 225.127 147.71 225.05C147.626 224.989 147.524 224.958 147.42 224.96C147.294 224.967 147.172 225.002 147.06 225.06C146.717 225.227 146.436 225.501 146.26 225.84C146.082 226.2 145.993 226.598 146 227L144.7 227.66C144.698 227.264 144.756 226.869 144.87 226.49C144.986 226.096 145.147 225.717 145.35 225.36C145.562 224.997 145.817 224.661 146.11 224.36C146.407 224.073 146.744 223.831 147.11 223.64C147.391 223.485 147.701 223.39 148.02 223.36C148.256 223.335 148.494 223.395 148.69 223.53C148.884 223.676 149.027 223.878 149.1 224.11C149.199 224.417 149.246 224.738 149.24 225.06C149.237 225.35 149.2 225.639 149.13 225.92C149.056 226.23 148.959 226.534 148.84 226.83C148.71 227.14 148.55 227.48 148.37 227.83C148.19 228.18 147.99 228.55 147.77 228.95L146.5 231.3L149.5 229.79L149.46 231.13Z" fill="#64C8FF"/>
<path d="M151 226.14L151.38 221.62L155.15 219.71V221.09L152.45 222.46L152.29 224.46C152.418 224.309 152.555 224.165 152.7 224.03C152.885 223.865 153.09 223.724 153.31 223.61C153.577 223.461 153.875 223.376 154.18 223.36C154.419 223.353 154.652 223.439 154.83 223.6C155.027 223.79 155.166 224.033 155.23 224.3C155.335 224.667 155.382 225.048 155.37 225.43C155.371 225.82 155.328 226.21 155.24 226.59C155.149 226.98 155.008 227.356 154.82 227.71C154.637 228.076 154.401 228.413 154.12 228.71C153.831 229.011 153.493 229.261 153.12 229.45C152.856 229.589 152.567 229.678 152.27 229.71C152.024 229.742 151.775 229.704 151.55 229.6C151.306 229.466 151.113 229.255 151 229C150.857 228.704 150.785 228.379 150.79 228.05L152.07 227.4C152.065 227.534 152.091 227.667 152.146 227.788C152.202 227.91 152.285 228.017 152.39 228.1C152.494 228.163 152.613 228.196 152.735 228.196C152.857 228.196 152.976 228.163 153.08 228.1C153.254 228.018 153.408 227.898 153.53 227.75C153.655 227.603 153.756 227.438 153.83 227.26C153.906 227.066 153.963 226.865 154 226.66C154.032 226.438 154.049 226.214 154.05 225.99C154.05 225.791 154.027 225.593 153.98 225.4C153.954 225.253 153.88 225.12 153.77 225.02C153.724 224.974 153.669 224.938 153.609 224.914C153.549 224.89 153.485 224.878 153.42 224.88C153.247 224.884 153.079 224.932 152.93 225.02C152.81 225.073 152.699 225.144 152.6 225.23C152.51 225.299 152.426 225.376 152.35 225.46L152.16 225.7L152 225.96L151 226.14Z" fill="#64C8FF"/>
<path d="M169.06 145.15L169.44 140.62L173.2 138.71V140.09L170.5 141.46L170.34 143.46C170.463 143.307 170.6 143.167 170.75 143.04C170.928 142.867 171.134 142.725 171.36 142.62C171.625 142.467 171.924 142.381 172.23 142.37C172.469 142.363 172.702 142.449 172.88 142.61C173.074 142.799 173.212 143.038 173.28 143.3C173.38 143.672 173.427 144.055 173.42 144.44C173.421 144.83 173.377 145.219 173.29 145.6C173.199 145.99 173.058 146.366 172.87 146.72C172.687 147.086 172.451 147.423 172.17 147.72C171.883 148.024 171.544 148.275 171.17 148.46C170.905 148.601 170.617 148.692 170.32 148.73C170.073 148.764 169.822 148.722 169.6 148.61C169.378 148.497 169.197 148.319 169.08 148.1C168.937 147.807 168.865 147.485 168.87 147.16L170.15 146.51C170.144 146.644 170.169 146.777 170.225 146.899C170.281 147.021 170.365 147.127 170.47 147.21C170.575 147.271 170.694 147.302 170.815 147.302C170.936 147.302 171.055 147.271 171.16 147.21C171.332 147.125 171.485 147.006 171.61 146.86C171.731 146.71 171.832 146.546 171.91 146.37C171.984 146.176 172.038 145.975 172.07 145.77C172.111 145.546 172.131 145.318 172.13 145.09C172.129 144.891 172.106 144.693 172.06 144.5C172.021 144.358 171.949 144.228 171.85 144.12C171.754 144.032 171.63 143.982 171.5 143.98C171.328 143.991 171.161 144.038 171.01 144.12C170.894 144.181 170.784 144.251 170.68 144.33C170.59 144.399 170.506 144.476 170.43 144.56C170.361 144.639 170.298 144.722 170.24 144.81C170.181 144.893 170.127 144.98 170.08 145.07L169.06 145.15Z" fill="#64C8FF"/>
<path d="M172.18 171.77L170.87 172.44V165.89L169.15 167.54V166.12L172.1 163.28H172.17L172.18 171.77Z" fill="#64C8FF"/>
<path d="M179.35 168.13L174.73 170.48V169.36L176.92 165.28C177.09 164.96 177.24 164.68 177.35 164.42C177.459 164.202 177.555 163.978 177.64 163.75C177.706 163.581 177.759 163.407 177.8 163.23C177.814 163.09 177.814 162.95 177.8 162.81C177.806 162.647 177.782 162.484 177.73 162.33C177.699 162.221 177.637 162.123 177.55 162.05C177.51 162.016 177.464 161.99 177.414 161.975C177.365 161.959 177.312 161.954 177.26 161.96C177.134 161.963 177.01 161.997 176.9 162.06C176.557 162.227 176.276 162.501 176.1 162.84C175.917 163.206 175.828 163.611 175.84 164.02L174.54 164.68C174.539 164.287 174.597 163.896 174.71 163.52C174.823 163.12 174.988 162.737 175.2 162.38C175.405 162.015 175.657 161.679 175.95 161.38C176.242 161.087 176.58 160.844 176.95 160.66C177.231 160.503 177.54 160.404 177.86 160.37C178.098 160.348 178.335 160.412 178.53 160.55C178.727 160.693 178.871 160.897 178.94 161.13C179.039 161.433 179.086 161.751 179.08 162.07C179.077 162.36 179.04 162.649 178.97 162.93C178.898 163.24 178.801 163.545 178.68 163.84C178.55 164.16 178.39 164.49 178.21 164.84C178.03 165.19 177.83 165.57 177.61 165.96L176.34 168.31L179.34 166.8L179.35 168.13Z" fill="#64C8FF"/>
<path d="M172.19 195.77L170.88 196.44V189.89L169.16 191.54V190.12L172.16 187.28H172.23L172.19 195.77Z" fill="#64C8FF"/>
<path d="M175.82 192.63C176.149 192.473 176.456 192.271 176.73 192.03C177.204 191.607 177.55 191.059 177.73 190.45C177.824 190.124 177.884 189.789 177.91 189.45C177.769 189.695 177.601 189.923 177.41 190.13C177.195 190.357 176.941 190.543 176.66 190.68C176.404 190.834 176.108 190.907 175.81 190.89C175.576 190.869 175.356 190.767 175.19 190.6C175.009 190.393 174.878 190.147 174.81 189.88C174.726 189.533 174.685 189.177 174.69 188.82C174.691 188.399 174.741 187.979 174.84 187.57C174.944 187.157 175.095 186.758 175.29 186.38C175.483 186.018 175.722 185.682 176 185.38C176.269 185.09 176.588 184.85 176.94 184.67C177.242 184.494 177.591 184.413 177.94 184.44C178.217 184.464 178.475 184.593 178.66 184.8C178.88 185.048 179.035 185.347 179.11 185.67C179.226 186.1 179.28 186.545 179.27 186.99V187.55C179.276 188.222 179.209 188.893 179.07 189.55C178.945 190.172 178.737 190.774 178.45 191.34C178.179 191.899 177.821 192.412 177.39 192.86C176.943 193.323 176.418 193.706 175.84 193.99H175.74V192.63H175.82ZM177 189.3C177.12 189.239 177.231 189.161 177.33 189.07C177.431 188.973 177.521 188.866 177.6 188.75C177.683 188.629 177.757 188.502 177.82 188.37C177.893 188.253 177.953 188.129 178 188V187.42C178.009 187.158 177.982 186.895 177.92 186.64C177.887 186.467 177.815 186.303 177.71 186.16C177.635 186.059 177.524 185.991 177.4 185.97C177.262 185.954 177.122 185.982 177 186.05C176.842 186.135 176.705 186.255 176.6 186.4C176.474 186.557 176.373 186.733 176.3 186.92C176.215 187.119 176.151 187.327 176.11 187.54C176.071 187.761 176.051 187.985 176.05 188.21C176.048 188.408 176.068 188.606 176.11 188.8C176.138 188.955 176.199 189.102 176.29 189.23C176.366 189.332 176.476 189.403 176.6 189.43C176.743 189.425 176.881 189.38 177 189.3V189.3Z" fill="#64C8FF"/>
<path d="M173.46 219.13L168.84 221.48V220.37L171.03 216.29C171.2 215.97 171.35 215.68 171.46 215.43C171.569 215.212 171.665 214.988 171.75 214.76C171.815 214.59 171.868 214.417 171.91 214.24C171.94 214.098 171.956 213.954 171.96 213.81C171.967 213.65 171.943 213.491 171.89 213.34C171.859 213.228 171.797 213.127 171.71 213.05C171.626 212.989 171.524 212.958 171.42 212.96C171.294 212.967 171.172 213.002 171.06 213.06C170.717 213.227 170.436 213.501 170.26 213.84C170.082 214.2 169.993 214.598 170 215L168.7 215.66C168.698 215.264 168.756 214.869 168.87 214.49C168.986 214.096 169.147 213.717 169.35 213.36C169.562 212.997 169.817 212.661 170.11 212.36C170.407 212.073 170.744 211.831 171.11 211.64C171.391 211.485 171.701 211.39 172.02 211.36C172.256 211.335 172.494 211.395 172.69 211.53C172.884 211.676 173.027 211.878 173.1 212.11C173.199 212.417 173.246 212.738 173.24 213.06C173.237 213.35 173.2 213.639 173.13 213.92C173.056 214.23 172.959 214.534 172.84 214.83C172.71 215.14 172.55 215.48 172.37 215.83C172.19 216.18 171.99 216.55 171.77 216.95L170.5 219.3L173.5 217.79L173.46 219.13Z" fill="#64C8FF"/>
<path d="M178.38 208V209.35H178.31C177.979 209.518 177.673 209.73 177.4 209.98C177.141 210.222 176.916 210.498 176.73 210.8C176.541 211.113 176.393 211.449 176.29 211.8C176.182 212.148 176.115 212.507 176.09 212.87C176.164 212.728 176.248 212.591 176.34 212.46C176.428 212.31 176.532 212.169 176.65 212.04C176.766 211.904 176.893 211.776 177.03 211.66C177.164 211.545 177.312 211.448 177.47 211.37C177.724 211.214 178.022 211.144 178.32 211.17C178.553 211.198 178.767 211.312 178.92 211.49C179.097 211.701 179.22 211.951 179.28 212.22C179.364 212.564 179.404 212.916 179.4 213.27C179.401 213.685 179.347 214.099 179.24 214.5C179.142 214.905 178.991 215.295 178.79 215.66C178.602 216.025 178.363 216.362 178.08 216.66C177.81 216.947 177.492 217.184 177.14 217.36C176.837 217.536 176.49 217.623 176.14 217.61C175.859 217.591 175.593 217.475 175.39 217.28C175.169 217.045 175.007 216.761 174.92 216.45C174.804 216.037 174.75 215.609 174.76 215.18V214.55C174.759 213.878 174.83 213.207 174.97 212.55C175.114 211.919 175.336 211.307 175.63 210.73C175.906 210.168 176.267 209.652 176.7 209.2C177.124 208.742 177.629 208.365 178.19 208.09L178.38 208ZM177.1 212.87C176.851 212.999 176.638 213.188 176.48 213.42C176.303 213.666 176.168 213.94 176.08 214.23V214.71C176.074 214.972 176.097 215.233 176.15 215.49C176.184 215.662 176.259 215.824 176.37 215.96C176.409 216.012 176.459 216.054 176.516 216.085C176.572 216.116 176.635 216.135 176.7 216.14C176.846 216.157 176.994 216.125 177.12 216.05C177.276 215.967 177.415 215.855 177.53 215.72C177.656 215.57 177.763 215.406 177.85 215.23C178.033 214.828 178.125 214.391 178.12 213.95C178.12 213.748 178.096 213.547 178.05 213.35C178.01 213.205 177.942 213.069 177.85 212.95C177.767 212.855 177.654 212.792 177.53 212.77C177.377 212.772 177.228 212.817 177.1 212.9V212.87Z" fill="#64C8FF"/>
<path d="M196.43 127V128.35H196.35C196.02 128.513 195.716 128.726 195.45 128.98C195.186 129.218 194.96 129.494 194.78 129.8C194.589 130.112 194.441 130.448 194.34 130.8C194.227 131.147 194.16 131.506 194.14 131.87C194.212 131.726 194.293 131.586 194.38 131.45C194.48 131.31 194.58 131.17 194.7 131.03C194.814 130.894 194.941 130.77 195.08 130.66C195.212 130.54 195.36 130.439 195.52 130.36C195.775 130.213 196.067 130.143 196.36 130.16C196.597 130.186 196.815 130.3 196.97 130.48C197.147 130.695 197.27 130.948 197.33 131.22C197.41 131.547 197.451 131.883 197.45 132.22C197.452 132.639 197.398 133.056 197.29 133.46C197.091 134.257 196.692 134.99 196.13 135.59C195.859 135.878 195.541 136.118 195.19 136.3C194.883 136.466 194.539 136.549 194.19 136.54C193.911 136.525 193.647 136.408 193.45 136.21C193.225 135.978 193.063 135.692 192.98 135.38C192.861 134.971 192.804 134.546 192.81 134.12V133.49C192.812 132.817 192.885 132.147 193.03 131.49C193.172 130.856 193.39 130.241 193.68 129.66C193.968 129.103 194.332 128.588 194.76 128.13C195.188 127.68 195.688 127.305 196.24 127.02L196.43 127ZM195.14 131.87C194.894 132 194.684 132.189 194.53 132.42C194.349 132.661 194.21 132.932 194.12 133.22V133.71C194.117 133.972 194.143 134.234 194.2 134.49C194.234 134.662 194.31 134.824 194.42 134.96C194.459 135.012 194.509 135.054 194.566 135.085C194.623 135.116 194.685 135.135 194.75 135.14C194.892 135.147 195.034 135.116 195.16 135.05C195.319 134.967 195.462 134.855 195.58 134.72C195.706 134.569 195.811 134.4 195.89 134.22C195.985 134.031 196.052 133.828 196.09 133.62C196.138 133.4 196.162 133.175 196.16 132.95C196.165 132.748 196.142 132.546 196.09 132.35C196.061 132.198 195.992 132.057 195.89 131.94C195.81 131.844 195.695 131.783 195.57 131.77C195.416 131.771 195.265 131.82 195.14 131.91V131.87Z" fill="#EB415F"/>
<path d="M196.18 159.77L194.87 160.44V153.89L193.15 155.54V154.12L196.1 151.28H196.17L196.18 159.77Z" fill="#EB415F"/>
<path d="M200.22 152.74L200.93 152.38C201.259 152.218 201.531 151.96 201.71 151.64C201.879 151.334 201.969 150.99 201.97 150.64C201.973 150.494 201.953 150.349 201.91 150.21C201.879 150.106 201.82 150.013 201.74 149.94C201.653 149.877 201.546 149.848 201.44 149.86C201.293 149.876 201.15 149.92 201.02 149.99C200.888 150.058 200.766 150.146 200.66 150.25C200.542 150.35 200.44 150.468 200.36 150.6C200.273 150.73 200.206 150.871 200.16 151.02C200.108 151.168 200.081 151.323 200.08 151.48L198.79 152.14C198.792 151.8 198.85 151.462 198.96 151.14C199.072 150.789 199.227 150.453 199.42 150.14C199.621 149.834 199.859 149.555 200.13 149.31C200.383 149.063 200.673 148.857 200.99 148.7C201.281 148.545 201.595 148.437 201.92 148.38C202.161 148.337 202.41 148.372 202.63 148.48C202.846 148.593 203.013 148.782 203.1 149.01C203.224 149.328 203.279 149.669 203.26 150.01C203.259 150.201 203.239 150.392 203.2 150.58C203.155 150.785 203.091 150.986 203.01 151.18C202.923 151.388 202.819 151.588 202.7 151.78C202.571 151.98 202.427 152.171 202.27 152.35C202.437 152.338 202.605 152.366 202.76 152.43C202.896 152.491 203.014 152.588 203.1 152.71C203.198 152.848 203.266 153.004 203.3 153.17C203.351 153.369 203.374 153.574 203.37 153.78C203.37 154.174 203.31 154.565 203.19 154.94C203.067 155.293 202.899 155.629 202.69 155.94C202.269 156.583 201.686 157.104 201 157.45C200.735 157.591 200.447 157.685 200.15 157.73C199.904 157.771 199.651 157.743 199.42 157.65C199.197 157.548 199.015 157.376 198.9 157.16C198.76 156.846 198.695 156.503 198.71 156.16L200.01 155.5C200.004 155.64 200.028 155.78 200.08 155.91C200.119 156.015 200.193 156.104 200.29 156.16C200.389 156.22 200.505 156.245 200.62 156.23C200.764 156.223 200.905 156.182 201.03 156.11C201.346 155.943 201.612 155.694 201.8 155.39C201.98 155.087 202.076 154.742 202.08 154.39C202.086 154.203 202.059 154.017 202 153.84C201.963 153.717 201.881 153.614 201.77 153.55C201.656 153.491 201.525 153.473 201.4 153.5C201.235 153.526 201.076 153.58 200.93 153.66L200.22 154.02V152.74Z" fill="#EB415F"/>
<path d="M197.45 183.13L192.83 185.48V184.37L195.02 180.29C195.19 179.97 195.33 179.68 195.45 179.43C195.57 179.18 195.66 178.96 195.74 178.76C195.82 178.56 195.86 178.39 195.9 178.24C195.913 178.097 195.913 177.953 195.9 177.81C195.904 177.651 195.884 177.493 195.84 177.34C195.802 177.229 195.737 177.129 195.65 177.05C195.57 176.988 195.471 176.956 195.37 176.96C195.244 176.967 195.122 177.002 195.01 177.06C194.666 177.227 194.386 177.501 194.21 177.84C194.049 178.205 193.977 178.602 194 179L192.7 179.66C192.702 179.263 192.763 178.869 192.88 178.49C192.992 178.095 193.153 177.715 193.36 177.36C193.572 176.997 193.827 176.661 194.12 176.36C194.417 176.073 194.754 175.831 195.12 175.64C195.401 175.485 195.711 175.39 196.03 175.36C196.266 175.335 196.504 175.395 196.7 175.53C196.891 175.678 197.034 175.88 197.11 176.11C197.209 176.417 197.256 176.738 197.25 177.06C197.247 177.35 197.21 177.639 197.14 177.92C197.063 178.23 196.962 178.534 196.84 178.83C196.704 179.171 196.55 179.505 196.38 179.83C196.2 180.18 196 180.55 195.78 180.95L194.51 183.3L197.51 181.79L197.45 183.13Z" fill="#EB415F"/>
<path d="M203.35 176.89C203.354 177.404 203.303 177.917 203.2 178.42C203.108 178.864 202.96 179.294 202.76 179.7C202.582 180.067 202.349 180.404 202.07 180.7C201.805 180.981 201.494 181.215 201.15 181.39C200.867 181.543 200.552 181.629 200.23 181.64C199.968 181.639 199.716 181.535 199.53 181.35C199.313 181.117 199.161 180.831 199.09 180.52C198.972 180.07 198.918 179.605 198.93 179.14V177.14C198.926 176.626 198.977 176.113 199.08 175.61C199.176 175.168 199.324 174.738 199.52 174.33C199.697 173.961 199.934 173.623 200.22 173.33C200.479 173.05 200.788 172.82 201.13 172.65C201.411 172.49 201.727 172.401 202.05 172.39C202.312 172.391 202.564 172.495 202.75 172.68C202.965 172.915 203.117 173.2 203.19 173.51C203.303 173.961 203.357 174.425 203.35 174.89V176.89ZM200.24 177.77L202.04 175.16C202.07 174.759 201.987 174.357 201.8 174C201.65 173.8 201.43 173.77 201.13 173.92C200.818 174.093 200.58 174.374 200.46 174.71C200.291 175.178 200.213 175.673 200.23 176.17L200.24 177.77ZM202.04 176.26L200.24 178.87C200.209 179.259 200.292 179.648 200.48 179.99C200.63 180.19 200.85 180.21 201.14 180.07C201.457 179.9 201.699 179.619 201.82 179.28C201.984 178.805 202.058 178.303 202.04 177.8V176.26Z" fill="#EB415F"/>
<path d="M197.46 207.13L192.84 209.48V208.37L195.03 204.29C195.2 203.97 195.35 203.68 195.46 203.43C195.569 203.212 195.665 202.988 195.75 202.76C195.815 202.59 195.868 202.417 195.91 202.24C195.94 202.098 195.956 201.954 195.96 201.81C195.967 201.65 195.943 201.491 195.89 201.34C195.859 201.228 195.797 201.127 195.71 201.05C195.626 200.989 195.524 200.958 195.42 200.96C195.294 200.967 195.172 201.002 195.06 201.06C194.717 201.227 194.436 201.501 194.26 201.84C194.082 202.2 193.993 202.598 194 203L192.7 203.66C192.698 203.264 192.756 202.869 192.87 202.49C192.986 202.096 193.147 201.717 193.35 201.36C193.562 200.997 193.817 200.661 194.11 200.36C194.407 200.073 194.744 199.831 195.11 199.64C195.391 199.485 195.701 199.39 196.02 199.36C196.256 199.335 196.494 199.395 196.69 199.53C196.884 199.676 197.027 199.878 197.1 200.11C197.199 200.417 197.246 200.738 197.24 201.06C197.237 201.35 197.2 201.639 197.13 201.92C197.056 202.23 196.959 202.534 196.84 202.83C196.71 203.14 196.55 203.48 196.37 203.83C196.19 204.18 195.99 204.55 195.77 204.95L194.5 207.3L197.5 205.79L197.46 207.13Z" fill="#EB415F"/>
<path d="M203.37 196.51L200.73 205.51L199.37 206.2L202.01 197.66L198.61 199.39V198L203.37 195.58V196.51Z" fill="#EB415F"/>
<path d="M221.42 115.51L218.78 124.51L217.42 125.2L220.06 116.65L216.65 118.38V117L221.42 114.58V115.51Z" fill="#EB415F"/>
<path d="M220.18 147.77L218.87 148.44V141.89L217.15 143.54V142.12L220.1 139.28H220.17L220.18 147.77Z" fill="#EB415F"/>
<path d="M226.7 141.29L227.49 140.89V142.21L226.7 142.61V144.46L225.41 145.12V143.26L222.59 144.7L222.54 143.7L225.39 136.59L226.7 135.93V141.29ZM223.81 142.76L225.41 141.95V138.78L225.28 139.12L223.81 142.76Z" fill="#EB415F"/>
<path d="M221.45 171.13L216.83 173.48V172.37L219.02 168.29C219.19 167.97 219.33 167.68 219.45 167.43C219.57 167.18 219.66 166.96 219.74 166.76C219.82 166.56 219.86 166.39 219.9 166.24C219.913 166.097 219.913 165.953 219.9 165.81C219.904 165.651 219.884 165.493 219.84 165.34C219.802 165.229 219.737 165.129 219.65 165.05C219.57 164.988 219.471 164.956 219.37 164.96C219.244 164.967 219.122 165.002 219.01 165.06C218.666 165.227 218.386 165.501 218.21 165.84C218.049 166.205 217.977 166.602 218 167L216.7 167.66C216.702 167.263 216.763 166.869 216.88 166.49C216.992 166.095 217.153 165.715 217.36 165.36C217.572 164.997 217.827 164.661 218.12 164.36C218.417 164.073 218.754 163.831 219.12 163.64C219.401 163.485 219.711 163.39 220.03 163.36C220.266 163.335 220.504 163.395 220.7 163.53C220.891 163.678 221.034 163.88 221.11 164.11C221.209 164.417 221.256 164.738 221.25 165.06C221.247 165.35 221.21 165.639 221.14 165.92C221.063 166.23 220.962 166.534 220.84 166.83C220.704 167.171 220.55 167.505 220.38 167.83C220.2 168.18 220 168.55 219.78 168.95L218.51 171.3L221.51 169.79L221.45 171.13Z" fill="#EB415F"/>
<path d="M226.1 168.77L224.8 169.43V162.89L223.09 164.53V163.11L226.04 160.27H226.11L226.1 168.77Z" fill="#EB415F"/>
<path d="M221.46 195.13L216.84 197.48V196.37L219.03 192.29C219.2 191.97 219.35 191.68 219.46 191.43C219.569 191.212 219.665 190.988 219.75 190.76C219.815 190.59 219.868 190.417 219.91 190.24C219.94 190.098 219.956 189.954 219.96 189.81C219.967 189.65 219.943 189.491 219.89 189.34C219.859 189.228 219.797 189.127 219.71 189.05C219.626 188.989 219.524 188.958 219.42 188.96C219.294 188.967 219.172 189.002 219.06 189.06C218.717 189.227 218.436 189.501 218.26 189.84C218.082 190.2 217.993 190.598 218 191L216.7 191.66C216.698 191.264 216.756 190.869 216.87 190.49C216.986 190.096 217.147 189.717 217.35 189.36C217.562 188.997 217.817 188.661 218.11 188.36C218.407 188.073 218.744 187.831 219.11 187.64C219.391 187.485 219.701 187.39 220.02 187.36C220.256 187.335 220.494 187.395 220.69 187.53C220.884 187.676 221.027 187.878 221.1 188.11C221.199 188.417 221.246 188.738 221.24 189.06C221.237 189.35 221.2 189.639 221.13 189.92C221.056 190.23 220.959 190.534 220.84 190.83C220.71 191.14 220.55 191.48 220.37 191.83C220.19 192.18 219.99 192.55 219.77 192.95L218.5 195.3L221.5 193.79L221.46 195.13Z" fill="#EB415F"/>
<path d="M227.2 186C227.201 186.423 227.116 186.841 226.95 187.23C226.784 187.637 226.555 188.015 226.27 188.35C226.423 188.359 226.572 188.401 226.707 188.474C226.841 188.546 226.959 188.647 227.05 188.77C227.269 189.09 227.374 189.473 227.35 189.86C227.352 190.25 227.291 190.639 227.17 191.01C227.061 191.365 226.899 191.702 226.69 192.01C226.489 192.318 226.247 192.597 225.97 192.84C225.704 193.085 225.404 193.29 225.08 193.45C224.801 193.605 224.496 193.707 224.18 193.75C223.933 193.789 223.68 193.758 223.45 193.66C223.237 193.539 223.069 193.353 222.97 193.13C222.836 192.814 222.778 192.472 222.8 192.13C222.799 191.895 222.822 191.66 222.87 191.43C222.924 191.194 222.997 190.963 223.09 190.74C223.182 190.516 223.295 190.301 223.43 190.1C223.565 189.898 223.712 189.704 223.87 189.52C223.733 189.504 223.601 189.458 223.483 189.386C223.366 189.313 223.266 189.216 223.19 189.1C223.005 188.801 222.917 188.451 222.94 188.1C222.936 187.724 222.99 187.35 223.1 186.99C223.201 186.638 223.349 186.302 223.54 185.99C223.728 185.695 223.953 185.426 224.21 185.19C224.468 184.959 224.753 184.76 225.06 184.6C225.326 184.463 225.614 184.372 225.91 184.33C226.143 184.297 226.38 184.335 226.59 184.44C226.791 184.561 226.949 184.743 227.04 184.96C227.173 185.29 227.228 185.646 227.2 186ZM226.05 190.41C226.051 190.244 226.027 190.079 225.98 189.92C225.941 189.804 225.872 189.7 225.78 189.62C225.692 189.551 225.582 189.516 225.47 189.52C225.331 189.528 225.194 189.566 225.07 189.63C224.921 189.707 224.786 189.808 224.67 189.93C224.545 190.049 224.44 190.187 224.36 190.34C224.275 190.499 224.208 190.666 224.16 190.84C224.12 191.024 224.1 191.212 224.1 191.4C224.084 191.543 224.099 191.687 224.144 191.823C224.189 191.96 224.263 192.085 224.36 192.19C224.468 192.258 224.593 192.295 224.72 192.295C224.848 192.295 224.973 192.258 225.08 192.19C225.223 192.111 225.354 192.014 225.47 191.9C225.592 191.784 225.693 191.649 225.77 191.5C225.863 191.345 225.931 191.176 225.97 191C226.031 190.792 226.058 190.576 226.05 190.36V190.41ZM225.91 186.73C225.913 186.584 225.893 186.439 225.85 186.3C225.816 186.194 225.758 186.098 225.68 186.02C225.603 185.959 225.508 185.928 225.41 185.93C225.288 185.93 225.167 185.961 225.06 186.02C224.796 186.157 224.583 186.374 224.45 186.64C224.305 186.931 224.232 187.254 224.24 187.58C224.223 187.729 224.223 187.88 224.24 188.03C224.272 188.136 224.33 188.233 224.41 188.31C224.485 188.375 224.581 188.41 224.68 188.41C224.802 188.41 224.923 188.379 225.03 188.32C225.157 188.248 225.275 188.161 225.38 188.06C225.478 187.945 225.565 187.821 225.64 187.69C225.71 187.546 225.763 187.395 225.8 187.24C225.861 187.059 225.898 186.871 225.91 186.68V186.73Z" fill="#EB415F"/>
<path d="M78.52 248.66C89.19 243.11 89.19 220.87 78.52 226.43C67.85 231.99 67.86 254.22 78.52 248.66Z" fill="#64C8FF"/>
<path d="M76.1699 195.77L74.8599 196.44V189.89L73.1499 191.54V190.12L76.1499 187.28H76.2199L76.1699 195.77Z" fill="#64C8FF"/>
<path d="M77.2599 213C77.2591 213.423 77.1741 213.841 77.0099 214.23C76.8478 214.639 76.6179 215.018 76.3299 215.35C76.4834 215.355 76.6336 215.396 76.7689 215.469C76.9042 215.542 77.0209 215.645 77.1099 215.77C77.3306 216.089 77.4363 216.473 77.4099 216.86C77.4111 217.25 77.3503 217.639 77.2299 218.01C77.1233 218.366 76.9613 218.704 76.7499 219.01C76.5512 219.32 76.3087 219.6 76.0299 219.84C75.7614 220.084 75.4622 220.293 75.1399 220.46C74.8577 220.607 74.5539 220.708 74.2399 220.76C73.992 220.796 73.7389 220.761 73.5099 220.66C73.2955 220.546 73.1263 220.363 73.0299 220.14C72.8978 219.824 72.8397 219.482 72.8599 219.14C72.8584 218.902 72.8818 218.664 72.9299 218.43C72.9835 218.197 73.0571 217.97 73.1499 217.75C73.2392 217.525 73.3532 217.31 73.4899 217.11C73.6195 216.904 73.7667 216.71 73.9299 216.53C73.7937 216.51 73.6631 216.463 73.5461 216.391C73.4291 216.319 73.3282 216.223 73.2499 216.11C73.0669 215.81 72.9797 215.461 72.9999 215.11C73.0017 214.738 73.0556 214.367 73.1599 214.01C73.2608 213.658 73.4088 213.322 73.5999 213.01C73.7843 212.713 74.0099 212.444 74.2699 212.21C74.525 211.975 74.811 211.777 75.1199 211.62C75.3839 211.476 75.6719 211.381 75.9699 211.34C76.2036 211.305 76.4422 211.347 76.6499 211.46C76.8535 211.578 77.0118 211.761 77.0999 211.98C77.2308 212.303 77.2856 212.652 77.2599 213V213ZM76.1099 217.41C76.1105 217.241 76.087 217.072 76.0399 216.91C75.9986 216.795 75.9299 216.692 75.8399 216.61C75.7513 216.542 75.6417 216.506 75.5299 216.51C75.3896 216.521 75.2533 216.562 75.1299 216.63C74.9795 216.706 74.8413 216.803 74.7199 216.92C74.6033 217.044 74.5026 217.181 74.4199 217.33C74.337 217.49 74.27 217.657 74.2199 217.83C74.1742 218.016 74.154 218.208 74.1599 218.4C74.139 218.541 74.1516 218.686 74.1968 218.821C74.2419 218.957 74.3184 219.079 74.4199 219.18C74.5274 219.249 74.6523 219.285 74.7799 219.285C74.9074 219.285 75.0323 219.249 75.1399 219.18C75.2821 219.105 75.4133 219.011 75.5299 218.9C75.6517 218.781 75.7531 218.642 75.8299 218.49C75.9228 218.339 75.9903 218.173 76.0299 218C76.0883 217.795 76.1153 217.583 76.1099 217.37V217.41ZM75.9999 213.69C76.0031 213.541 75.9828 213.393 75.9399 213.25C75.9086 213.146 75.8499 213.053 75.7699 212.98C75.6949 212.915 75.599 212.88 75.4999 212.88C75.3768 212.884 75.2566 212.918 75.1499 212.98C74.8866 213.113 74.6728 213.327 74.5399 213.59C74.3958 213.886 74.3238 214.211 74.3299 214.54C74.3123 214.686 74.3123 214.834 74.3299 214.98C74.3585 215.088 74.4175 215.185 74.4999 215.26C74.5734 215.328 74.6694 215.368 74.7699 215.37C74.893 215.366 75.0132 215.332 75.1199 215.27C75.2511 215.205 75.3696 215.117 75.4699 215.01C75.5702 214.897 75.6575 214.773 75.7299 214.64C75.7995 214.496 75.8532 214.345 75.8899 214.19C75.9471 214.029 75.984 213.861 75.9999 213.69V213.69Z" fill="#64C8FF"/>
<path d="M76.1902 243.77L74.8801 244.44V237.89L73.1602 239.54V238.12L76.1602 235.28H76.2302L76.1902 243.77Z" fill="#0E4D7E"/>
<path d="M79 238.14L79.38 233.62L83.14 231.71V233.09L80.44 234.46L80.28 236.46C80.4052 236.306 80.5423 236.162 80.69 236.03C80.8734 235.863 81.0786 235.722 81.3 235.61C81.5671 235.461 81.8647 235.376 82.17 235.36C82.4095 235.353 82.6423 235.439 82.82 235.6C83.0139 235.793 83.1521 236.035 83.22 236.3C83.3203 236.668 83.3675 237.049 83.36 237.43C83.3613 237.82 83.3177 238.21 83.23 238.59C83.1393 238.98 82.9981 239.356 82.81 239.71C82.6269 240.076 82.391 240.413 82.11 240.71C81.8207 241.011 81.4826 241.261 81.11 241.45C80.8451 241.588 80.5569 241.676 80.26 241.71C80.0144 241.742 79.7648 241.704 79.54 241.6C79.2995 241.464 79.11 241.253 79 241C78.8573 240.704 78.7854 240.379 78.79 240.05L80.07 239.4C80.062 239.534 80.087 239.668 80.1428 239.79C80.1986 239.912 80.2835 240.018 80.39 240.1C80.4942 240.163 80.6135 240.196 80.735 240.196C80.8565 240.196 80.9758 240.163 81.08 240.1C81.2524 240.015 81.4056 239.896 81.53 239.75C81.6554 239.605 81.7536 239.439 81.82 239.26C81.9047 239.069 81.962 238.867 81.99 238.66C82.0302 238.439 82.0503 238.215 82.05 237.99C82.0501 237.791 82.0266 237.593 81.98 237.4C81.9459 237.257 81.8733 237.125 81.77 237.02C81.7241 236.974 81.6695 236.938 81.6093 236.914C81.5492 236.89 81.4848 236.878 81.42 236.88C81.2729 236.889 81.1294 236.929 81 237C80.8803 237.053 80.769 237.124 80.67 237.21C80.5776 237.276 80.4936 237.353 80.42 237.44C80.3506 237.515 80.2871 237.595 80.23 237.68L80.07 237.94L79 238.14Z" fill="#0E4D7E"/>
<path d="M77.46 267.13L72.84 269.48V268.37L75 264.29C75.17 263.97 75.32 263.68 75.43 263.43C75.5386 263.212 75.6354 262.988 75.72 262.76C75.7846 262.59 75.838 262.417 75.88 262.24C75.893 262.097 75.893 261.953 75.88 261.81C75.8867 261.65 75.8629 261.491 75.81 261.34C75.7793 261.228 75.7168 261.127 75.63 261.05C75.5456 260.989 75.4438 260.958 75.34 260.96C75.2143 260.967 75.0916 261.002 74.98 261.06C74.6365 261.227 74.356 261.501 74.18 261.84C74.0291 262.207 73.9675 262.604 74 263L72.7 263.66C72.6984 263.264 72.7557 262.869 72.87 262.49C72.9859 262.096 73.147 261.717 73.35 261.36C73.5621 260.997 73.8173 260.661 74.11 260.36C74.4072 260.073 74.744 259.831 75.11 259.64C75.3909 259.485 75.7007 259.39 76.02 259.36C76.2564 259.335 76.494 259.395 76.69 259.53C76.8839 259.676 77.0273 259.878 77.1 260.11C77.2042 260.433 77.2515 260.771 77.24 261.11C77.2372 261.4 77.2003 261.689 77.13 261.97C77.0564 262.28 76.9594 262.584 76.84 262.88C76.71 263.19 76.55 263.53 76.37 263.88C76.19 264.23 75.99 264.6 75.77 265L74.5 267.35L77.5 265.84L77.46 267.13Z" fill="#64C8FF"/>
<path d="M83.3799 264.13L78.7499 266.48V265.36L80.9499 261.28C81.1199 260.96 81.2599 260.68 81.3799 260.42C81.4999 260.16 81.5899 259.95 81.6699 259.75C81.733 259.581 81.7831 259.407 81.8199 259.23C81.855 259.093 81.8719 258.951 81.8699 258.81C81.8736 258.648 81.8533 258.486 81.8099 258.33C81.7719 258.222 81.7065 258.125 81.6199 258.05C81.5825 258.015 81.5381 257.99 81.4898 257.974C81.4414 257.958 81.3903 257.954 81.3399 257.96C81.2104 257.963 81.0836 257.998 80.9699 258.06C80.6284 258.23 80.3487 258.503 80.1699 258.84C79.9917 259.207 79.9027 259.612 79.9099 260.02L78.6099 260.68C78.6138 260.287 78.671 259.897 78.7799 259.52C78.8974 259.122 79.0619 258.739 79.2699 258.38C79.478 258.014 79.7336 257.678 80.0299 257.38C80.3212 257.086 80.6591 256.843 81.0299 256.66C81.3139 256.502 81.6268 256.404 81.9499 256.37C82.1871 256.353 82.423 256.416 82.6199 256.55C82.8101 256.697 82.9499 256.9 83.0199 257.13C83.1234 257.432 83.1709 257.751 83.1599 258.07C83.1606 258.359 83.127 258.648 83.0599 258.93C82.9843 259.241 82.884 259.545 82.7599 259.84C82.6299 260.16 82.4799 260.49 82.2999 260.84C82.1199 261.19 81.9199 261.57 81.6999 261.96L80.4199 264.31L83.4199 262.8L83.3799 264.13Z" fill="#64C8FF"/>
<path d="M77.48 291.13L72.85 293.48V292.37L75 288.29C75.17 287.97 75.32 287.68 75.44 287.43C75.56 287.18 75.65 286.96 75.72 286.76C75.7889 286.592 75.8425 286.418 75.88 286.24C75.893 286.097 75.893 285.953 75.88 285.81C75.8866 285.65 75.8629 285.491 75.81 285.34C75.7793 285.228 75.7168 285.127 75.63 285.05C75.5493 284.99 75.4507 284.958 75.35 284.96C75.221 284.967 75.095 285.001 74.98 285.06C74.6385 285.23 74.3588 285.503 74.18 285.84C74.0337 286.208 73.9721 286.605 74 287L72.7 287.66C72.7038 287.264 72.761 286.871 72.87 286.49C72.9894 286.096 73.1538 285.717 73.36 285.36C73.5687 284.995 73.8242 284.659 74.12 284.36C74.4147 284.071 74.7519 283.828 75.12 283.64C75.4044 283.485 75.7174 283.39 76.04 283.36C76.2731 283.338 76.5066 283.398 76.7 283.53C76.8939 283.676 77.0373 283.879 77.11 284.11C77.2141 284.433 77.2615 284.771 77.25 285.11C77.2507 285.4 77.2171 285.688 77.15 285.97C77.0727 286.28 76.9724 286.585 76.85 286.88C76.72 287.19 76.57 287.53 76.39 287.88C76.21 288.23 76.01 288.6 75.79 289L74.51 291.35L77.51 289.84L77.48 291.13Z" fill="#64C8FF"/>
<path d="M79.8499 288.63C80.1762 288.473 80.4791 288.271 80.75 288.03C80.9972 287.819 81.2127 287.573 81.3899 287.3C81.563 287.037 81.6977 286.751 81.79 286.45C81.8936 286.126 81.9542 285.79 81.97 285.45C81.8324 285.697 81.6644 285.925 81.47 286.13C81.2608 286.359 81.0096 286.546 80.73 286.68C80.4707 286.834 80.1712 286.908 79.87 286.89C79.6375 286.873 79.4198 286.77 79.26 286.6C79.071 286.398 78.9397 286.15 78.8799 285.88C78.7869 285.535 78.7432 285.178 78.75 284.82C78.7489 284.398 78.8027 283.978 78.91 283.57C79.0101 283.158 79.1577 282.758 79.3499 282.38C79.5466 282.02 79.7849 281.684 80.0599 281.38C80.3313 281.092 80.6491 280.852 81 280.67C81.3028 280.495 81.6511 280.415 82 280.44C82.276 280.468 82.5323 280.596 82.72 280.8C82.9397 281.048 83.0944 281.347 83.1699 281.67C83.281 282.101 83.3348 282.545 83.33 282.99V283.55C83.3312 284.222 83.2642 284.892 83.1299 285.55C83.0006 286.171 82.7922 286.772 82.51 287.34C82.2313 287.897 81.8706 288.41 81.44 288.86C80.9849 289.331 80.4499 289.717 79.86 290L79.76 290.05V288.69L79.8499 288.63ZM81 285.3C81.1198 285.238 81.2308 285.161 81.33 285.07C81.4309 284.97 81.5245 284.863 81.61 284.75C81.6896 284.629 81.7598 284.502 81.8199 284.37C81.8888 284.251 81.9489 284.128 82 284V283.42C82.0035 283.158 81.9766 282.896 81.9199 282.64C81.8865 282.466 81.8147 282.302 81.7099 282.16C81.631 282.059 81.5167 281.991 81.3899 281.97C81.26 281.939 81.1236 281.95 81 282C80.8389 282.085 80.6988 282.204 80.5899 282.35C80.4644 282.507 80.3632 282.683 80.29 282.87C80.2078 283.07 80.1475 283.277 80.11 283.49C80.0624 283.71 80.039 283.935 80.04 284.16C80.0381 284.358 80.0582 284.556 80.0999 284.75C80.1282 284.906 80.1933 285.054 80.29 285.18C80.3616 285.282 80.4686 285.353 80.5899 285.38C80.7315 285.393 80.8738 285.365 81 285.3Z" fill="#64C8FF"/>
<path opacity="0.2" d="M180 150L216 132V288L180 270V150Z" fill="#1D1D1B"/>
<path opacity="0.2" d="M189 296V332L153 314L189 296Z" fill="#1D1D1B"/>
<path d="M324 78V234L216 288V132L324 78Z" fill="#1368AB" stroke="#64C8FF" stroke-width="2" stroke-linecap="round" stroke-linejoin="round"/>
<path d="M316 74L324 78L216 132L208 128L316 74Z" fill="#146EB4" stroke="#64C8FF" stroke-width="2" stroke-linecap="round" stroke-linejoin="round"/>
<path d="M208 128L216 132V288L208 284V128Z" fill="#105890" stroke="#64C8FF" stroke-width="2" stroke-linecap="round" stroke-linejoin="round"/>
<path d="M312 132L228 174V138L312 96V132Z" fill="#0A3759" stroke="#64C8FF" stroke-width="2" stroke-linecap="round" stroke-linejoin="round"/>
<path d="M244 178L228 186V198L244 190V178Z" fill="#3784BF" stroke="#64C8FF" stroke-width="2" stroke-linecap="round" stroke-linejoin="round"/>
<path d="M268 166L252 174V186L268 178V166Z" fill="#3784BF" stroke="#64C8FF" stroke-width="2" stroke-linecap="round" stroke-linejoin="round"/>
<path d="M292 154L276 162V174L292 166V154Z" fill="#3784BF" stroke="#64C8FF" stroke-width="2" stroke-linecap="round" stroke-linejoin="round"/>
<path d="M244 202L228 210V222L244 214V202Z" fill="#1368AB" stroke="#64C8FF" stroke-width="2" stroke-linecap="round" stroke-linejoin="round"/>
<path d="M268 190L252 198V210L268 202V190Z" fill="#1368AB" stroke="#64C8FF" stroke-width="2" stroke-linecap="round" stroke-linejoin="round"/>
<path d="M292 178L276 186V198L292 190V178Z" fill="#1368AB" stroke="#64C8FF" stroke-width="2" stroke-linecap="round" stroke-linejoin="round"/>
<path d="M244 226L228 234V246L244 238V226Z" fill="#1368AB" stroke="#64C8FF" stroke-width="2" stroke-linecap="round" stroke-linejoin="round"/>
<path d="M268 214L252 222V234L268 226V214Z" fill="#1368AB" stroke="#64C8FF" stroke-width="2" stroke-linecap="round" stroke-linejoin="round"/>
<path d="M292 202L276 210V222L292 214V202Z" fill="#1368AB" stroke="#64C8FF" stroke-width="2" stroke-linecap="round" stroke-linejoin="round"/>
<path d="M244 250L228 258V270L244 262V250Z" fill="#1368AB" stroke="#64C8FF" stroke-width="2" stroke-linecap="round" stroke-linejoin="round"/>
<path d="M268 238L252 246V258L268 250V238Z" fill="#1368AB" stroke="#64C8FF" stroke-width="2" stroke-linecap="round" stroke-linejoin="round"/>
<path d="M292 226L276 234V246L292 238V226Z" fill="#1368AB" stroke="#64C8FF" stroke-width="2" stroke-linecap="round" stroke-linejoin="round"/>
<path d="M312 144L300 150V162L312 156V144Z" fill="#3784BF" stroke="#64C8FF" stroke-width="2" stroke-linecap="round" stroke-linejoin="round"/>
<path d="M312 168L300 174V186L312 180V168Z" fill="#3784BF" stroke="#64C8FF" stroke-width="2" stroke-linecap="round" stroke-linejoin="round"/>
<path d="M312 192L300 198V234L312 228V192Z" fill="#3784BF" stroke="#64C8FF" stroke-width="2" stroke-linecap="round" stroke-linejoin="round"/>
<path d="M312 136L306 139" stroke="#00A587" stroke-width="2" stroke-linecap="round" stroke-linejoin="round"/>
<path d="M300 142L294 145" stroke="#EB415F" stroke-width="2" stroke-linecap="round" stroke-linejoin="round"/>
<path d="M288 148L282 151" stroke="#FFD700" stroke-width="2" stroke-linecap="round" stroke-linejoin="round"/>
<path d="M261 200V296L189 332V236L261 200Z" fill="#0A3759" stroke="#64C8FF" stroke-width="2" stroke-linecap="round" stroke-linejoin="round"/>
<path d="M233.33 293.5L225.83 304.75" stroke="#00A587" stroke-width="2" stroke-linecap="round" stroke-linejoin="round"/>
<path d="M221.96 306.51L213 308L202.19 317.01" stroke="#00A587" stroke-width="2" stroke-linecap="round" stroke-linejoin="round"/>
<path d="M201 320.67V324.67" stroke="#00A587" stroke-width="2" stroke-linecap="round" stroke-linejoin="round"/>
<path d="M191.76 307.01L203 303L211 295L215.55 294.24" stroke="#EB415F" stroke-width="2" stroke-linecap="round" stroke-linejoin="round"/>
<path d="M191.71 294.65L197 292L203 291L211.76 284.87" stroke="#FFD700" stroke-width="2" stroke-linecap="round" stroke-linejoin="round"/>
<path d="M219.34 237.52L215 240L207 260L208.7 268.5" stroke="#00A587" stroke-width="2" stroke-linecap="round" stroke-linejoin="round"/>
<path d="M212 270.5L213.5 270.75" stroke="#00A587" stroke-width="2" stroke-linecap="round" stroke-linejoin="round"/>
<path d="M243 280L249 290V302" stroke="#EB415F" stroke-width="2" stroke-linecap="round" stroke-linejoin="round"/>
<path d="M261 276L251 267L249 274L241 282L235 291L225 297L217 294L213 284L215 271L213 260L217 246L225 230L237 224L249 206L261 200V276Z" fill="#64C8FF" fill-opacity="0.2" stroke="#64C8FF" stroke-width="2" stroke-linecap="round" stroke-linejoin="round"/>
<path d="M261 200V296L189 332V236L261 200Z" stroke="#64C8FF" stroke-width="2" stroke-linecap="round" stroke-linejoin="round"/>
<path opacity="0.1" d="M232 140V168L308 130V102L232 140Z" fill="#5B9ACB"/>
<path d="M240.17 153.94L239.08 154.49L237.51 150.71V155.29L236.41 155.85V148.74L237.51 148.18L239.07 151.95V147.39L240.16 146.83L240.17 153.94Z" fill="#64C8FF"/>
<path d="M245.31 148.29C245.309 148.74 245.262 149.189 245.17 149.63C245.075 150.044 244.935 150.447 244.75 150.83C244.579 151.193 244.357 151.53 244.09 151.83C243.842 152.109 243.543 152.34 243.21 152.51C242.944 152.657 242.644 152.73 242.34 152.72C242.096 152.691 241.87 152.577 241.7 152.4C241.512 152.166 241.378 151.892 241.31 151.6C241.212 151.214 241.165 150.818 241.17 150.42V149.42C241.168 148.973 241.211 148.528 241.3 148.09C241.388 147.679 241.522 147.28 241.7 146.9C241.857 146.534 242.073 146.196 242.34 145.9C242.582 145.621 242.873 145.391 243.2 145.22C243.47 145.064 243.779 144.991 244.09 145.01C244.341 145.026 244.577 145.137 244.75 145.32C244.949 145.542 245.09 145.81 245.16 146.1C245.267 146.487 245.317 146.888 245.31 147.29V148.29ZM244.2 147.81C244.217 147.553 244.217 147.296 244.2 147.04C244.172 146.851 244.111 146.668 244.02 146.5C243.953 146.378 243.842 146.285 243.71 146.24C243.551 146.216 243.388 146.248 243.25 146.33C243.078 146.419 242.927 146.545 242.81 146.7C242.688 146.871 242.593 147.06 242.53 147.26C242.448 147.489 242.394 147.728 242.37 147.97C242.354 148.243 242.354 148.517 242.37 148.79V149.84C242.354 150.096 242.354 150.353 242.37 150.61C242.392 150.801 242.446 150.987 242.53 151.16C242.586 151.288 242.69 151.388 242.82 151.44C242.972 151.472 243.13 151.443 243.26 151.36C243.44 151.273 243.595 151.143 243.71 150.98C243.843 150.807 243.947 150.615 244.02 150.41C244.103 150.176 244.164 149.935 244.2 149.69C244.216 149.413 244.216 149.136 244.2 148.86V147.81Z" fill="#64C8FF"/>
<path d="M248.25 146.2L249.18 144.08L250.34 143.49L248.93 146.8L250.39 148.75L249.22 149.34L248.22 148.1L247.22 150.31L246.05 150.91L247.51 147.48L246.1 145.6L247.26 145.01L248.25 146.2Z" fill="#64C8FF"/>
<path d="M255 143.8L251.77 145.44V144.34L255 142.7V143.8Z" fill="#64C8FF"/>
<path d="M258 142.88L259.06 137.22L260.27 136.61L258.56 144.61L257.45 145.18L255.74 138.94L256.94 138.33L258 142.88Z" fill="#64C8FF"/>
<path d="M265 138.28C265 138.731 264.95 139.18 264.85 139.62C264.763 140.035 264.626 140.438 264.44 140.82C264.269 141.183 264.046 141.52 263.78 141.82C263.529 142.097 263.231 142.327 262.9 142.5C262.633 142.646 262.333 142.718 262.03 142.71C261.783 142.683 261.555 142.566 261.39 142.38C261.196 142.152 261.059 141.881 260.99 141.59C260.895 141.204 260.852 140.807 260.86 140.41V139.41C260.855 138.936 260.902 138.464 261 138C261.083 137.588 261.217 137.188 261.4 136.81C261.561 136.448 261.773 136.111 262.03 135.81C262.275 135.534 262.57 135.307 262.9 135.14C263.167 134.986 263.472 134.91 263.78 134.92C264.034 134.945 264.271 135.058 264.45 135.24C264.649 135.462 264.79 135.73 264.86 136.02C264.966 136.407 265.017 136.808 265.01 137.21L265 138.28ZM263.89 137.8C263.893 137.542 263.872 137.284 263.83 137.03C263.811 136.84 263.753 136.656 263.66 136.49C263.593 136.367 263.482 136.274 263.35 136.23C263.192 136.202 263.029 136.23 262.89 136.31C262.717 136.403 262.567 136.532 262.45 136.69C262.324 136.86 262.226 137.049 262.16 137.25C262.086 137.481 262.035 137.719 262.01 137.96C261.994 138.233 261.994 138.507 262.01 138.78V139.78C261.993 140.04 261.993 140.3 262.01 140.56C262.03 140.75 262.081 140.936 262.16 141.11C262.186 141.18 262.228 141.244 262.284 141.294C262.339 141.345 262.406 141.382 262.478 141.401C262.551 141.421 262.627 141.423 262.7 141.407C262.773 141.391 262.842 141.358 262.9 141.31C263.076 141.218 263.229 141.088 263.35 140.93C263.48 140.756 263.585 140.564 263.66 140.36C263.736 140.122 263.793 139.878 263.83 139.63C263.871 139.355 263.891 139.078 263.89 138.8V137.8Z" fill="#64C8FF"/>
<path d="M267.93 136L269.04 132.16L270.24 131.55L268.46 137.1V139.56L267.38 140.12V137.6L265.63 133.9L266.82 133.29L267.93 136Z" fill="#64C8FF"/>
<path d="M273.71 135.42L272.01 136.28L271.68 137.93L270.53 138.51L272.38 130.51L273.38 130L275.2 136.19L274.05 136.77L273.71 135.42ZM272.28 134.97L273.45 134.38L272.87 132.06L272.28 134.97Z" fill="#64C8FF"/>
<path d="M279.74 133C279.655 133.167 279.558 133.327 279.45 133.48C279.319 133.663 279.176 133.837 279.02 134C278.845 134.179 278.658 134.346 278.46 134.5C278.25 134.661 278.026 134.801 277.79 134.92C277.524 135.068 277.225 135.147 276.92 135.15C276.673 135.141 276.438 135.042 276.26 134.87C276.054 134.65 275.906 134.382 275.83 134.09C275.721 133.679 275.671 133.255 275.68 132.83V131.83C275.68 131.355 275.734 130.882 275.84 130.42C275.935 129.998 276.079 129.588 276.27 129.2C276.442 128.837 276.664 128.501 276.93 128.2C277.157 127.942 277.432 127.732 277.74 127.58C277.993 127.43 278.277 127.338 278.57 127.31C278.779 127.282 278.991 127.328 279.17 127.44C279.347 127.561 279.48 127.737 279.55 127.94C279.655 128.205 279.716 128.485 279.73 128.77L278.67 129.31C278.674 129.055 278.581 128.808 278.41 128.62C278.27 128.51 278.06 128.52 277.77 128.67C277.618 128.75 277.485 128.863 277.38 129C277.251 129.167 277.146 129.353 277.07 129.55C276.974 129.792 276.903 130.043 276.86 130.3C276.806 130.604 276.78 130.911 276.78 131.22V132.22C276.745 132.699 276.838 133.179 277.05 133.61C277.22 133.88 277.49 133.92 277.84 133.74C277.929 133.7 278.013 133.649 278.09 133.59C278.174 133.532 278.254 133.469 278.33 133.4L278.52 133.21C278.568 133.152 278.609 133.088 278.64 133.02V131.73L277.7 132.21V131.21L279.7 130.21L279.74 133Z" fill="#64C8FF"/>
<path d="M284.26 128.43L281.94 129.6V131.6L284.65 130.22V131.33L280.84 133.26V126.16L284.64 124.23V125.35L281.94 126.72V128.51L284.26 127.33V128.43Z" fill="#64C8FF"/>
<path d="M294.78 120.2L293.04 121.09V127.09L291.94 127.65V121.65L290.22 122.53V121.4L294.77 119.08L294.78 120.2Z" fill="#64C8FF"/>
<path d="M298.34 122.9L296.64 123.76L296.31 125.42L295.16 126L297.01 118L298.01 117.5L299.83 123.68L298.68 124.27L298.34 122.9ZM296.91 122.46L298.08 121.86L297.5 119.54L296.91 122.46Z" fill="#64C8FF"/>
<path d="M302.4 117.76L303.4 114.71L304.68 114.05L303.09 118.39L304.73 121.14L303.45 121.79L302.45 119.73L301.45 122.84L300.16 123.49L301.79 119.08L300.2 116.37L301.47 115.72L302.4 117.76Z" fill="#64C8FF"/>
<g opacity="0.05">
<path opacity="0.05" d="M261 260V284L189 248V236L201 230L261 260Z" fill="white"/>
</g>
<g opacity="0.05">
<path opacity="0.05" d="M261 250V256L205 228L211 225L261 250Z" fill="white"/>
</g>
<path opacity="0.1" d="M193 238V326L257 294V206L193 238Z" fill="#5B9ACB"/>
<g opacity="0.48">
<path opacity="0.05" d="M286 145L280 148L244 130L250 127L286 145Z" fill="white"/>
</g>
<g opacity="0.48">
<path opacity="0.05" d="M276 150L252 162L228 150V138L240 132L276 150Z" fill="white"/>
</g>
</svg>
